<svg width="138" height="38" viewBox="0 0 138 38" fill="none" xmlns="http://www.w3.org/2000/svg">
<path d="M20.2561 19.8654C22.3347 16.9306 25.0442 14.7396 27.2187 16.3973L29.25 15.3073C27.2786 14.0583 25.4912 14.4142 20.44 17.9332C20.4079 18.6323 20.3473 19.2746 20.2561 19.8654Z" fill="white"/>
<path d="M18.4989 15.1587C18.9854 15.6018 19.1751 22.626 16.6162 25.4143C18.6865 24.3346 19.8205 22.6858 20.2561 19.8654C20.3473 19.2746 20.4079 18.6323 20.44 17.9332C20.492 16.8019 20.4694 15.5216 20.3816 14.0687C20.3816 14.0687 18.0124 14.7155 18.4989 15.1587Z" fill="white"/>
<path d="M17.9915 1.36289C17.1493 11.6681 15.7621 19.0997 8.52862 24.1532C0.601483 30.1976 -3.11432 17.4648 7.78545 14.0462C1.84019 17.4648 1.99808 23.0292 4.87314 24.4064C4.93712 24.437 5.00245 24.4656 5.06909 24.492C7.7857 25.3701 11.0016 21.7222 13.2374 16.5074C15.0384 12.3068 16.2034 7.08932 15.9602 2.40332C15.8861 2.15548 15.7985 2.06002 15.4648 2.05651L17.397 1.01607C17.7545 0.96083 17.8822 1.04123 17.9915 1.36289Z" fill="white"/>
<path d="M34.5841 15.3513C34.3706 15.5691 34.1256 15.8321 33.9438 16.0434C28.4287 22.4522 37.1797 25.8322 43.4029 22.1389C36.1019 28.7872 23.1222 22.6035 34.5841 15.3513Z" fill="white"/>
<path d="M51.5386 14.2866C40.656 19.5233 48.3397 27.895 55.1552 22.9568C54.5607 23.3036 53.2139 23.5722 52.6285 23.518C48.3689 23.1233 45.7725 18.0919 51.5386 14.2866Z" fill="white"/>
<path d="M52.6285 23.518C53.2139 23.5722 54.5607 23.3036 55.1552 22.9568C55.6928 22.4901 56.4757 21.581 56.9031 21.0476C57.8544 19.8602 58.03 19.3608 58.2009 18.5902C58.2226 18.3863 58.2889 17.9196 58.3007 17.7547C57.944 18.1083 56.7108 18.6207 56.1957 18.7951C56.3096 19.7615 54.6041 23.3113 52.6285 23.518Z" fill="white"/>
<path d="M59.6984 23.8982C60.1976 23.849 60.9699 22.8346 62.0305 22.1083C59.5772 21.6647 58.0564 21.4905 58.2009 18.5902C58.03 19.3608 57.8544 19.8602 56.9031 21.0476C57.1277 22.6573 57.773 23.2598 59.6984 23.8982Z" fill="white"/>
<path d="M49.9121 15.5974C51.2266 14.8993 52.6355 15.4463 52.5294 16.417C53.432 15.7911 53.8269 15.5833 54.3625 15.4261C54.5492 14.296 52.682 13.7265 51.5386 14.2866C50.8955 14.711 50.3564 15.1506 49.9121 15.5974Z" fill="white"/>
<path d="M81.8273 16.3674C85.1193 15.164 85.6277 17.8355 85.8404 23.6009C86.0326 23.962 86.1413 24.0324 86.3359 24.0963C84.8888 25.1909 84.6514 25.3844 84.6514 25.3844C84.6514 25.3844 83.9577 24.9386 83.7596 24.4927C83.5614 24.0467 84.2427 15.7937 80.4973 17.4958C80.8786 17.1481 81.3178 16.7745 81.8273 16.3674Z" fill="white"/>
<path d="M72.3491 16.7307C76.0126 15.8512 77.7491 18.9325 75.8325 22.3128L77.7152 21.3219C78.2395 20.097 78.7863 19.0561 80.4973 17.4958C80.8786 17.1481 81.3178 16.7745 81.8273 16.3674C80.6591 16.8455 79.9936 17.1421 78.5574 18.3492C78.1666 15.8997 76.5876 14.8934 73.8012 15.5252C73.2522 15.9243 72.7744 16.3158 72.3491 16.7307Z" fill="white"/>
<path d="M69.5899 18.4979C69.4303 15.9769 69.1355 14.9391 67.9549 14.2866C66.8694 13.4524 63.2147 15.7716 63.0996 15.9216C62.9845 16.0715 62.7524 16.3348 62.8519 16.8629C63.7381 16.2996 64.2028 16.0171 64.7346 15.8224C64.5667 15.616 64.5923 15.5049 64.8337 15.327C66.8639 14.4306 68.394 18.5427 67.4595 23.0064C68.3442 22.3838 68.784 22.1343 69.4413 21.9164C70.2751 19.4224 71.0774 17.9715 72.3491 16.7307C72.7744 16.3158 73.2522 15.9243 73.8012 15.5252C71.9485 16.4072 71.0194 17.047 69.5899 18.4979Z" fill="white"/>
<path d="M7.80312 14.0414C7.03264 14.4933 6.63443 14.7677 5.98844 15.3004C8.4233 14.2537 11.446 16.895 12.1711 18.6688C12.5559 17.951 12.7759 17.5238 13.2161 16.4797C11.7197 14.5408 9.88213 13.4794 7.80312 14.0414Z" fill="white"/>
<path d="M35.8911 19.5056C36.7096 19.3092 37.4852 18.9977 38.3801 18.6154C42.3827 16.4785 40.0018 12.6231 34.59 15.3484C34.3304 15.6194 34.191 15.771 33.9499 16.0411C38.4105 14.428 40.3249 17.8892 35.8911 19.5056Z" fill="white"/>
<path d="M38.3801 18.6154C37.4852 18.9977 36.7096 19.3092 35.8911 19.5056C34.8465 19.7561 33.7318 19.819 32.2092 19.6019C32.1966 20.2285 32.259 20.5613 32.4823 21.1271C34.899 20.7847 36.8619 19.7273 38.3801 18.6154Z" fill="white"/>
<path d="M16.6162 25.4143L16.1742 25.0086C15.9772 25.2233 15.9629 25.5485 16.1402 25.7796C16.3176 26.0107 16.6354 26.081 16.8937 25.9463L16.6162 25.4143ZM20.3816 14.0687L20.9805 14.0325C20.9696 13.8521 20.878 13.6863 20.7312 13.5811C20.5843 13.4758 20.3979 13.4423 20.2236 13.4899L20.3816 14.0687ZM27.2187 16.3973L26.8549 16.8744C27.042 17.017 27.2951 17.0372 27.5024 16.926L27.2187 16.3973ZM29.25 15.3073L29.5337 15.836C29.7216 15.7352 29.8419 15.5421 29.8496 15.329C29.8573 15.1158 29.7513 14.9146 29.5711 14.8005L29.25 15.3073ZM20.44 17.9332L19.8407 17.9056L19.8407 17.9056L20.44 17.9332ZM81.8273 16.3674L81.6213 15.8039C81.6142 15.8065 81.6071 15.8093 81.6001 15.8121L81.8273 16.3674ZM85.8404 23.6009L85.2408 23.623C85.2442 23.7138 85.2681 23.8026 85.3107 23.8827L85.8404 23.6009ZM86.3359 24.0963L86.6978 24.5748C86.8758 24.4402 86.9644 24.2178 86.9277 23.9977C86.891 23.7775 86.7352 23.5959 86.5232 23.5263L86.3359 24.0963ZM84.6514 25.3844L84.327 25.8892C84.5453 26.0295 84.8292 26.0135 85.0304 25.8495L84.6514 25.3844ZM67.9549 14.2866L67.5893 14.7623C67.6132 14.7807 67.6384 14.7972 67.6647 14.8117L67.9549 14.2866ZM69.5899 18.4979L68.9911 18.5358C69.006 18.7719 69.1584 18.9772 69.38 19.0599C69.6016 19.1427 69.8512 19.0875 70.0173 18.919L69.5899 18.4979ZM73.8012 15.5252L73.6685 14.94C73.6253 14.9498 73.5833 14.9644 73.5433 14.9835L73.8012 15.5252ZM72.2041 16.1485C71.8819 16.2259 71.6835 16.5498 71.7609 16.872C71.8383 17.1942 72.1622 17.3927 72.4844 17.3153L72.2041 16.1485ZM75.8325 22.3128L75.3105 22.0168C75.1792 22.2485 75.2163 22.5391 75.4016 22.7303C75.587 22.9216 75.8762 22.9678 76.1119 22.8437L75.8325 22.3128ZM77.7152 21.3219L77.9946 21.8528C78.1165 21.7887 78.2126 21.6846 78.2668 21.558L77.7152 21.3219ZM78.5574 18.3492L77.9649 18.4437C77.999 18.6572 78.1453 18.8359 78.3478 18.9114C78.5504 18.9869 78.778 18.9476 78.9435 18.8085L78.5574 18.3492ZM64.8337 15.327L64.5599 14.7931C64.5312 14.8078 64.5037 14.8249 64.4777 14.844L64.8337 15.327ZM67.4595 23.0064L66.8722 22.8834C66.8217 23.1246 66.9238 23.3722 67.1297 23.5076C67.3356 23.6431 67.6033 23.6389 67.8048 23.4971L67.4595 23.0064ZM69.4413 21.9164L69.6301 22.4859C69.8095 22.4264 69.9504 22.2859 70.0103 22.1067L69.4413 21.9164ZM62.8519 16.8629L62.2623 16.9739C62.2991 17.1695 62.4306 17.3341 62.6132 17.4133C62.7958 17.4925 63.0058 17.476 63.1737 17.3692L62.8519 16.8629ZM64.7346 15.8224L64.9408 16.3859C65.1229 16.3192 65.2616 16.1687 65.313 15.9817C65.3645 15.7947 65.3224 15.5944 65.2001 15.4439L64.7346 15.8224ZM68.4398 15.4475C68.7279 15.6112 69.0942 15.5103 69.2578 15.2222C69.4215 14.934 69.3206 14.5678 69.0325 14.4041L68.4398 15.4475ZM55.1552 22.9568L55.5073 23.4427C55.5215 23.4324 55.5353 23.4214 55.5486 23.4099L55.1552 22.9568ZM49.9121 15.5974L49.4867 15.1743C49.2774 15.3847 49.2534 15.7165 49.4302 15.9548C49.607 16.1932 49.9314 16.2665 50.1935 16.1273L49.9121 15.5974ZM52.5294 16.417L51.933 16.3518C51.9074 16.5854 52.0206 16.8124 52.2226 16.9326C52.4246 17.0528 52.6781 17.044 52.8713 16.9101L52.5294 16.417ZM54.3625 15.4261L54.5315 16.0018C54.7526 15.9369 54.917 15.7512 54.9545 15.5239L54.3625 15.4261ZM52.6285 23.518L52.5731 24.1154L52.5731 24.1154L52.6285 23.518ZM56.1957 18.7951L56.0032 18.2268C55.7348 18.3177 55.5666 18.5839 55.5998 18.8653L56.1957 18.7951ZM58.3007 17.7547L58.8992 17.7975C58.917 17.5481 58.7783 17.3138 58.5511 17.2094C58.3239 17.1051 58.0558 17.1526 57.8783 17.3286L58.3007 17.7547ZM62.0305 22.1083L62.3695 22.6034C62.5703 22.4659 62.6682 22.2208 62.6173 21.9828C62.5664 21.7449 62.3768 21.5612 62.1373 21.5179L62.0305 22.1083ZM59.6984 23.8982L59.5096 24.4677C59.5893 24.4941 59.6736 24.5035 59.7572 24.4953L59.6984 23.8982ZM34.5841 15.3513L34.3139 14.8156C34.2966 14.8243 34.2797 14.8339 34.2633 14.8443L34.5841 15.3513ZM43.4029 22.1389L43.8069 22.5825C44.0345 22.3752 44.0684 22.0294 43.8852 21.7819C43.7021 21.5345 43.3615 21.4658 43.0967 21.6229L43.4029 22.1389ZM32.3935 20.5337C32.0656 20.5809 31.838 20.8851 31.8852 21.2131C31.9325 21.5411 32.2366 21.7687 32.5646 21.7214L32.3935 20.5337ZM32.2885 19.0071C31.9605 18.9603 31.6565 19.1882 31.6097 19.5162C31.5628 19.8443 31.7907 20.1482 32.1187 20.1951L32.2885 19.0071ZM35.8911 19.5056L36.031 20.089L36.031 20.089L35.8911 19.5056ZM17.9915 1.36289L18.5895 1.41176C18.5962 1.32991 18.5861 1.24755 18.5596 1.16979L17.9915 1.36289ZM17.397 1.01607L17.3054 0.423112C17.2379 0.433541 17.1727 0.455415 17.1126 0.487793L17.397 1.01607ZM15.4648 2.05651L15.1803 1.52822C14.9394 1.65798 14.8167 1.93438 14.8822 2.20012C14.9477 2.46586 15.1848 2.65359 15.4585 2.65647L15.4648 2.05651ZM15.9602 2.40332L16.5594 2.37223C16.557 2.3245 16.5488 2.27724 16.5351 2.23146L15.9602 2.40332ZM5.06909 24.492L4.84788 25.0498C4.85996 25.0545 4.87219 25.0589 4.88455 25.0629L5.06909 24.492ZM7.78545 14.0462L7.62658 13.4676C7.61965 13.4695 7.61275 13.4716 7.60589 13.4737L7.78545 14.0462ZM13.2374 16.5074L13.7889 16.7438L13.7889 16.7438L13.2374 16.5074ZM4.87314 24.4064L5.13234 23.8653L5.13234 23.8653L4.87314 24.4064ZM33.9438 16.0434L33.489 15.652L33.489 15.652L33.9438 16.0434ZM5.71041 14.7671C5.40767 14.9019 5.27148 15.2565 5.40622 15.5593C5.54096 15.862 5.89561 15.9982 6.19835 15.8635L5.71041 14.7671ZM11.6265 18.9226C11.7482 19.2308 12.0967 19.382 12.4049 19.2602C12.7131 19.1385 12.8643 18.79 12.7426 18.4818L11.6265 18.9226ZM7.80312 14.0414L7.64654 13.4622L7.80312 14.0414ZM5.98844 15.3004L6.2254 15.8516L5.98844 15.3004ZM34.59 15.3484L34.3201 14.8125L34.59 15.3484ZM33.9499 16.0411L34.154 16.6054L34.154 16.6054L33.9499 16.0411ZM18.0949 15.6022C18.0103 15.5252 17.9995 15.4583 18.0214 15.5192C18.0348 15.5564 18.0536 15.6234 18.0737 15.727C18.1137 15.9319 18.1487 16.2252 18.1709 16.5922C18.2151 17.3232 18.2053 18.2981 18.1024 19.3485C17.9995 20.3995 17.8048 21.5097 17.4863 22.5169C17.1658 23.5301 16.7321 24.4007 16.1742 25.0086L17.0583 25.82C17.7798 25.0338 18.2819 23.9807 18.6304 22.8788C18.9808 21.7709 19.1881 20.5745 19.2967 19.4656C19.4054 18.356 19.417 17.3176 19.3687 16.5198C19.3447 16.1223 19.3051 15.7724 19.2516 15.4975C19.225 15.3611 19.1923 15.2291 19.1507 15.1133C19.1176 15.0212 19.0484 14.8476 18.903 14.7151L18.0949 15.6022ZM18.903 14.7151C18.93 14.7397 18.9809 14.796 19.011 14.8894C19.0428 14.9883 19.0369 15.0842 19.0143 15.1587C18.9786 15.2766 18.9127 15.3099 18.9627 15.2699C19.0439 15.205 19.2245 15.1092 19.4847 15.0029C19.7291 14.9031 19.9928 14.814 20.1993 14.749C20.3016 14.7167 20.3879 14.691 20.4482 14.6735C20.4783 14.6648 20.5018 14.6581 20.5175 14.6537C20.5253 14.6515 20.5312 14.6498 20.535 14.6488C20.5368 14.6483 20.5382 14.6479 20.5389 14.6477C20.5393 14.6476 20.5396 14.6475 20.5397 14.6475C20.5398 14.6475 20.5398 14.6475 20.5398 14.6475C20.5398 14.6475 20.5397 14.6475 20.5397 14.6475C20.5397 14.6475 20.5396 14.6475 20.3816 14.0687C20.2236 13.4899 20.2235 13.4899 20.2234 13.4899C20.2234 13.4899 20.2233 13.49 20.2232 13.49C20.2231 13.49 20.2229 13.4901 20.2226 13.4901C20.2222 13.4903 20.2216 13.4904 20.2208 13.4906C20.2193 13.491 20.2173 13.4916 20.2147 13.4923C20.2095 13.4938 20.2021 13.4958 20.1927 13.4985C20.1739 13.5038 20.147 13.5114 20.1133 13.5212C20.0459 13.5408 19.951 13.5691 19.8388 13.6044C19.6162 13.6745 19.318 13.7748 19.0309 13.892C18.7597 14.0028 18.4392 14.1519 18.213 14.3329C18.1093 14.4158 17.9381 14.5724 17.866 14.8105C17.8251 14.9451 17.8182 15.1003 17.8688 15.2574C17.9176 15.409 18.0071 15.5222 18.0949 15.6022L18.903 14.7151ZM19.6631 19.7738C19.4544 21.1251 19.0849 22.1533 18.5492 22.961C18.0167 23.7638 17.2981 24.382 16.3388 24.8823L16.8937 25.9463C18.0046 25.367 18.8882 24.6209 19.5492 23.6242C20.207 22.6325 20.6222 21.426 20.8491 19.957L19.6631 19.7738ZM20.7457 20.2122C21.7642 18.7742 22.9022 17.5719 24.0044 16.927C24.5509 16.6072 25.0606 16.441 25.5241 16.4268C25.9755 16.413 26.4183 16.5416 26.8549 16.8744L27.5824 15.9201C26.9318 15.4241 26.2205 15.2049 25.4873 15.2274C24.7663 15.2495 24.0609 15.5037 23.3984 15.8913C22.0826 16.6612 20.8266 18.0218 19.7665 19.5186L20.7457 20.2122ZM27.5024 16.926L29.5337 15.836L28.9663 14.7786L26.935 15.8686L27.5024 16.926ZM19.7827 14.1049C19.8697 15.5439 19.8914 16.8019 19.8407 17.9056L21.0394 17.9607C21.0926 16.8019 21.0692 15.4992 20.9805 14.0325L19.7827 14.1049ZM19.8407 17.9056C19.8094 18.5874 19.7505 19.2079 19.6631 19.7738L20.8491 19.957C20.9442 19.3412 21.0065 18.6772 21.0394 17.9607L19.8407 17.9056ZM29.5711 14.8005C29.0322 14.459 28.4754 14.2081 27.8507 14.104C27.2243 13.9995 26.568 14.0491 25.8374 14.2546C24.4054 14.6576 22.6223 15.6816 20.0971 17.4408L20.783 18.4255C23.3089 16.6658 24.9451 15.7523 26.1624 15.4098C26.7565 15.2426 27.2324 15.2175 27.6534 15.2876C28.0762 15.3581 28.4821 15.5311 28.9289 15.8141L29.5711 14.8005ZM82.0333 16.931C82.7989 16.6511 83.2947 16.6388 83.6235 16.7484C83.9294 16.8503 84.2038 17.0965 84.4428 17.62C84.6871 18.1553 84.8645 18.92 84.9911 19.9428C85.1168 20.9584 85.1878 22.1851 85.2408 23.623L86.44 23.5788C86.3867 22.134 86.3144 20.8647 86.182 19.7954C86.0506 18.7335 85.8552 17.8245 85.5344 17.1217C85.2082 16.4071 84.725 15.8506 84.003 15.61C83.304 15.377 82.5018 15.482 81.6213 15.8039L82.0333 16.931ZM85.3107 23.8827C85.4159 24.0805 85.5284 24.2587 85.6772 24.398C85.8443 24.5545 86.0144 24.6222 86.1486 24.6663L86.5232 23.5263C86.4879 23.5147 86.48 23.5102 86.4816 23.5111C86.4872 23.514 86.494 23.519 86.4973 23.5221C86.4983 23.523 86.4879 23.5135 86.4655 23.4811C86.4426 23.4478 86.4116 23.3971 86.3701 23.3191L85.3107 23.8827ZM85.9739 23.6178C85.2496 24.1657 84.8269 24.4889 84.5846 24.6756C84.4635 24.769 84.3871 24.8286 84.3404 24.8652C84.3171 24.8836 84.301 24.8963 84.2903 24.9048C84.285 24.9091 84.281 24.9123 84.2781 24.9146C84.2766 24.9158 84.2754 24.9168 84.2745 24.9176C84.274 24.9179 84.2736 24.9183 84.2732 24.9186C84.273 24.9187 84.2729 24.9189 84.2727 24.919C84.2726 24.9191 84.2726 24.9191 84.2725 24.9192C84.2724 24.9192 84.2724 24.9192 84.2724 24.9193C84.2723 24.9193 84.2723 24.9193 84.6514 25.3844C85.0304 25.8495 85.0304 25.8495 85.0304 25.8496C85.0303 25.8496 85.0303 25.8496 85.0303 25.8496C85.0302 25.8497 85.0302 25.8497 85.0301 25.8498C85.03 25.8498 85.0299 25.8499 85.0299 25.85C85.0297 25.8501 85.0297 25.8501 85.0297 25.8501C85.0297 25.8501 85.03 25.8498 85.0307 25.8493C85.0319 25.8483 85.0345 25.8463 85.0384 25.8431C85.0464 25.8367 85.0602 25.8258 85.0817 25.8089C85.1248 25.7751 85.1982 25.7178 85.3173 25.626C85.5556 25.4423 85.9751 25.1215 86.6978 24.5748L85.9739 23.6178ZM84.6514 25.3844C84.9758 24.8797 84.9758 24.8797 84.9759 24.8798C84.9759 24.8798 84.976 24.8798 84.9761 24.8799C84.9761 24.8799 84.9762 24.88 84.9763 24.88C84.9764 24.8801 84.9765 24.8802 84.9766 24.8802C84.9767 24.8803 84.9766 24.8802 84.9764 24.8801C84.976 24.8798 84.9749 24.8791 84.9733 24.8781C84.97 24.8759 84.9644 24.8722 84.9568 24.8671C84.9415 24.8567 84.9182 24.8407 84.8891 24.8199C84.8304 24.7779 84.7507 24.7181 84.6667 24.6472C84.4768 24.487 84.3475 24.3383 84.3079 24.249L83.2113 24.7363C83.3698 25.093 83.6864 25.3901 83.8929 25.5644C84.007 25.6607 84.1131 25.7402 84.1907 25.7957C84.2297 25.8236 84.2621 25.8459 84.2855 25.8617C84.2973 25.8696 84.3068 25.8759 84.3138 25.8806C84.3173 25.8829 84.3201 25.8847 84.3223 25.8862C84.3234 25.8869 84.3244 25.8875 84.3252 25.888C84.3255 25.8882 84.3259 25.8885 84.3262 25.8887C84.3263 25.8888 84.3265 25.8888 84.3266 25.8889C84.3267 25.889 84.3268 25.889 84.3268 25.889C84.3269 25.8891 84.327 25.8892 84.6514 25.3844ZM84.3079 24.249C84.3345 24.3089 84.3386 24.3508 84.3357 24.3326C84.3346 24.3262 84.3322 24.308 84.3295 24.2737C84.324 24.2054 84.3196 24.1076 84.3159 23.9768C84.3121 23.8477 84.3092 23.6966 84.3058 23.5235C84.3023 23.3516 84.2984 23.1602 84.2927 22.9552C84.27 22.1389 84.2188 21.0845 84.0502 20.0886C83.886 19.1184 83.5937 18.0904 83.014 17.4168C82.7105 17.0642 82.3145 16.7931 81.815 16.6997C81.3215 16.6074 80.7954 16.7013 80.2491 16.9496L80.7455 18.042C81.1355 17.8648 81.4075 17.8443 81.5944 17.8792C81.7752 17.9131 81.9421 18.0109 82.1045 18.1997C82.4566 18.6087 82.7086 19.3527 82.867 20.2888C83.0211 21.1991 83.0708 22.1852 83.0932 22.9886C83.0987 23.1885 83.1026 23.3757 83.106 23.5475C83.1094 23.7181 83.1124 23.8756 83.1164 24.0115C83.1202 24.1457 83.1252 24.2693 83.1334 24.3701C83.1374 24.4203 83.1429 24.4736 83.1511 24.5244C83.1574 24.5635 83.1723 24.6485 83.2113 24.7363L84.3079 24.249ZM67.6647 14.8117C68.129 15.0683 68.4008 15.3782 68.5921 15.8986C68.8 16.464 68.9112 17.2742 68.9911 18.5358L70.1887 18.4599C70.109 17.2006 69.993 16.2314 69.7184 15.4845C69.4273 14.6927 68.9614 14.1573 68.2452 13.7615L67.6647 14.8117ZM70.0173 18.919C71.3944 17.5213 72.265 16.921 74.0591 16.0669L73.5433 14.9835C71.632 15.8934 70.6444 16.5727 69.1625 18.0767L70.0173 18.919ZM76.1119 22.8437L77.9946 21.8528L77.4357 20.7909L75.553 21.7818L76.1119 22.8437ZM78.2668 21.558C78.5783 20.8301 78.8838 20.2026 79.4374 19.4882C79.9964 18.7668 80.825 17.9361 82.2018 16.8362L81.4528 15.8987C80.0335 17.0326 79.1266 17.9302 78.4888 18.7531C77.8457 19.583 77.4932 20.3158 77.1636 21.0858L78.2668 21.558ZM81.6001 15.8121C80.3892 16.3076 79.6662 16.6335 78.1714 17.8899L78.9435 18.8085C80.321 17.6507 80.9289 17.3834 82.0546 16.9227L81.6001 15.8121ZM79.1499 18.2547C78.9373 16.922 78.3805 15.8682 77.3881 15.2682C76.4099 14.6768 75.1388 14.6067 73.6685 14.94L73.9339 16.1103C75.25 15.8119 76.1616 15.929 76.7672 16.2951C77.3586 16.6527 77.7867 17.3268 77.9649 18.4437L79.1499 18.2547ZM65.076 15.8759C65.3611 15.75 65.6024 15.7873 65.8586 15.9908C66.1494 16.2219 66.4518 16.6733 66.6925 17.3561C67.1695 18.7097 67.321 20.74 66.8722 22.8834L68.0468 23.1293C68.5325 20.8091 68.3861 18.5515 67.8242 16.9572C67.5454 16.1661 67.143 15.4786 66.6051 15.0512C66.0326 14.5964 65.3213 14.4558 64.5913 14.7781L65.076 15.8759ZM67.8048 23.4971C68.6703 22.888 69.0543 22.6768 69.6301 22.4859L69.2525 21.3469C68.5137 21.5918 68.0181 21.8796 67.1142 22.5157L67.8048 23.4971ZM68.3206 13.8108C67.8251 13.4301 67.1546 13.4739 66.6334 13.5814C66.0706 13.6974 65.4603 13.9354 64.9105 14.1909C64.3554 14.4488 63.8349 14.7373 63.4454 14.971C63.2505 15.088 63.085 15.1932 62.9616 15.2764C62.9004 15.3176 62.8456 15.356 62.8011 15.3894C62.7792 15.4058 62.7552 15.4244 62.7323 15.4439C62.7205 15.4539 62.6696 15.4963 62.6236 15.5563L63.5756 16.2868C63.5515 16.3183 63.5302 16.3389 63.5243 16.3446C63.5158 16.3528 63.51 16.3578 63.5088 16.3588C63.5066 16.3607 63.5098 16.3579 63.5212 16.3493C63.5434 16.3326 63.58 16.3067 63.6319 16.2717C63.7346 16.2025 63.882 16.1085 64.0628 16C64.4249 15.7827 64.9076 15.5155 65.4162 15.2791C65.9301 15.0403 66.4442 14.8456 66.8757 14.7567C67.3486 14.6592 67.542 14.726 67.5893 14.7623L68.3206 13.8108ZM62.6236 15.5563C62.58 15.6131 62.4347 15.7852 62.3379 16.0284C62.2351 16.2864 62.1918 16.5999 62.2623 16.9739L63.4415 16.7518C63.4125 16.5978 63.4355 16.5156 63.4527 16.4725C63.4758 16.4145 63.5041 16.38 63.5756 16.2868L62.6236 15.5563ZM63.1737 17.3692C64.07 16.7995 64.4804 16.5544 64.9408 16.3859L64.5283 15.259C63.9253 15.4798 63.4061 15.7996 62.53 16.3565L63.1737 17.3692ZM65.2001 15.4439C65.1751 15.4132 65.1856 15.4194 65.1999 15.454C65.2183 15.4986 65.2394 15.5825 65.2184 15.6848C65.1989 15.7796 65.1545 15.8338 65.1449 15.8448C65.1373 15.8536 65.1447 15.8432 65.1896 15.81L64.4777 14.844C64.3591 14.9314 64.1089 15.1223 64.0429 15.4432C63.9685 15.8054 64.1694 16.0785 64.269 16.201L65.2001 15.4439ZM65.1074 15.8609C66.0786 15.3629 66.6876 15.1496 67.1562 15.1067C67.5857 15.0674 67.9463 15.1672 68.4398 15.4475L69.0325 14.4041C68.4037 14.047 67.7964 13.8431 67.0469 13.9117C66.3364 13.9767 65.5552 14.2827 64.5599 14.7931L65.1074 15.8609ZM51.2784 13.7459C48.4866 15.0893 46.798 16.6744 46.0148 18.2822C45.2212 19.9111 45.3825 21.5208 46.2101 22.7689C47.8516 25.2445 51.8864 26.0662 55.5073 23.4427L54.8032 22.471C51.6086 24.7856 48.3937 23.8906 47.2102 22.1057C46.6252 21.2235 46.4801 20.0671 47.0936 18.8078C47.7173 17.5274 49.1492 16.1022 51.7987 14.8272L51.2784 13.7459ZM50.1935 16.1273C50.7203 15.8475 51.2299 15.8373 51.5606 15.9495C51.8942 16.0628 51.9456 16.2363 51.933 16.3518L53.1258 16.4822C53.2194 15.627 52.6193 15.0416 51.9463 14.8132C51.2705 14.5838 50.4184 14.6491 49.6306 15.0675L50.1935 16.1273ZM52.8713 16.9101C53.7575 16.2956 54.0892 16.1317 54.5315 16.0018L54.1935 14.8504C53.5646 15.035 53.1065 15.2867 52.1875 15.9239L52.8713 16.9101ZM54.9545 15.5239C55.1189 14.5287 54.3449 13.9102 53.6547 13.6588C52.9402 13.3985 52.0154 13.3849 51.2746 13.7478L51.8025 14.8254C52.2051 14.6282 52.7856 14.6193 53.2439 14.7863C53.7265 14.9621 53.7928 15.1934 53.7705 15.3283L54.9545 15.5239ZM51.2081 13.7858C48.1913 15.7767 47.1969 18.2186 47.743 20.3314C48.2773 22.3986 50.2343 23.8987 52.5731 24.1154L52.6838 22.9205C50.7631 22.7426 49.2921 21.5297 48.9048 20.0311C48.5293 18.5782 49.1198 16.6017 51.869 14.7874L51.2081 13.7858ZM52.5731 24.1154C52.9577 24.1511 53.5121 24.082 54.0141 23.9745C54.5174 23.8667 55.0772 23.697 55.4576 23.4751L54.8529 22.4386C54.6388 22.5635 54.2279 22.7015 53.7628 22.8011C53.2964 22.901 52.8847 22.9392 52.6838 22.9205L52.5731 24.1154ZM55.5998 18.8653C55.6103 18.9547 55.5726 19.2413 55.4015 19.7033C55.242 20.1341 54.997 20.6367 54.6897 21.1189C54.3813 21.6028 54.0225 22.0466 53.6429 22.3749C53.2593 22.7066 52.8938 22.887 52.566 22.9212L52.6909 24.1147C53.351 24.0457 53.9395 23.7048 54.4278 23.2826C54.92 22.857 55.3509 22.3141 55.7016 21.7639C56.0533 21.2121 56.3368 20.6331 56.5268 20.12C56.7052 19.6382 56.838 19.1187 56.7915 18.7249L55.5998 18.8653ZM57.8783 17.3286C57.8458 17.3608 57.7568 17.428 57.5934 17.5225C57.4401 17.6111 57.2535 17.7055 57.0545 17.7981C56.6552 17.9838 56.2384 18.1472 56.0032 18.2268L56.3881 19.3634C56.6681 19.2686 57.1254 19.0886 57.5606 18.8861C57.7789 18.7846 57.9997 18.6737 58.194 18.5614C58.3783 18.4548 58.5773 18.3254 58.7231 18.1808L57.8783 17.3286ZM61.6916 21.6133C61.1194 22.0051 60.6244 22.4753 60.2517 22.8119C60.0569 22.9879 59.9037 23.1203 59.7762 23.2112C59.6344 23.3122 59.6004 23.3049 59.6396 23.3011L59.7572 24.4953C60.0459 24.4669 60.2957 24.3144 60.4723 24.1886C60.6631 24.0527 60.8629 23.8769 61.0561 23.7024C61.4596 23.3379 61.8811 22.9378 62.3695 22.6034L61.6916 21.6133ZM55.5486 23.4099C56.1301 22.905 56.9416 21.959 57.3713 21.4228L56.4348 20.6724C56.0098 21.2029 55.2554 22.0752 54.7619 22.5038L55.5486 23.4099ZM59.8872 23.3287C58.9403 23.0147 58.4131 22.7399 58.088 22.4136C57.785 22.1096 57.6001 21.701 57.4973 20.9647L56.3088 21.1305C56.4307 22.0038 56.6807 22.7014 57.2379 23.2606C57.773 23.7976 58.5312 24.1433 59.5096 24.4677L59.8872 23.3287ZM57.3713 21.4228C57.8588 20.8143 58.1702 20.3546 58.3817 19.9302C58.5976 19.4969 58.6969 19.1248 58.7867 18.7201L57.6151 18.4603C57.534 18.8261 57.4601 19.0891 57.3076 19.395C57.1508 19.7098 56.8987 20.0935 56.4348 20.6724L57.3713 21.4228ZM58.7975 18.6537C58.8131 18.507 58.8871 17.9661 58.8992 17.7975L57.7022 17.7119C57.6907 17.8731 57.632 18.2656 57.6042 18.5267L58.7975 18.6537ZM62.1373 21.5179C61.511 21.4047 60.9842 21.3153 60.5254 21.198C60.0686 21.0813 59.7318 20.9489 59.4823 20.7767C59.0542 20.4813 58.7332 19.9642 58.8001 18.6201L57.6016 18.5604C57.5241 20.1165 57.8912 21.1367 58.8007 21.7643C59.22 22.0537 59.7144 22.2293 60.2283 22.3606C60.7401 22.4914 61.3234 22.5902 61.9238 22.6988L62.1373 21.5179ZM42.999 21.6952C39.5321 24.8522 34.7488 24.9206 32.2643 23.4422C31.0493 22.7192 30.4684 21.6948 30.6895 20.5171C30.924 19.2685 32.0873 17.6411 34.9049 15.8584L34.2633 14.8443C31.3499 16.6876 29.8375 18.5528 29.5102 20.2956C29.1696 22.1092 30.1408 23.575 31.6506 24.4734C34.6157 26.2378 39.9728 26.0738 43.8069 22.5825L42.999 21.6952ZM17.3935 1.31401C16.5508 11.625 15.1685 18.7825 8.18499 23.6614L8.87224 24.6451C16.3556 19.417 17.7478 11.7112 18.5895 1.41176L17.3935 1.31401ZM18.5596 1.16979C18.4959 0.982279 18.3785 0.700706 18.0928 0.531731C17.8123 0.365792 17.5089 0.391671 17.3054 0.423112L17.4886 1.60904C17.5203 1.60414 17.5433 1.60172 17.5596 1.60066C17.5759 1.59961 17.582 1.60016 17.5805 1.60005C17.5787 1.59991 17.567 1.5989 17.5487 1.59367C17.5297 1.58823 17.5064 1.57907 17.4819 1.56455C17.4573 1.55 17.4371 1.53343 17.4216 1.51772C17.4067 1.50255 17.3987 1.4907 17.3962 1.48665C17.3938 1.48294 17.3958 1.48545 17.4012 1.49764C17.4067 1.50982 17.4141 1.52848 17.4235 1.55599L18.5596 1.16979ZM17.1126 0.487793L15.1803 1.52822L15.7493 2.58479L17.6815 1.54436L17.1126 0.487793ZM15.4585 2.65647C15.5172 2.65709 15.5371 2.66182 15.5345 2.66122C15.5275 2.65957 15.4909 2.6494 15.4473 2.61632C15.4028 2.58258 15.3795 2.54658 15.3714 2.53168C15.3681 2.52572 15.3684 2.52511 15.3714 2.53296C15.3745 2.54088 15.3791 2.55411 15.3854 2.57518L16.5351 2.23146C16.4919 2.087 16.4072 1.83829 16.1725 1.66026C15.9413 1.48489 15.6726 1.45866 15.4711 1.45654L15.4585 2.65647ZM8.16481 23.6761C6.2722 25.1192 4.75334 25.3512 3.71164 25.0312C2.6755 24.7129 1.93195 23.794 1.68583 22.5334C1.19781 20.0336 2.74965 16.2544 7.96501 14.6187L7.60589 13.4737C1.92148 15.2565 -0.118659 19.5531 0.508063 22.7633C0.819315 24.3576 1.80982 25.7023 3.35927 26.1783C4.90318 26.6525 6.82147 26.2094 8.89242 24.6304L8.16481 23.6761ZM4.88455 25.0629C6.57952 25.6108 8.29348 24.7051 9.76237 23.2042C11.2552 21.6788 12.6539 19.3909 13.7889 16.7438L12.686 16.2709C11.5851 18.8386 10.258 20.9821 8.90474 22.3649C7.52757 23.7721 6.27527 24.2513 5.25363 23.9211L4.88455 25.0629ZM7.48636 13.5261C4.38986 15.3066 2.81074 17.6909 2.43045 19.8896C2.05385 22.0669 2.86973 24.112 4.61394 24.9475L5.13234 23.8653C4.00149 23.3236 3.3009 21.8979 3.6129 20.0941C3.92122 18.3115 5.23578 16.2044 8.08453 14.5663L7.48636 13.5261ZM4.61394 24.9475C4.69046 24.9842 4.76846 25.0183 4.84788 25.0498L5.2903 23.9343C5.23644 23.9129 5.18379 23.8899 5.13235 23.8653L4.61394 24.9475ZM4.61394 24.9475C5.77444 25.5034 7.23141 25.4592 8.79323 24.6917L8.26401 23.6147C6.9523 24.2593 5.88855 24.2275 5.13234 23.8653L4.61394 24.9475ZM13.7889 16.7438C15.6186 12.4762 16.8082 7.16704 16.5594 2.37223L15.361 2.43441C15.5985 7.0116 14.4583 12.1373 12.686 16.2709L13.7889 16.7438ZM34.1556 14.9313C33.9358 15.1556 33.6815 15.4283 33.489 15.652L34.3985 16.4348C34.5697 16.2358 34.8055 15.9826 35.0125 15.7713L34.1556 14.9313ZM33.489 15.652C32.0513 17.3226 31.4539 18.899 31.6244 20.2918C31.797 21.7014 32.7344 22.7559 33.9945 23.4117C36.4829 24.7065 40.448 24.5903 43.7092 22.6548L43.0967 21.6229C40.1347 23.3808 36.6126 23.4212 34.5485 22.3471C33.5323 21.8184 32.9271 21.0571 32.8155 20.1459C32.7019 19.218 33.0787 17.9685 34.3985 16.4348L33.489 15.652ZM51.2081 13.7858C50.5349 14.2301 49.9632 14.6952 49.4867 15.1743L50.3375 16.0205C50.7497 15.6061 51.2561 15.1919 51.869 14.7874L51.2081 13.7858ZM80.9016 17.9391C81.2716 17.6017 81.7006 17.2367 82.2018 16.8362L81.4528 15.8987C80.9349 16.3124 80.4856 16.6945 80.093 17.0525L80.9016 17.9391ZM72.4891 17.3142C74.1392 16.918 75.1869 17.4332 75.6694 18.234C76.1749 19.0728 76.2005 20.4472 75.3105 22.0168L76.3544 22.6087C77.3811 20.798 77.4968 18.9416 76.6973 17.6146C75.8748 16.2496 74.2224 15.6639 72.209 16.1473L72.4891 17.3142ZM78.2668 21.558C78.7634 20.3978 79.2644 19.4321 80.9016 17.9391L80.093 17.0525C78.3082 18.6801 77.7155 19.7962 77.1636 21.0858L78.2668 21.558ZM73.4484 15.0399C72.8826 15.4512 72.3812 15.8611 71.93 16.3013L72.7681 17.1602C73.1676 16.7704 73.6217 16.3974 74.154 16.0105L73.4484 15.0399ZM70.0103 22.1067C70.8284 19.6598 71.5913 18.3084 72.7681 17.1602L71.93 16.3013C70.5634 17.6347 69.7218 19.1851 68.8722 21.7262L70.0103 22.1067ZM72.4844 17.3153L72.4892 17.3142L72.2089 16.1473L72.2041 16.1485L72.4844 17.3153ZM7.64654 13.4622C7.63962 13.464 7.63291 13.4659 7.62658 13.4676L7.94431 14.6248C7.94977 14.6233 7.95484 14.6219 7.9597 14.6206L7.64654 13.4622ZM6.19835 15.8635C6.20737 15.8594 6.21638 15.8555 6.2254 15.8516L5.75149 14.7492C5.73777 14.7551 5.72407 14.761 5.71041 14.7671L6.19835 15.8635ZM7.49954 13.5239C6.7045 13.9902 6.27972 14.2825 5.60672 14.8375L6.37016 15.7633C6.98914 15.2529 7.36079 14.9965 8.1067 14.5589L7.49954 13.5239ZM13.7135 16.1422C13.7062 16.1326 13.6984 16.1225 13.6911 16.1131L12.7411 16.8462C12.7478 16.8549 12.7548 16.864 12.7613 16.8725L13.7135 16.1422ZM13.6911 16.1131C12.1267 14.086 10.0646 12.8085 7.64654 13.4622L7.9597 14.6206C9.69967 14.1502 11.3128 14.9956 12.7411 16.8462L13.6911 16.1131ZM6.2254 15.8516C7.17456 15.4436 8.31642 15.7265 9.39294 16.4293C10.4651 17.1293 11.3088 18.1451 11.6157 18.8959L12.7265 18.4418C12.3083 17.4187 11.2781 16.227 10.0489 15.4245C8.82411 14.6249 7.23719 14.1105 5.75149 14.7492L6.2254 15.8516ZM11.6157 18.8959C11.6194 18.9049 11.623 18.9138 11.6265 18.9226L12.7426 18.4818C12.7373 18.4684 12.7319 18.4551 12.7265 18.4418L11.6157 18.8959ZM12.6632 16.2466C12.2317 17.2702 12.0202 17.6804 11.6423 18.3854L12.6999 18.9523C13.0916 18.2216 13.3201 17.7775 13.769 16.7128L12.6632 16.2466ZM34.8542 15.8871C34.8561 15.8861 34.858 15.8852 34.8598 15.8842L34.3201 14.8125C34.318 14.8135 34.3159 14.8146 34.3139 14.8156L34.8542 15.8871ZM34.8598 15.8842C36.1503 15.2344 37.2184 14.9985 38.0206 15.0085C38.8289 15.0187 39.3216 15.274 39.562 15.5514C39.7849 15.8087 39.8602 16.161 39.6828 16.5917C39.497 17.0427 39.0191 17.5941 38.0976 18.0861L38.6627 19.1447C39.7424 18.5683 40.4679 17.8364 40.7923 17.0487C41.1251 16.2406 41.0174 15.3986 40.4689 14.7656C39.9379 14.1528 39.0708 13.8217 38.0357 13.8086C36.9945 13.7955 35.7355 14.0997 34.3201 14.8125L34.8598 15.8842ZM34.1482 16.6075C34.1502 16.6068 34.1521 16.6061 34.154 16.6054L33.7459 15.4769C33.7437 15.4777 33.7415 15.4785 33.7393 15.4793L34.1482 16.6075ZM34.154 16.6054C35.1958 16.2286 36.0462 16.1642 36.6599 16.2665C37.2829 16.3703 37.6075 16.6312 37.7316 16.8542C37.8393 17.0476 37.8635 17.3323 37.5965 17.7079C37.3172 18.1008 36.7275 18.562 35.6856 18.9418L36.0966 20.0693C37.2716 19.6409 38.1052 19.0634 38.5746 18.4031C39.0563 17.7255 39.1544 16.9428 38.7801 16.2705C38.4223 15.6278 37.7091 15.2248 36.8572 15.0828C35.996 14.9393 34.9343 15.0471 33.7459 15.4769L34.154 16.6054ZM34.1566 14.9334C33.8917 15.21 33.7476 15.3668 33.5023 15.6416L34.3976 16.4407C34.6344 16.1753 34.769 16.0289 35.0233 15.7633L34.1566 14.9334ZM36.031 20.089C36.9031 19.8799 37.7192 19.5502 38.6158 19.1672L38.1445 18.0637C37.2511 18.4452 36.5162 18.7386 35.7511 18.9221L36.031 20.089ZM38.1445 18.0637C37.1278 18.4979 36.3148 18.8184 35.4337 18.9914C34.5621 19.1625 33.5974 19.1937 32.2938 19.0079L32.1245 20.1959C33.5369 20.3973 34.6392 20.3703 35.6649 20.1689C36.681 19.9694 37.5954 19.603 38.6158 19.1672L38.1445 18.0637ZM32.2938 19.0079C32.2939 19.0079 32.2938 19.0079 32.2936 19.0079C32.2933 19.0078 32.293 19.0078 32.2926 19.0077C32.2918 19.0076 32.2902 19.0074 32.2885 19.0071L32.1187 20.1951C32.1189 20.1951 32.1191 20.1951 32.1202 20.1953C32.1211 20.1954 32.1227 20.1957 32.1245 20.1959L32.2938 19.0079ZM32.5646 21.7214L32.5679 21.721L32.3968 20.5332L32.3935 20.5337L32.5646 21.7214ZM32.5665 21.7211C35.1108 21.3607 37.1653 20.2488 38.7347 19.0995L38.0256 18.1314C36.5585 19.2058 34.6871 20.2087 32.3982 20.533L32.5665 21.7211ZM31.6093 19.5899C31.5951 20.2965 31.6719 20.7082 31.9242 21.3474L33.0404 20.9067C32.846 20.4144 32.7981 20.1605 32.8091 19.6139L31.6093 19.5899ZM35.7511 18.9221C34.7906 19.1525 33.7531 19.2159 32.2938 19.0079L32.1245 20.1959C33.7106 20.422 34.9025 20.3597 36.031 20.089L35.7511 18.9221Z" fill="white"/>
<path d="M96.9592 5.375L94.6306 6.46498C94.3554 8.17148 93.9235 10.3178 93.5389 12.559C92.4682 18.7968 91.7634 25.7689 95.8197 26.035C97.851 26.1682 102.199 23.7556 103.499 22.3687C100.684 24.3641 97.8512 25.2291 95.8197 23.7559C94.472 22.2454 94.6337 17.214 95.4233 12.2617C95.8159 9.79904 96.3932 7.35131 96.9592 5.375Z" fill="white"/>
<path d="M95.2816 13.199C97.8641 12.2025 99.6526 11.3802 100.873 10.2799C99.1742 11.1197 97.0049 12.0057 95.4233 12.2617C95.3735 12.5741 95.3262 12.8868 95.2816 13.199Z" fill="white"/>
<path d="M91.4598 12.113C89.8327 13.3261 89.5238 13.4802 89.3789 13.4012C89.8367 14.1093 90.7346 14.2005 93.3271 13.8383C93.3951 13.41 93.4661 12.9828 93.5389 12.559C92.2461 12.6162 91.4238 12.6949 91.4598 12.113Z" fill="white"/>
<path d="M106.373 14.8875C106.859 15.3307 107.049 22.3548 104.49 25.1432C106.56 24.0635 108.13 19.5942 108.13 19.5942C108.221 19.0034 108.282 18.3612 108.314 17.662C108.366 16.5307 108.343 15.2504 108.255 13.7975C108.255 13.7975 105.886 14.4443 106.373 14.8875Z" fill="white"/>
<path d="M108.13 19.5942C110.208 16.6594 112.918 14.4684 115.092 16.1261L117.124 15.0361C115.152 13.7871 113.365 14.143 108.314 17.662C108.282 18.3612 108.221 19.0034 108.13 19.5942Z" fill="white"/>
<path d="M120.225 16.1261L118.342 17.0179C117.7 21.7336 118.562 24.6706 119.135 24.8954C119.709 25.1203 121.341 24.8983 122.405 24.2514C119.733 25.8635 119.384 19.8981 120.225 16.1261Z" fill="white"/>
<path d="M120.621 10.7258C119.073 11.5723 118.832 11.7072 118.739 11.7662C118.82 12.8442 119.015 13.1504 119.928 13.3021C120.621 13.0077 121.149 12.5859 122.207 11.9148C121.038 12.1159 120.757 11.9709 120.621 10.7258Z" fill="white"/>
<path d="M129.292 20.962L127.558 22.1015C130.503 23.6545 132.168 23.071 134.985 21.1361C134.414 21.4639 133.688 21.4918 133.156 21.6104C131.225 22.0409 130.047 21.7202 129.292 20.962Z" fill="white"/>
<path d="M124.981 36.4693C126.167 35.9837 126.753 35.6452 127.31 34.8343C126.959 34.9795 126.81 34.9993 126.814 34.6857C127.362 27.3795 128.075 18.7152 126.907 14.6979C126.807 14.3565 126.694 14.0486 126.567 13.778C125.685 14.1117 125.295 14.3562 124.783 14.9175C127.161 19.3765 124.189 35.5775 124.981 36.4693Z" fill="white"/>
<path d="M126.914 14.7194C134.89 11.5981 137.219 18.9802 133.156 21.6104L133.944 21.4727L134.197 21.4223L134.445 21.3591L134.674 21.2825L134.826 21.2183L134.985 21.1361C140.112 17.4638 134.757 10.0442 126.753 14.2267C126.807 14.3757 126.859 14.5328 126.907 14.6979L126.914 14.7194Z" fill="white"/>
<path d="M127.558 22.1015L127.228 21.6001C127.051 21.7167 126.948 21.9183 126.958 22.1304C126.969 22.3424 127.09 22.5333 127.278 22.6323L127.558 22.1015ZM129.292 20.962L129.717 20.5385C129.516 20.3367 129.2 20.3041 128.962 20.4606L129.292 20.962ZM134.985 21.1361L135.325 21.6308L135.335 21.6239L134.985 21.1361ZM126.914 14.7194L126.343 14.9053C126.394 15.0623 126.508 15.1913 126.657 15.2619C126.807 15.3325 126.978 15.3384 127.132 15.2782L126.914 14.7194ZM126.753 14.2267L126.475 13.695C126.215 13.8307 126.092 14.1341 126.182 14.4127L126.753 14.2267ZM124.981 36.4693L124.533 36.8679C124.702 37.0583 124.973 37.1211 125.209 37.0245L124.981 36.4693ZM127.31 34.8343L127.805 35.174C127.955 34.955 127.943 34.6633 127.776 34.4568C127.609 34.2504 127.326 34.1784 127.081 34.2799L127.31 34.8343ZM126.814 34.6857L126.216 34.6408C126.215 34.6527 126.215 34.6646 126.215 34.6766L126.814 34.6857ZM124.783 14.9175L124.34 14.5134C124.169 14.701 124.134 14.9759 124.254 15.1999L124.783 14.9175ZM126.567 13.778L127.109 13.522C126.976 13.2389 126.647 13.1061 126.354 13.2169L126.567 13.778ZM120.621 10.7258L121.218 10.6608C121.196 10.4617 121.077 10.2865 120.899 10.1939C120.721 10.1012 120.509 10.1032 120.334 10.1993L120.621 10.7258ZM118.739 11.7662L118.418 11.2591C118.231 11.3776 118.124 11.5899 118.14 11.8112L118.739 11.7662ZM119.928 13.3021L119.829 13.894C119.942 13.9127 120.057 13.8989 120.162 13.8544L119.928 13.3021ZM122.207 11.9148L122.528 12.4215C122.77 12.2682 122.87 11.9659 122.767 11.6991C122.664 11.4322 122.387 11.2751 122.105 11.3235L122.207 11.9148ZM123.792 23.1614L124.253 23.5455C124.437 23.3252 124.439 23.0057 124.258 22.7831C124.077 22.5605 123.764 22.497 123.511 22.6315L123.792 23.1614ZM122.017 23.7752C121.726 23.9349 121.621 24.2997 121.78 24.5901C121.94 24.8804 122.305 24.9863 122.595 24.8266L122.017 23.7752ZM120.523 21.6486C120.481 21.3199 120.181 21.0875 119.852 21.1294C119.523 21.1714 119.291 21.4719 119.333 21.8006L120.523 21.6486ZM120.225 16.1261L120.811 16.2567C120.861 16.033 120.779 15.8004 120.6 15.6573C120.42 15.5142 120.175 15.4857 119.968 15.5839L120.225 16.1261ZM118.342 17.0179L118.086 16.4757C117.902 16.5625 117.775 16.736 117.748 16.9369L118.342 17.0179ZM119.135 24.8954L118.916 25.454L118.916 25.454L119.135 24.8954ZM122.405 24.2514L122.717 24.7641C123 24.5922 123.09 24.2237 122.918 23.9406C122.747 23.6575 122.379 23.5666 122.095 23.7376L122.405 24.2514ZM91.4598 12.113L92.0586 12.1501C92.0731 11.9169 91.9508 11.6965 91.7453 11.5853C91.5398 11.4741 91.2884 11.4923 91.1011 11.632L91.4598 12.113ZM89.3789 13.4012L89.6662 12.8744C89.4252 12.743 89.1258 12.7918 88.9391 12.993C88.7524 13.1942 88.726 13.4964 88.875 13.7269L89.3789 13.4012ZM93.3271 13.8383L93.4101 14.4325C93.6715 14.396 93.8783 14.193 93.9197 13.9323L93.3271 13.8383ZM93.5679 13.1583C93.8989 13.1433 94.1551 12.8627 94.14 12.5317C94.125 12.2006 93.8444 11.9445 93.5134 11.9595L93.5679 13.1583ZM100.873 10.2799L101.275 10.7255C101.497 10.5249 101.538 10.1908 101.37 9.9429C101.201 9.69498 100.876 9.60923 100.607 9.74202L100.873 10.2799ZM95.2816 13.199L94.6876 13.1141C94.6575 13.3249 94.7413 13.5358 94.9079 13.6684C95.0745 13.801 95.2989 13.8354 95.4976 13.7587L95.2816 13.199ZM96.9592 5.375L97.536 5.54021C97.6008 5.3141 97.5275 5.07101 97.3485 4.91841C97.1695 4.76582 96.9179 4.73188 96.7049 4.83159L96.9592 5.375ZM94.6306 6.46498L94.3763 5.92156C94.1964 6.00574 94.0699 6.17342 94.0383 6.36943L94.6306 6.46498ZM95.8197 26.035L95.7804 26.6337L95.7804 26.6337L95.8197 26.035ZM103.499 22.3687L103.937 22.779C104.147 22.5543 104.154 22.2065 103.951 21.9743C103.749 21.7422 103.403 21.701 103.152 21.8792L103.499 22.3687ZM95.8197 23.7559L95.372 24.1554C95.4006 24.1875 95.4326 24.2164 95.4675 24.2417L95.8197 23.7559ZM104.49 25.1432L104.048 24.7375C103.851 24.9521 103.837 25.2773 104.014 25.5084C104.191 25.7396 104.509 25.8099 104.767 25.6752L104.49 25.1432ZM108.255 13.7975L108.854 13.7613C108.843 13.581 108.752 13.4151 108.605 13.3099C108.458 13.2046 108.272 13.1711 108.097 13.2187L108.255 13.7975ZM115.092 16.1261L114.729 16.6033C114.916 16.7459 115.169 16.766 115.376 16.6548L115.092 16.1261ZM117.124 15.0361L117.407 15.5648C117.595 15.464 117.716 15.271 117.723 15.0578C117.731 14.8447 117.625 14.6435 117.445 14.5293L117.124 15.0361ZM108.314 17.662L107.714 17.6344L107.714 17.6344L108.314 17.662ZM95.4233 12.2617L94.8308 12.1672L94.8308 12.1672L95.4233 12.2617ZM133.944 21.4727L134.048 22.0638C134.052 22.0629 134.057 22.062 134.062 22.0611L133.944 21.4727ZM134.197 21.4223L134.314 22.0106C134.325 22.0085 134.335 22.0062 134.345 22.0036L134.197 21.4223ZM134.445 21.3591L134.593 21.9405C134.607 21.9369 134.621 21.9328 134.635 21.9282L134.445 21.3591ZM134.674 21.2825L134.864 21.8516C134.878 21.8467 134.893 21.8413 134.907 21.8354L134.674 21.2825ZM134.826 21.2183L135.059 21.7712C135.074 21.7652 135.088 21.7586 135.101 21.7514L134.826 21.2183ZM127.887 22.6029L129.621 21.4634L128.962 20.4606L127.228 21.6001L127.887 22.6029ZM134.646 20.6415C133.242 21.6054 132.215 22.1655 131.219 22.3353C130.255 22.4995 129.239 22.3094 127.837 21.5708L127.278 22.6323C128.822 23.4466 130.111 23.7413 131.42 23.5183C132.697 23.3008 133.911 22.6018 135.325 21.6307L134.646 20.6415ZM128.867 21.3855C129.823 22.345 131.246 22.651 133.287 22.1961L133.026 21.0248C131.204 21.4308 130.272 21.0955 129.717 20.5385L128.867 21.3855ZM133.287 22.1961C133.4 22.1709 133.528 22.1494 133.681 22.1248C133.829 22.101 134 22.0743 134.172 22.0404C134.514 21.9731 134.914 21.8688 135.284 21.6566L134.687 20.6157C134.486 20.7312 134.237 20.8048 133.94 20.863C133.793 20.8919 133.646 20.915 133.491 20.94C133.341 20.9642 133.179 20.9907 133.026 21.0248L133.287 22.1961ZM127.132 15.2782C130.953 13.783 133.166 14.8696 134.035 16.317C134.944 17.8296 134.584 19.9711 132.83 21.1068L133.482 22.1141C135.791 20.6195 136.298 17.7549 135.064 15.6992C133.79 13.5782 130.851 12.5345 126.695 14.1607L127.132 15.2782ZM127.031 14.7585C130.85 12.7629 133.883 13.5934 135.358 15.1487C136.104 15.9352 136.468 16.9127 136.389 17.8702C136.312 18.8188 135.794 19.8191 134.636 20.6484L135.335 21.6239C136.74 20.617 137.475 19.3128 137.585 17.968C137.695 16.6322 137.181 15.3277 136.229 14.323C134.306 12.2961 130.66 11.508 126.475 13.695L127.031 14.7585ZM125.209 37.0245C126.429 36.5248 127.148 36.1306 127.805 35.174L126.815 34.4947C126.359 35.1597 125.905 35.4426 124.754 35.9141L125.209 37.0245ZM127.081 34.2799C126.997 34.3145 126.95 34.3309 126.925 34.3379C126.888 34.3481 126.947 34.3238 127.046 34.3437C127.106 34.3557 127.179 34.3833 127.249 34.4382C127.318 34.4927 127.36 34.5557 127.383 34.6064C127.423 34.6909 127.414 34.7434 127.414 34.6949L126.215 34.6766C126.213 34.7848 126.22 34.9524 126.297 35.1169C126.395 35.3253 126.58 35.4743 126.811 35.5204C126.991 35.5565 127.153 35.5196 127.243 35.4951C127.344 35.4673 127.447 35.4268 127.539 35.3888L127.081 34.2799ZM124.254 15.1999C124.776 16.1796 125.038 17.9008 125.106 20.0596C125.173 22.1874 125.051 24.6334 124.878 26.9871C124.792 28.1625 124.693 29.3108 124.6 30.3817C124.506 31.4508 124.417 32.4459 124.352 33.3073C124.287 34.1658 124.244 34.9082 124.243 35.4692C124.242 35.7482 124.252 36.0007 124.28 36.2081C124.294 36.3117 124.313 36.419 124.345 36.5197C124.373 36.6117 124.426 36.7478 124.533 36.8679L125.43 36.0707C125.487 36.1351 125.498 36.1855 125.491 36.1636C125.487 36.1505 125.478 36.1156 125.469 36.0505C125.452 35.9204 125.442 35.7291 125.443 35.471C125.444 34.9578 125.484 34.2534 125.549 33.3981C125.613 32.5455 125.701 31.5596 125.795 30.4863C125.889 29.4148 125.988 28.2593 126.075 27.0751C126.249 24.7098 126.375 22.2137 126.306 20.0218C126.237 17.861 125.979 15.8849 125.313 14.6352L124.254 15.1999ZM125.227 15.3217C125.458 15.0676 125.644 14.9052 125.858 14.7686C126.079 14.628 126.353 14.5005 126.779 14.3392L126.354 13.2169C125.899 13.3892 125.537 13.5508 125.214 13.7563C124.885 13.9656 124.62 14.2061 124.34 14.5134L125.227 15.3217ZM120.334 10.1993C118.801 11.0375 118.533 11.1866 118.418 11.2591L119.059 12.2734C119.132 12.2277 119.346 12.1071 120.909 11.2522L120.334 10.1993ZM118.14 11.8112C118.18 12.3406 118.251 12.8554 118.542 13.242C118.861 13.666 119.339 13.8125 119.829 13.894L120.026 12.7102C119.604 12.6401 119.529 12.5576 119.501 12.521C119.446 12.4471 119.378 12.2698 119.337 11.7213L118.14 11.8112ZM120.162 13.8544C120.916 13.5344 121.536 13.0512 122.528 12.4215L121.885 11.4082C120.763 12.1206 120.326 12.4811 119.693 12.7498L120.162 13.8544ZM122.105 11.3235C121.82 11.3726 121.631 11.3924 121.5 11.3892C121.374 11.386 121.359 11.3625 121.376 11.3746C121.395 11.3882 121.369 11.385 121.33 11.2705C121.288 11.1492 121.251 10.96 121.218 10.6608L120.025 10.7908C120.06 11.1141 120.109 11.4099 120.194 11.6598C120.282 11.9164 120.425 12.1702 120.678 12.3507C120.928 12.5295 121.21 12.5824 121.47 12.5888C121.725 12.5951 122.009 12.5576 122.309 12.5062L122.105 11.3235ZM123.792 23.1614C123.331 22.7773 123.331 22.7772 123.332 22.777C123.332 22.777 123.332 22.7769 123.332 22.7768C123.332 22.7767 123.332 22.7765 123.332 22.7764C123.332 22.7762 123.332 22.776 123.333 22.7758C123.333 22.7754 123.333 22.7752 123.333 22.7751C123.333 22.775 123.333 22.7754 123.332 22.7763C123.331 22.7782 123.327 22.7822 123.322 22.7881C123.311 22.8001 123.293 22.8199 123.267 22.8464C123.216 22.8994 123.136 22.9789 123.026 23.0752C122.805 23.268 122.469 23.5266 122.017 23.7752L122.595 24.8266C123.134 24.5302 123.541 24.219 123.816 23.9783C123.953 23.8579 124.059 23.7547 124.131 23.6792C124.168 23.6414 124.196 23.6106 124.216 23.5879C124.227 23.5765 124.235 23.5672 124.241 23.5601C124.244 23.5565 124.246 23.5535 124.249 23.5511C124.25 23.5499 124.25 23.5488 124.251 23.5479C124.252 23.5474 124.252 23.547 124.252 23.5466C124.252 23.5464 124.253 23.5462 124.253 23.546C124.253 23.5459 124.253 23.5458 124.253 23.5458C124.253 23.5456 124.253 23.5455 123.792 23.1614ZM123.511 22.6315C122.901 22.9554 122.411 23.1692 122.018 23.2803C121.62 23.3924 121.381 23.3825 121.236 23.3341C121.113 23.2932 120.982 23.2003 120.853 22.9467C120.716 22.6774 120.601 22.2623 120.523 21.6486L119.333 21.8006C119.418 22.4705 119.556 23.0427 119.784 23.4908C120.02 23.9546 120.366 24.3093 120.856 24.4726C121.324 24.6283 121.833 24.5792 122.343 24.4352C122.857 24.2901 123.434 24.0308 124.074 23.6913L123.511 22.6315ZM119.968 15.5839L118.086 16.4757L118.599 17.5601L120.482 16.6684L119.968 15.5839ZM117.748 16.9369C117.42 19.3445 117.473 21.3159 117.69 22.7315C117.798 23.4371 117.948 24.0196 118.121 24.4546C118.208 24.6711 118.306 24.8675 118.417 25.0283C118.519 25.1743 118.68 25.3613 118.916 25.454L119.354 24.3368C119.447 24.3734 119.456 24.4194 119.403 24.3433C119.36 24.2821 119.302 24.1753 119.237 24.0111C119.107 23.6849 118.975 23.1962 118.876 22.55C118.679 21.2619 118.623 19.407 118.937 17.0989L117.748 16.9369ZM118.916 25.454C119.161 25.5502 119.458 25.5799 119.737 25.5806C120.028 25.5815 120.355 25.5504 120.69 25.4912C121.354 25.3739 122.104 25.1365 122.717 24.7641L122.093 23.7386C121.642 24.0132 121.043 24.2102 120.482 24.3095C120.204 24.3586 119.949 24.3812 119.74 24.3806C119.519 24.38 119.396 24.3531 119.354 24.3368L118.916 25.454ZM122.095 23.7376C121.83 23.8975 121.653 23.9275 121.547 23.9209C121.451 23.915 121.353 23.8767 121.241 23.766C120.984 23.5111 120.742 22.9565 120.588 22.1018C120.289 20.4343 120.404 18.0819 120.811 16.2567L119.639 15.9955C119.205 17.9423 119.074 20.4586 119.407 22.3138C119.57 23.2204 119.863 24.0906 120.397 24.6187C120.68 24.8995 121.041 25.0922 121.473 25.1187C121.894 25.1445 122.312 25.0082 122.715 24.7651L122.095 23.7376ZM91.1011 11.632C90.2845 12.2408 89.8233 12.5652 89.5535 12.728C89.4143 12.8119 89.3643 12.829 89.365 12.8288C89.384 12.8232 89.5157 12.7923 89.6662 12.8744L89.0916 13.9279C89.3146 14.0495 89.5392 14.0291 89.7078 13.9788C89.8579 13.9341 90.014 13.8516 90.1736 13.7554C90.5012 13.5576 91.0079 13.1983 91.8184 12.594L91.1011 11.632ZM88.875 13.7269C89.2274 14.2719 89.7544 14.5377 90.4875 14.6176C91.1761 14.6927 92.1167 14.6132 93.4101 14.4325L93.244 13.244C91.945 13.4256 91.1404 13.4817 90.6175 13.4247C90.1391 13.3725 89.9882 13.2386 89.8828 13.0754L88.875 13.7269ZM100.471 9.83424C99.3438 10.8508 97.6555 11.6399 95.0656 12.6392L95.4976 13.7587C98.0728 12.7651 99.9615 11.9095 101.275 10.7255L100.471 9.83424ZM96.7049 4.83159L94.3763 5.92156L94.885 7.00839L97.2136 5.91841L96.7049 4.83159ZM95.7804 26.6337C96.4004 26.6743 97.1382 26.5219 97.8771 26.2846C98.6282 26.0435 99.4325 25.6974 100.204 25.3074C101.729 24.5368 103.215 23.5491 103.937 22.779L103.061 21.9584C102.483 22.5752 101.145 23.4872 99.663 24.2364C98.9313 24.6062 98.1864 24.925 97.5103 25.1421C96.8221 25.363 96.2546 25.4622 95.859 25.4362L95.7804 26.6337ZM103.152 21.8792C101.781 22.8509 100.445 23.5181 99.2397 23.7763C98.0469 24.0319 97.0164 23.8826 96.1719 23.2702L95.4675 24.2417C96.6545 25.1024 98.056 25.2572 99.4911 24.9497C100.914 24.6449 102.402 23.8819 103.846 22.8582L103.152 21.8792ZM105.969 15.3311C105.884 15.254 105.873 15.1871 105.895 15.248C105.908 15.2852 105.927 15.3523 105.947 15.4558C105.987 15.6607 106.022 15.954 106.045 16.321C106.089 17.052 106.079 18.027 105.976 19.0774C105.873 20.1284 105.679 21.2385 105.36 22.2458C105.04 23.259 104.606 24.1295 104.048 24.7375L104.932 25.5488C105.654 24.7626 106.156 23.7095 106.504 22.6076C106.854 21.4998 107.062 20.3034 107.17 19.1944C107.279 18.0848 107.291 17.0464 107.242 16.2486C107.218 15.8512 107.179 15.5012 107.125 15.2263C107.099 15.0899 107.066 14.9579 107.024 14.8421C106.991 14.7501 106.922 14.5764 106.777 14.4439L105.969 15.3311ZM106.777 14.4439C106.804 14.4685 106.855 14.5248 106.885 14.6182C106.917 14.7171 106.911 14.813 106.888 14.8875C106.852 15.0054 106.786 15.0388 106.836 14.9988C106.918 14.9338 107.098 14.8381 107.358 14.7318C107.603 14.6319 107.867 14.5428 108.073 14.4778C108.175 14.4456 108.262 14.4199 108.322 14.4023C108.352 14.3936 108.376 14.3869 108.391 14.3825C108.399 14.3803 108.405 14.3787 108.409 14.3776C108.411 14.3771 108.412 14.3767 108.413 14.3765C108.413 14.3764 108.413 14.3764 108.413 14.3763C108.413 14.3763 108.414 14.3763 108.413 14.3763C108.413 14.3763 108.413 14.3763 108.413 14.3763C108.413 14.3763 108.413 14.3763 108.255 13.7975C108.097 13.2187 108.097 13.2187 108.097 13.2188C108.097 13.2188 108.097 13.2188 108.097 13.2188C108.097 13.2189 108.097 13.2189 108.096 13.219C108.096 13.2191 108.095 13.2193 108.095 13.2195C108.093 13.2199 108.091 13.2204 108.088 13.2212C108.083 13.2226 108.076 13.2247 108.066 13.2273C108.048 13.2326 108.021 13.2402 107.987 13.25C107.92 13.2696 107.825 13.2979 107.712 13.3332C107.49 13.4033 107.192 13.5036 106.905 13.6209C106.633 13.7317 106.313 13.8808 106.087 14.0617C105.983 14.1447 105.812 14.3013 105.74 14.5393C105.699 14.6739 105.692 14.8292 105.743 14.9863C105.791 15.1378 105.881 15.2511 105.969 15.3311L106.777 14.4439ZM108.13 19.5942C107.564 19.3954 107.564 19.3953 107.564 19.3953C107.564 19.3953 107.564 19.3952 107.564 19.3952C107.564 19.3952 107.564 19.3953 107.564 19.3955C107.564 19.3957 107.563 19.3963 107.563 19.3971C107.563 19.3988 107.562 19.4015 107.56 19.4052C107.558 19.4126 107.553 19.4242 107.548 19.4396C107.537 19.4704 107.52 19.5166 107.497 19.5763C107.452 19.6958 107.385 19.8691 107.297 20.0809C107.123 20.5054 106.869 21.0808 106.554 21.687C106.238 22.2951 105.866 22.9219 105.456 23.4552C105.041 23.996 104.618 24.3996 104.212 24.6112L104.767 25.6752C105.397 25.3469 105.947 24.787 106.408 24.186C106.875 23.5777 107.284 22.8848 107.619 22.2406C107.955 21.5945 108.223 20.9851 108.407 20.5379C108.499 20.3139 108.571 20.1295 108.62 20.0004C108.644 19.9358 108.663 19.8849 108.676 19.8498C108.682 19.8322 108.687 19.8185 108.69 19.8089C108.692 19.8042 108.693 19.8004 108.694 19.7978C108.695 19.7964 108.695 19.7954 108.695 19.7946C108.695 19.7942 108.696 19.7939 108.696 19.7936C108.696 19.7935 108.696 19.7933 108.696 19.7933C108.696 19.7931 108.696 19.793 108.13 19.5942ZM108.619 19.941C109.638 18.503 110.776 17.3007 111.878 16.6559C112.425 16.3361 112.934 16.1699 113.398 16.1557C113.849 16.1418 114.292 16.2704 114.729 16.6033L115.456 15.6489C114.806 15.153 114.094 14.9338 113.361 14.9562C112.64 14.9783 111.935 15.2325 111.272 15.6201C109.956 16.39 108.7 17.7506 107.64 19.2474L108.619 19.941ZM115.376 16.6548L117.407 15.5648L116.84 14.5074L114.809 15.5974L115.376 16.6548ZM107.656 13.8337C107.743 15.2727 107.765 16.5307 107.714 17.6344L108.913 17.6895C108.966 16.5308 108.943 15.2281 108.854 13.7613L107.656 13.8337ZM107.714 17.6344C107.683 18.3163 107.624 18.9367 107.537 19.5026L108.723 19.6858C108.818 19.0701 108.88 18.4061 108.913 17.6895L107.714 17.6344ZM117.445 14.5293C116.906 14.1879 116.349 13.9369 115.724 13.8328C115.098 13.7284 114.442 13.7779 113.711 13.9835C112.279 14.3864 110.496 15.4104 107.971 17.1697L108.657 18.1543C111.183 16.3946 112.819 15.4812 114.036 15.1386C114.63 14.9715 115.106 14.9463 115.527 15.0165C115.95 15.0869 116.356 15.2599 116.803 15.543L117.445 14.5293ZM94.0383 6.36943C93.7616 8.08495 93.3386 10.1792 92.9475 12.4575L94.1302 12.6605C94.5085 10.4565 94.9492 8.25802 95.223 6.56052L94.0383 6.36943ZM92.9475 12.4575C92.4126 15.5741 91.9551 18.9437 92.1585 21.5825C92.26 22.8994 92.53 24.1023 93.0912 25.0099C93.6734 25.9513 94.5591 26.5536 95.7804 26.6337L95.859 25.4362C95.0521 25.3833 94.5048 25.0143 94.1118 24.3787C93.6978 23.7092 93.4504 22.7293 93.3549 21.4903C93.1643 19.017 93.5945 15.7817 94.1302 12.6605L92.9475 12.4575ZM96.2674 23.3565C96.0335 23.0943 95.819 22.6179 95.665 21.8943C95.514 21.1845 95.4343 20.3015 95.4199 19.291C95.3912 17.2714 95.6242 14.8122 96.0158 12.3561L94.8308 12.1672C94.4327 14.6635 94.1901 17.1961 94.2201 19.308C94.235 20.3632 94.3183 21.3308 94.4913 22.144C94.6614 22.9434 94.9321 23.6623 95.372 24.1554L96.2674 23.3565ZM96.0158 12.3561C96.4042 9.92052 96.9757 7.49654 97.536 5.54021L96.3824 5.20979C95.8107 7.20608 95.2277 9.67756 94.8308 12.1672L96.0158 12.3561ZM95.5192 12.8539C97.1932 12.583 99.4289 11.6632 101.139 10.8178L100.607 9.74202C98.9195 10.5763 96.8166 11.4283 95.3274 11.6694L95.5192 12.8539ZM90.8609 12.076C90.8418 12.3849 90.945 12.6912 91.2135 12.9053C91.4369 13.0835 91.7115 13.1438 91.9257 13.1709C92.3542 13.2251 92.9574 13.1853 93.5654 13.1584L93.5124 11.9596C92.8275 11.9899 92.3732 12.018 92.0763 11.9804C91.9278 11.9616 91.9228 11.9361 91.9617 11.9672C91.9903 11.9899 92.0222 12.0276 92.0421 12.077C92.0607 12.1231 92.0584 12.1532 92.0586 12.1501L90.8609 12.076ZM93.5661 13.1584L93.5679 13.1583L93.5134 11.9595L93.5116 11.9596L93.5661 13.1584ZM94.8308 12.1672C94.7805 12.4827 94.7327 12.7987 94.6876 13.1141L95.8755 13.2838C95.9197 12.9749 95.9665 12.6654 96.0158 12.3561L94.8308 12.1672ZM93.9197 13.9323C93.9872 13.507 94.0578 13.0823 94.1302 12.6605L92.9475 12.4575C92.8744 12.8833 92.8029 13.313 92.7345 13.7442L93.9197 13.9323ZM126.189 14.4328C126.239 14.5678 126.286 14.712 126.33 14.8654L127.483 14.5304C127.431 14.3537 127.376 14.1836 127.316 14.0206L126.189 14.4328ZM126.336 14.8837L126.343 14.9053L127.484 14.5336L127.477 14.512L126.336 14.8837ZM126.182 14.4127L126.336 14.8838L127.477 14.5119L127.323 14.0408L126.182 14.4127ZM126.024 14.0341C126.136 14.2701 126.238 14.5473 126.33 14.8654L127.483 14.5303C127.377 14.1657 127.253 13.8271 127.109 13.522L126.024 14.0341ZM126.33 14.8654C126.885 16.7729 127.005 19.8556 126.904 23.4416C126.804 27.0058 126.491 30.982 126.216 34.6408L127.413 34.7306C127.686 31.0832 128.003 27.0742 128.104 23.4753C128.204 19.8983 128.096 16.6402 127.483 14.5303L126.33 14.8654ZM133.841 20.8817L133.053 21.0194L133.259 22.2015L134.048 22.0638L133.841 20.8817ZM134.079 20.8339L133.827 20.8844L134.062 22.0611L134.314 22.0106L134.079 20.8339ZM134.296 20.7777L134.048 20.8409L134.345 22.0036L134.593 21.9405L134.296 20.7777ZM134.484 20.7134L134.254 20.79L134.635 21.9282L134.864 21.8516L134.484 20.7134ZM134.71 20.603L134.551 20.6851L135.101 21.7514L135.261 21.6693L134.71 20.603ZM134.593 20.6653L134.441 20.7295L134.907 21.8354L135.059 21.7712L134.593 20.6653Z" fill="white"/>
</svg>
