<svg width="19" height="19" viewBox="0 0 19 19" fill="none" xmlns="http://www.w3.org/2000/svg">
<g clip-path="url(#clip0_80_565)">
<path d="M17.7335 0.431641C18.1293 0.899444 18.1833 1.56516 17.8954 2.4288C17.6075 3.29244 17.1217 4.06611 16.438 4.74982L14.2654 6.92241L16.4245 16.3145C16.4695 16.4854 16.4155 16.6338 16.2626 16.7598L14.5353 18.0552C14.4723 18.1092 14.3869 18.1362 14.2789 18.1362C14.2429 18.1362 14.2115 18.1317 14.1845 18.1227C14.0495 18.0957 13.9551 18.0237 13.9011 17.9068L10.1362 11.0517L6.64114 14.5467L7.35634 17.1646C7.40132 17.3175 7.36534 17.457 7.24839 17.5829L5.95293 18.8784C5.87197 18.9593 5.76851 18.9998 5.64256 18.9998H5.61557C5.48063 18.9818 5.37268 18.9234 5.29171 18.8244L2.74128 15.4238L-0.659285 12.8734C-0.758243 12.8104 -0.816718 12.707 -0.834711 12.563C-0.843707 12.4461 -0.803224 12.3336 -0.713262 12.2257L0.582193 10.9167C0.663159 10.8358 0.766615 10.7953 0.892562 10.7953C0.94654 10.7953 0.982525 10.7998 1.00052 10.8088L3.61842 11.524L7.11344 8.02894L0.258329 4.26403C0.132382 4.19206 0.0559145 4.0841 0.0289258 3.94016C0.0109334 3.79622 0.0514164 3.67478 0.150375 3.57582L1.87765 1.84854C2.00359 1.73159 2.13854 1.69561 2.28248 1.74059L11.2562 3.88619L13.4153 1.7271C14.099 1.04338 14.8727 0.557588 15.7363 0.269709C16.6 -0.01817 17.2657 0.0358073 17.7335 0.431641Z" fill="#2C42B5"/>
</g>
<defs>
<clipPath id="clip0_80_565">
<rect width="19" height="19" fill="white"/>
</clipPath>
</defs>
</svg>
