<svg width="2541" height="612" viewBox="0 0 2541 612" fill="none" xmlns="http://www.w3.org/2000/svg">
<path d="M250.807 325.193C427.089 289.603 473.428 220.271 573.751 217.96C627.734 216.574 744.684 265.469 804.878 285.806C815.866 289.504 827.331 292.277 838.319 294.126C896.124 286.731 953.929 280.26 1011.26 274.251C1026.54 270.553 1040.88 267.78 1053.77 266.856C1067.15 265.469 1082.44 265.469 1099.16 265.931C1107.28 265.007 1115.4 264.545 1124 263.62C1124 263.62 995.317 178.983 787.028 180.369C651.353 181.294 90.2905 198.548 0 210.103V332.126C51.5946 329.815 142.841 346.917 250.807 325.193Z" fill="black" fill-opacity="0.94"/>
<path d="M1051.22 228.427C1043.34 229.354 1035.46 229.818 1027.11 230.745C1132.35 233.99 1293.68 288.694 1372.49 296.575C1476.33 306.774 1583.42 265.978 1673.82 243.262C1742.43 226.109 1821.71 248.362 1896.34 264.124C1955.22 276.641 1978.4 254.388 2035.42 268.76C2144.83 296.575 2404.9 251.143 2540.73 250.216V245.116C2261.19 199.221 1682.17 170.942 1051.22 228.427Z" fill="black" fill-opacity="0.94"/>
<path d="M2251.46 87.9594C2239.4 81.9327 2224.57 81.4691 2211.12 81.0055C2197.68 80.5419 2200 84.7142 2193.04 85.1778C2186.09 86.105 2187.02 81.9327 2182.38 78.6876C2177.75 74.9788 2156.88 74.0516 2142.05 80.0783C2141.12 80.5419 2140.66 80.5419 2139.73 81.0055C2140.19 75.906 2134.63 71.2701 2121.65 71.7337C2105.89 72.1973 2108.67 75.4424 2104.03 75.4424C2099.4 75.906 2088.27 74.0517 2081.78 76.3696C2075.29 78.6876 2068.8 82.8598 2062.77 82.8598C2056.28 82.8598 2040.52 85.6414 2043.3 94.9132C2044.23 99.0855 2049.33 100.013 2054.43 99.0855C2055.36 100.94 2057.68 101.403 2059.99 101.403C2062.31 101.403 2064.63 101.403 2066.48 101.403C2067.41 102.331 2068.34 102.794 2069.27 103.721C2071.12 107.43 2073.9 109.748 2077.61 111.139C2080.39 113.457 2082.71 115.775 2084.56 117.165C2091.52 123.656 2104.5 134.782 2107.74 141.736V140.809C2107.74 141.272 2108.21 142.199 2108.21 142.663C2110.99 152.862 2110.06 209.42 2110.06 209.42C2112.38 211.274 2115.62 210.347 2115.62 210.347C2115.62 210.347 2115.62 161.67 2114.7 154.253C2115.62 145.908 2118.41 140.809 2120.26 136.173C2122.11 131.537 2129.07 117.166 2133.24 111.602C2133.7 111.602 2134.63 111.602 2135.1 111.602C2142.98 119.483 2152.25 129.682 2155.03 134.782C2159.2 143.127 2164.3 192.267 2168.01 208.029H2171.72C2171.72 208.029 2168.94 175.114 2168.01 170.942C2167.08 166.306 2163.84 151.008 2162.45 147.299C2160.59 143.59 2158.27 133.855 2153.64 128.292C2151.32 125.046 2144.37 118.093 2138.34 112.066C2138.8 112.066 2139.27 112.066 2139.27 112.066C2148.08 112.993 2153.18 114.848 2161.06 116.238C2161.06 118.093 2161.52 119.483 2161.98 120.874C2163.84 127.365 2170.79 144.054 2170.79 144.054C2170.33 150.544 2173.57 202.002 2174.5 208.956L2178.21 209.42V178.823L2180.06 208.493C2179.6 206.175 2180.99 165.842 2183.31 156.571C2190.26 149.153 2200.92 139.418 2208.34 133.855C2216.69 127.364 2219 126.437 2222.71 121.338C2224.1 119.947 2225.96 117.629 2228.28 115.775C2231.06 117.166 2235.23 119.02 2242.18 119.483C2259.8 121.338 2255.63 115.775 2259.34 110.675C2262.12 106.967 2257.48 105.112 2251.92 103.258C2256.56 102.794 2260.26 102.331 2263.97 100.013C2272.78 94.4496 2263.51 93.5224 2251.46 87.9594ZM2180.53 148.69C2180.06 144.517 2180.99 140.809 2181.92 138.491C2183.77 134.782 2191.65 127.364 2193.51 119.947C2193.51 119.02 2193.97 118.556 2193.97 117.165C2196.75 117.165 2199.07 116.702 2201.85 116.702C2199.53 119.947 2197.22 122.729 2195.83 125.047C2191.19 131.537 2184.7 140.809 2180.53 148.69ZM2100.33 112.53C2099.86 112.066 2099.4 111.139 2098.94 110.212C2099.4 110.212 2099.86 110.212 2100.33 110.212C2100.33 111.139 2100.33 111.602 2100.33 112.53ZM2186.09 117.629C2188.41 117.629 2190.73 117.629 2193.51 117.629C2193.04 119.483 2192.58 120.874 2192.12 121.338C2188.87 125.974 2182.84 132.927 2180.53 137.563C2180.99 132.927 2182.84 127.828 2185.16 122.729C2185.63 120.874 2185.63 119.02 2186.09 117.629ZM2082.25 113.457C2081.78 112.993 2081.32 112.53 2080.39 111.602C2084.56 112.066 2089.2 112.066 2093.37 111.139C2094.3 111.139 2095.69 110.675 2096.62 110.675C2098.01 112.53 2098.93 113.92 2099.4 115.311C2100.79 119.02 2102.64 126.437 2104.96 133.855C2100.33 129.682 2085.49 116.702 2082.25 113.457ZM2102.18 115.775C2102.18 113.92 2101.72 112.066 2101.72 110.212C2105.43 110.212 2109.13 109.748 2113.31 110.212C2112.84 113.92 2112.38 117.629 2111.92 119.947C2110.99 125.51 2110.06 132 2109.6 135.709C2107.28 129.682 2103.57 119.947 2102.18 115.775ZM2115.16 134.782C2115.16 137.563 2114.23 139.881 2114.23 139.881L2112.84 144.517C2112.38 142.663 2111.92 140.809 2110.99 138.491C2111.92 130.61 2111.92 125.974 2113.77 115.775C2114.23 113.92 2114.23 111.602 2114.7 109.285C2117.02 109.285 2119.33 109.284 2121.65 109.748C2119.8 114.847 2117.94 119.02 2116.55 124.119C2115.16 131.537 2115.16 132 2115.16 134.782ZM2122.58 124.119C2119.8 129.219 2117.02 135.709 2117.02 135.709C2117.02 135.709 2116.55 128.292 2118.87 122.265C2119.8 119.947 2121.65 115.311 2123.04 109.748C2125.82 109.748 2128.6 110.212 2130.92 110.212C2128.6 115.311 2125.36 119.483 2122.58 124.119ZM2164.76 117.629C2164.76 117.165 2164.76 116.702 2164.3 116.238C2165.23 116.238 2166.62 116.702 2167.55 116.702C2168.47 116.702 2169.4 116.702 2170.33 117.165C2170.79 120.411 2170.79 123.192 2170.79 124.583C2170.79 127.364 2170.79 132.464 2170.79 137.1C2168.94 130.61 2165.69 124.119 2164.76 117.629ZM2173.57 121.338C2173.57 119.947 2173.11 118.556 2173.11 117.165C2176.82 117.629 2180.53 117.629 2184.7 117.629C2184.7 118.093 2184.7 118.556 2184.7 118.556C2183.31 123.656 2178.21 132.464 2178.21 137.1C2178.21 139.418 2178.21 141.272 2178.21 142.663C2177.75 144.517 2177.75 146.372 2178.21 149.617C2178.21 151.008 2178.67 151.935 2178.67 152.862C2177.75 155.18 2177.28 157.034 2176.82 158.425C2176.35 154.716 2175.89 151.008 2175.43 147.299C2174.5 137.1 2174.5 127.828 2173.57 121.338ZM2206.02 132.927C2202.78 136.173 2187.94 146.372 2185.16 148.69C2185.63 147.299 2186.09 145.908 2186.55 144.517C2189.34 137.563 2198.14 125.51 2204.63 116.702C2208.34 116.238 2211.59 115.775 2214.83 115.311C2216.22 114.848 2218.08 114.848 2219.47 114.848C2219 116.702 2218.08 120.874 2217.61 122.729C2213.91 126.437 2208.81 130.61 2206.02 132.927ZM2222.25 118.556C2221.79 119.02 2221.32 119.483 2220.86 119.947C2220.4 119.483 2220.4 118.093 2221.32 114.848C2221.32 114.384 2221.32 114.384 2221.79 113.92C2223.64 113.92 2225.03 113.457 2226.89 113.457C2227.35 113.457 2227.35 113.92 2227.81 113.92C2225.03 115.775 2223.18 117.166 2222.25 118.556Z" fill="black" fill-opacity="0.94"/>
<path d="M941.817 239.09C886.186 245.117 830.091 251.607 773.997 259.024C841.681 305.383 893.603 250.216 941.817 239.09Z" fill="#0F0D06"/>
<path d="M2540.74 611.352V249.752C2404.9 250.679 2147.15 266.905 2037.74 239.553C1980.72 225.182 1957.08 252.533 1898.2 240.016C1823.56 224.254 1733.63 209.883 1665.01 227.5C1574.61 250.216 1475.87 285.912 1372.03 275.713C1293.68 268.295 1132.35 233.526 1027.11 230.745C1010.89 230.281 996.055 230.281 983.074 231.672C970.557 232.599 956.649 235.844 941.815 239.089C893.601 250.679 834.725 268.759 773.995 259.024C763.332 257.169 752.206 254.388 741.544 250.679C682.668 230.281 609.421 212.665 557.035 214.055C460.145 216.837 401.269 259.951 230.668 295.647C125.433 317.436 50.3314 326.244 0.263672 328.562V611.352H2540.74Z" fill="black"/>
<path d="M1221.95 224.301C1225.19 223.374 1226.12 222.91 1226.12 221.983C1226.12 221.056 1227.51 221.056 1227.51 221.056C1227.51 221.056 1228.44 222.91 1227.97 224.301C1227.51 225.692 1234 226.155 1237.25 224.764C1240.49 223.374 1236.78 221.056 1234.46 219.201C1232.15 216.883 1231.68 215.493 1231.68 212.711C1231.68 209.93 1231.22 187.677 1234 178.869C1236.78 170.061 1243.27 154.299 1244.2 151.517C1245.13 148.736 1247.91 148.272 1247.91 147.345C1247.91 146.881 1256.72 148.736 1258.57 147.345C1259.5 150.59 1260.42 153.835 1260.89 159.398C1261.35 164.961 1262.28 170.061 1260.89 173.77C1259.5 177.478 1260.42 179.333 1261.35 180.723C1261.82 182.578 1261.82 204.367 1259.96 208.539C1258.11 212.711 1258.57 214.102 1259.03 215.029C1259.5 215.956 1259.03 216.883 1259.03 218.738C1258.57 220.592 1261.82 221.519 1265.06 221.056C1268.31 220.592 1271.55 219.665 1269.23 216.42C1266.45 213.175 1265.99 212.711 1266.45 212.247C1266.92 211.784 1266.45 208.539 1265.99 207.612C1265.52 206.684 1265.99 186.287 1267.84 183.505C1269.7 180.723 1270.16 174.697 1269.23 171.452C1267.84 168.206 1271.09 150.59 1272.48 147.345C1273.41 147.808 1274.33 165.425 1272.94 169.597C1272.01 173.306 1271.09 177.015 1272.01 180.26C1272.94 183.969 1273.87 206.684 1273.41 209.93C1272.94 212.711 1273.41 214.102 1274.33 215.029C1275.26 215.956 1274.8 218.738 1274.8 220.129C1275.26 221.519 1279.9 222.446 1285 220.129C1285.46 218.738 1281.75 216.883 1281.29 215.956C1280.36 215.029 1278.97 212.711 1278.97 210.857C1278.97 209.002 1276.65 187.214 1278.04 183.505C1279.43 179.796 1280.82 176.087 1280.82 172.842C1280.82 169.134 1284.53 151.981 1285.92 146.881C1287.31 141.782 1288.24 131.583 1288.7 129.729C1289.17 127.874 1291.95 120.457 1289.17 114.43C1286.39 108.403 1284.53 102.377 1287.31 98.2044C1290.56 94.032 1300.29 66.6803 1299.37 50.4547C1299.37 39.3285 1301.22 30.9839 1304 29.1295C1306.32 27.2752 1308.17 27.2752 1309.57 28.2024C1310.96 29.1296 1316.98 29.5932 1319.76 28.2024C1321.16 28.666 1323.47 30.5204 1324.86 30.5204C1326.25 30.5204 1326.25 29.5931 1326.25 29.5931C1326.25 29.5931 1327.65 30.9839 1328.11 30.0567C1328.11 30.0567 1328.57 25.4208 1324.86 22.6393C1322.55 19.3942 1320.23 14.7583 1318.37 13.8311C1316.52 12.9039 1312.35 7.80441 1310.49 8.73159C1309.57 6.87723 1308.64 0.387028 1306.32 0.387028C1304 0.387028 1303.54 1.31412 1303.54 1.31412C1303.54 1.31412 1304 -1.93098 1299.83 1.77774C1300.29 3.6321 1302.61 7.34076 1301.22 7.80435C1299.83 8.73153 1297.51 5.4864 1295.66 5.4864C1293.8 5.4864 1296.12 8.73156 1296.12 10.5859C1296.12 12.9039 1286.39 25.4209 1283.6 35.1563C1281.29 44.8916 1274.33 60.6536 1270.16 65.7531C1265.99 70.8526 1252.08 85.6875 1252.08 88.4691C1252.08 90.787 1251.62 94.4957 1248.37 97.2773C1245.13 100.059 1234 103.767 1229.36 106.085C1224.73 108.403 1220.56 112.112 1217.31 119.066C1214.07 126.02 1210.82 133.437 1215.92 152.444C1217.77 165.425 1218.7 170.524 1216.85 173.306C1217.31 177.015 1220.56 191.386 1220.09 196.485C1219.63 201.585 1221.48 210.857 1220.09 212.711C1219.17 214.565 1218.24 215.956 1218.7 216.883C1219.17 217.811 1216.85 218.738 1216.85 221.056C1215.46 224.301 1218.7 225.228 1221.95 224.301ZM1225.66 177.942C1227.97 184.896 1227.05 209.466 1226.58 211.32C1226.12 213.175 1225.66 214.565 1225.66 218.274C1221.02 207.612 1225.66 177.942 1225.66 177.942Z" fill="black" fill-opacity="0.94"/>
<path fill-rule="evenodd" clip-rule="evenodd" d="M933.934 108.867C933.934 109.795 933.934 110.722 933.934 112.113C933.47 116.285 935.788 122.312 938.57 123.239C939.96 123.702 941.815 123.239 942.742 122.775C943.669 122.775 944.596 122.775 945.06 122.775C947.841 121.848 945.524 119.994 945.06 118.603C943.206 115.358 942.278 111.649 941.815 107.94C940.424 106.549 941.351 104.231 940.424 102.841C939.497 95.4233 942.742 86.6152 949.232 86.1516C949.232 85.688 949.696 86.1516 949.696 86.1516C949.696 86.1516 949.696 86.6151 950.159 86.6151C948.769 88.933 944.133 91.2511 944.133 94.9598C944.133 95.4234 944.596 95.8869 944.596 96.3505C944.596 97.7413 944.596 99.5957 946.451 100.059C948.305 98.6685 949.696 96.3506 952.014 95.4234C954.332 94.9598 956.186 95.8869 958.04 96.3505C957.577 98.2048 959.895 98.6684 960.358 100.523C959.431 100.523 959.431 100.059 958.504 100.059C957.577 100.523 956.186 100.059 955.259 100.523C954.332 100.986 953.405 101.914 952.014 102.841C951.087 103.304 950.159 103.768 949.232 103.768C945.524 106.086 945.987 110.722 947.841 114.43C949.696 114.43 950.623 114.894 952.014 115.358C953.405 114.431 952.477 111.185 952.941 110.258C954.332 111.185 952.941 114.431 953.405 115.358C957.577 113.967 963.604 111.185 962.213 104.695C964.994 107.013 962.213 111.185 960.822 113.503C958.504 115.821 955.259 116.285 952.014 118.139C951.55 119.066 951.087 119.994 951.087 120.921C951.55 121.848 952.014 122.775 952.941 121.848C952.941 124.629 955.259 125.557 957.113 126.947C959.431 126.947 960.822 126.02 961.286 123.239C962.213 123.239 961.286 124.63 961.749 125.093C964.067 124.166 965.921 122.312 967.312 118.603C968.239 119.066 967.776 120.921 967.776 121.384C967.312 122.775 965.458 125.093 964.067 126.484C963.14 127.411 961.286 127.411 960.822 128.802C960.358 130.193 960.822 132.511 962.213 132.511C962.676 132.511 962.676 132.047 963.14 132.047C965.922 131.583 968.703 127.875 968.239 125.093C970.557 128.338 965.458 132.511 963.604 133.901C964.067 134.828 964.994 135.756 965.921 136.219C967.776 134.828 970.557 134.365 972.875 133.438C977.511 128.338 970.094 119.994 976.12 117.676C976.584 118.603 975.193 119.066 975.193 119.994C975.193 120.921 975.193 121.848 975.193 122.775C977.511 126.02 976.584 132.974 973.803 136.683C971.948 137.146 970.557 137.61 969.63 139.464C970.557 139.928 971.948 140.392 971.485 141.319C973.803 142.246 977.975 141.782 979.366 144.564C983.074 144.1 983.538 146.882 986.319 145.027C989.101 143.173 992.81 136.219 990.955 133.438C995.128 136.683 989.565 144.1 987.71 146.418C989.101 145.955 991.419 144.564 992.346 143.173C993.273 141.782 995.128 138.537 995.128 137.61C995.591 136.219 995.128 133.901 994.2 132.511C993.737 131.583 992.346 131.12 992.81 130.193C996.055 132.047 997.446 136.219 996.055 140.855C995.591 141.319 994.664 141.782 995.128 142.709C993.273 145.027 991.883 148.736 988.637 148.736C987.71 148.736 986.319 148.273 986.319 149.2C989.101 151.518 993.273 149.2 996.982 149.663C998.836 148.736 999.764 146.882 1001.15 145.491C1001.62 145.027 1002.08 145.027 1002.55 144.1C1003.47 141.782 1002.55 139.928 1002.55 137.61C1005.33 139.001 1005.33 143.173 1004.4 145.027C1003.94 145.955 1002.08 148.273 1000.69 149.663C998.373 151.518 995.591 152.445 992.346 153.372C987.71 154.299 985.856 152.445 982.611 150.591C982.611 151.981 981.684 152.445 980.756 153.836C983.538 155.69 985.856 159.399 990.028 159.399C990.955 160.326 992.81 161.717 992.81 163.571C992.81 164.035 991.883 164.962 991.883 165.889C991.419 169.134 995.591 173.77 997.909 175.161C998.373 175.624 998.836 175.624 999.3 176.088C1000.69 177.942 1002.08 183.969 998.836 184.433C996.518 184.433 996.055 182.578 994.2 182.578C994.2 183.505 995.591 183.505 995.591 184.896C991.419 187.214 989.565 180.724 985.856 179.797C984.001 179.333 982.611 179.797 981.22 179.333C979.829 178.869 979.366 177.479 977.975 176.552C973.803 190.459 970.557 207.148 956.65 207.612C955.722 208.539 954.795 209.466 953.868 210.394C953.868 214.102 952.014 216.42 951.55 218.738C950.159 222.447 950.159 228.01 950.159 231.255C950.159 233.573 950.159 235.891 951.55 237.745C951.087 240.063 952.477 241.918 950.623 243.772C951.087 244.236 950.623 245.163 950.623 245.626C950.159 249.799 951.087 256.289 951.55 259.998C951.55 261.389 951.55 262.779 952.014 263.706C952.014 264.17 952.941 264.634 952.941 265.097C953.868 267.415 953.868 270.197 956.65 270.197C957.577 272.515 960.358 273.442 961.749 275.296C961.749 276.223 960.822 275.296 960.822 275.76C960.822 276.223 961.286 276.687 960.822 277.614C957.577 276.687 956.186 276.687 954.795 275.296C952.941 272.978 954.332 267.879 949.696 268.342C948.305 265.097 950.159 261.389 950.159 257.216C950.159 253.971 948.769 250.726 948.305 247.481C948.305 246.09 948.305 244.699 948.305 243.772C947.842 241.918 945.987 239.6 945.987 237.282C945.987 237.282 945.524 236.818 945.06 236.818C945.987 235.891 946.451 234.5 945.987 232.646C945.524 228.474 945.524 221.983 944.596 219.202C944.133 219.665 943.206 218.738 942.742 219.665C942.278 224.765 942.742 229.864 943.669 234.037C944.133 234.5 944.133 234.964 945.06 234.964C944.133 236.818 945.06 239.136 944.596 240.991C944.596 241.454 943.669 241.918 943.669 242.845C943.206 244.236 942.742 246.554 942.742 248.408C942.278 251.19 942.278 256.289 942.742 258.607C943.206 260.461 944.596 261.852 944.133 263.706C944.133 265.561 943.206 266.488 943.669 268.342C945.06 271.587 948.769 273.905 949.696 277.614C948.305 277.151 947.842 275.76 946.914 275.296C945.524 276.223 947.378 277.614 946.914 279.468C944.596 279.005 943.206 276.223 941.815 274.833C941.815 271.587 942.278 268.342 940.424 266.488C939.96 266.488 939.497 266.952 939.033 266.488C938.57 265.097 939.497 263.243 939.96 262.316C939.497 259.534 940.888 257.68 940.888 254.435C940.888 250.262 940.424 246.09 939.497 242.845C938.106 238.209 937.179 234.037 936.715 228.937C936.252 225.692 935.325 221.983 934.861 218.738C932.079 217.811 930.225 219.665 927.907 218.275C922.808 218.738 918.172 219.202 913.072 219.202C909.827 221.983 907.973 216.42 904.264 215.957C902.873 217.811 902.873 220.593 901.483 222.911C900.092 225.229 897.31 226.156 895.919 228.01C895.456 228.937 894.992 230.328 894.529 231.255C893.138 233.573 892.674 235.891 892.674 239.136C892.674 244.236 893.601 249.799 894.529 254.898C895.456 257.216 895.919 259.998 897.31 261.852C899.628 263.706 900.555 266.024 901.946 268.342C901.019 268.806 900.555 267.879 899.628 267.415C899.165 267.415 900.092 268.806 899.165 268.806C896.383 267.879 894.992 266.024 893.602 263.706C894.065 261.388 893.138 258.607 890.82 258.607C890.82 256.289 891.747 253.971 891.747 252.117C892.211 248.872 890.82 244.699 890.356 240.991C890.356 239.136 889.893 237.282 889.429 235.427C888.966 233.573 888.038 232.182 887.575 230.792C886.184 226.619 891.747 224.301 893.602 221.52C894.992 219.665 900.092 210.857 893.602 211.321C892.674 211.321 892.211 212.248 891.284 212.712C889.893 213.639 888.038 214.102 887.111 215.029C885.72 216.42 885.72 218.275 884.33 219.202C882.475 221.056 880.157 221.52 877.839 222.911C871.349 226.619 869.031 240.063 867.177 248.408C866.713 251.19 866.713 253.971 866.25 256.289C866.25 258.143 867.64 259.534 868.568 260.925C869.495 262.779 869.958 264.634 870.886 266.488C869.958 266.952 869.958 266.024 869.031 265.561C868.568 266.024 869.031 266.952 868.568 266.952C866.25 265.561 863.932 264.17 863.932 260.925C863.932 259.534 864.859 257.68 863.932 256.289C863.468 255.825 863.005 256.289 862.541 255.362C863.005 253.971 862.541 252.58 863.005 251.189C863.005 250.262 863.932 249.335 864.395 248.408C866.25 244.236 867.177 237.745 868.104 232.646C868.568 229.401 869.958 225.228 869.958 223.374C869.958 221.983 868.568 220.593 869.031 219.665C869.495 217.811 872.276 217.811 874.131 217.811C877.376 215.493 880.621 212.712 882.012 208.076C881.548 207.148 881.548 205.758 881.085 204.367C880.621 204.367 880.621 205.294 879.694 204.83C878.767 203.44 880.621 201.585 880.157 200.658C879.23 200.658 878.767 201.585 877.839 201.122C877.839 199.267 879.23 198.34 878.767 196.95C877.839 196.486 877.376 198.34 876.449 197.413C876.912 196.022 877.376 195.095 878.303 193.704C878.303 193.241 876.912 193.241 876.912 193.241C877.376 191.85 878.303 191.386 878.303 189.996C876.912 189.532 876.449 191.386 875.521 190.459C875.521 188.605 876.912 188.605 877.376 187.214C876.449 186.751 876.449 187.678 875.521 187.214C875.985 185.823 876.912 185.823 877.376 184.896C876.912 184.896 876.449 185.36 875.985 184.433C876.449 183.505 875.521 183.505 875.521 182.578C875.985 182.115 877.376 182.115 876.912 181.188C876.449 180.724 875.058 181.651 875.058 180.724C874.594 179.333 875.985 177.942 875.058 176.088C875.522 175.161 875.985 175.161 875.985 174.234C875.521 173.77 875.058 173.77 874.594 173.306C873.667 170.525 869.958 169.598 868.104 167.28C868.568 166.353 870.422 167.743 870.422 166.816C870.422 164.962 868.104 164.962 868.104 163.107C868.568 162.644 869.495 164.035 869.958 163.107C870.422 161.717 868.568 159.862 870.422 159.399C870.422 159.862 870.422 161.717 870.886 162.18C873.667 165.425 876.449 170.525 881.085 170.061C884.33 170.061 888.966 169.134 892.674 169.598C894.992 170.061 896.847 169.598 898.701 170.061C901.019 170.061 903.337 170.988 905.655 171.452C913.999 172.379 923.271 175.161 930.225 178.87C934.397 175.624 941.351 180.26 946.451 181.188C949.232 180.26 952.014 180.26 954.332 179.333C956.65 178.406 960.358 174.697 961.286 172.843C961.749 171.452 961.749 170.061 962.213 169.134C963.14 167.743 964.067 166.353 964.994 164.962C966.385 162.644 966.849 160.326 968.703 158.008C966.385 156.617 964.067 155.226 963.14 153.372C964.067 151.518 962.213 150.59 962.676 149.663C964.531 149.2 965.921 151.054 967.312 151.054C967.776 149.663 965.922 148.736 966.849 147.345C968.703 147.345 969.167 149.2 971.021 150.127C972.412 150.591 973.803 150.59 974.73 151.518C975.193 151.518 975.657 151.054 976.12 150.127C974.73 146.882 972.412 145.027 970.094 142.246C964.994 140.391 961.286 138.537 956.186 136.683C948.769 132.047 944.133 125.093 937.179 119.994C935.788 118.139 935.325 115.358 933.47 113.967C933.47 112.576 933.007 111.185 933.007 109.795C931.152 107.477 928.834 105.159 927.907 101.914C927.444 100.986 926.98 98.2049 928.371 97.7413C929.298 100.986 929.761 104.232 932.543 106.086C931.152 101.914 933.007 88.4695 937.643 90.7875C937.643 92.1783 935.788 92.1782 934.861 94.0325C933.934 96.8141 934.861 100.986 937.179 102.377C939.033 101.914 940.888 98.2049 943.206 100.059C937.643 104.232 934.861 105.159 933.934 108.867ZM946.451 102.841C948.769 102.377 951.55 99.5956 953.868 98.2048C953.868 97.7412 953.868 97.7413 953.868 97.2777C950.623 95.887 948.769 100.986 946.451 102.841ZM950.623 96.8141C950.159 96.8141 950.159 96.8141 949.696 97.2777C950.623 97.7413 950.623 97.7413 950.623 96.8141ZM948.305 117.212C947.842 118.139 948.305 118.603 948.769 119.066C949.232 118.603 950.159 118.603 950.159 117.212C949.696 117.212 948.769 116.748 948.305 117.212ZM947.841 131.12C950.623 131.583 952.941 131.583 955.259 130.656C953.868 129.265 952.477 127.875 951.087 126.484C950.623 126.947 951.087 127.411 950.623 127.411C951.087 125.557 949.232 124.166 948.769 122.775C946.914 122.775 945.987 124.166 944.596 124.629C942.278 127.875 946.451 129.265 947.841 131.12ZM951.087 133.901C952.477 134.365 952.477 135.756 954.795 135.756C955.259 134.365 956.65 134.365 957.113 132.974C955.723 132.974 952.941 132.974 951.087 133.901ZM958.504 136.219C958.04 137.146 957.113 136.683 957.113 137.61C957.577 138.074 958.968 139.001 959.895 138.537C959.431 137.61 958.968 136.683 958.504 136.219Z" fill="black"/>
<path fill-rule="evenodd" clip-rule="evenodd" d="M1785.09 162.18C1785.09 163.107 1783.23 163.107 1782.77 163.107C1779.52 163.107 1776.28 160.789 1773.03 160.326C1771.64 158.471 1769.33 158.008 1767.94 156.617C1770.25 161.253 1775.35 164.035 1779.52 167.28C1781.38 168.207 1783.7 168.207 1784.16 170.988C1782.77 171.452 1781.38 171.452 1779.99 171.452C1778.13 170.988 1776.74 169.598 1775.35 168.67C1773.03 167.743 1770.72 167.743 1769.33 165.889C1771.18 171.452 1773.96 177.015 1776.74 182.578C1778.6 185.823 1779.52 187.678 1780.92 191.85C1781.38 193.704 1782.31 195.559 1781.84 197.413C1783.7 201.585 1782.77 205.294 1783.23 209.93C1782.31 211.784 1780.92 213.175 1779.06 214.566C1775.82 216.884 1770.72 220.129 1765.62 219.665C1765.15 217.347 1767.01 217.347 1767.94 216.42C1767.47 215.029 1766.08 214.102 1766.08 212.248C1768.4 209.003 1772.11 214.102 1774.89 210.393C1775.35 209.93 1776.74 205.758 1776.74 204.83C1776.74 202.512 1775.82 200.194 1774.89 198.34C1773.5 195.095 1770.72 191.386 1768.86 188.141C1767.94 186.75 1767.94 185.823 1767.01 184.432C1765.15 181.651 1762.84 178.869 1760.98 175.624C1759.13 172.843 1756.81 170.061 1755.42 166.816C1753.1 162.18 1753.1 157.081 1751.71 151.981C1750.32 154.299 1748 161.253 1744.29 158.008C1744.76 155.226 1746.15 151.518 1744.76 149.2C1742.9 146.882 1738.73 146.882 1735.95 145.491C1734.09 144.564 1733.63 143.637 1732.24 143.173C1731.31 145.027 1732.7 147.345 1732.24 149.663C1731.78 152.445 1728.53 153.836 1727.6 155.69C1727.6 158.935 1726.68 161.717 1727.14 164.962C1727.14 165.889 1728.07 166.816 1728.53 167.743C1728.99 169.134 1728.07 170.988 1728.07 172.379C1728.07 174.233 1728.53 176.551 1728.53 178.869C1728.99 184.896 1728.53 192.313 1728.99 198.804C1729.46 205.294 1731.31 211.321 1730.38 216.42C1730.38 217.811 1730.38 218.738 1729.92 220.593C1729.46 223.838 1727.6 227.083 1727.6 229.401C1728.07 231.719 1729.92 233.109 1730.85 234.964C1735.48 234.5 1738.73 240.063 1736.41 243.308C1731.31 242.845 1726.68 246.09 1722.97 244.235C1722.04 244.235 1720.19 245.163 1719.26 244.235C1716.94 245.626 1713.7 244.236 1713.23 242.381C1712.77 239.136 1715.09 236.818 1714.16 233.109C1714.16 232.182 1713.23 231.255 1713.23 230.328C1712.3 226.155 1713.7 221.983 1713.23 217.347C1713.23 209.93 1710.91 202.512 1709.99 196.486C1708.13 201.585 1707.67 208.539 1706.74 214.566C1706.74 215.029 1705.81 215.493 1705.81 215.957C1705.35 218.738 1704.89 222.447 1703.5 225.692C1702.11 228.937 1699.32 234.964 1701.18 240.063C1702.11 241.918 1703.96 242.381 1705.81 243.308C1706.74 245.163 1707.67 246.554 1708.13 248.408C1704.89 251.653 1697.93 252.58 1691.91 253.044C1689.59 253.044 1687.27 252.58 1684.49 252.117C1681.71 249.799 1683.1 246.554 1684.49 243.772C1684.03 241.918 1683.1 239.6 1683.1 237.282C1683.1 235.427 1684.49 233.573 1684.95 231.719C1685.42 228.937 1684.95 225.692 1685.42 222.447C1685.88 218.738 1687.27 215.493 1687.27 212.248C1687.27 209.003 1687.73 204.83 1686.81 201.585C1685.88 198.34 1682.17 195.559 1683.1 189.532C1681.24 190.923 1678.46 193.241 1676.14 194.631C1672.44 196.486 1669.19 196.949 1665.95 198.34C1662.24 200.194 1658.99 202.512 1656.21 205.758C1655.75 206.685 1655.28 207.612 1654.82 208.539C1653.43 210.394 1652.5 211.784 1651.57 214.566C1652.04 217.811 1650.65 220.129 1652.04 223.374C1652.5 224.301 1652.96 224.765 1653.43 225.692C1653.89 226.619 1653.89 227.546 1654.36 228.937C1654.82 230.328 1655.75 231.719 1656.21 233.109C1656.67 235.427 1656.67 237.745 1657.14 239.6C1658.53 243.308 1662.7 245.626 1664.09 248.408C1665.48 251.189 1665.02 253.044 1663.63 254.898C1658.06 257.68 1651.11 258.143 1643.23 257.68C1641.84 256.289 1639.98 255.825 1638.59 254.435C1637.2 251.653 1639.52 248.871 1639.52 246.553C1639.52 243.308 1635.81 240.063 1635.81 236.818C1635.35 232.646 1639.06 228.937 1636.28 223.838C1634.88 227.083 1635.35 230.791 1634.42 234.5C1633.96 236.818 1632.57 237.745 1632.1 240.99C1632.1 242.381 1632.1 244.236 1632.1 244.699C1632.57 247.481 1637.2 248.871 1635.35 252.58C1633.96 253.507 1632.1 253.507 1631.18 255.362C1625.61 255.362 1621.9 254.898 1616.8 253.971C1614.95 251.653 1609.85 250.262 1609.85 246.553C1609.85 245.163 1610.78 242.845 1611.71 241.454C1611.24 238.209 1611.71 234.037 1613.1 231.719C1611.24 227.083 1608.92 223.374 1609.39 217.811C1609.39 215.957 1610.78 214.102 1610.31 212.248C1610.31 207.612 1608 202.976 1606.61 198.34C1605.68 195.095 1605.22 191.386 1604.29 188.141C1602.43 182.115 1600.58 177.479 1601.04 170.061C1601.04 168.67 1601.97 166.816 1602.43 164.962C1603.36 162.644 1603.36 159.862 1603.82 157.544C1605.68 155.69 1605.68 153.372 1606.14 151.054C1606.61 150.59 1607.07 150.127 1607.53 149.2C1608 148.272 1608 146.882 1608.46 145.955C1609.39 143.637 1610.78 141.319 1612.17 139.001C1612.17 138.537 1612.17 137.61 1612.63 137.146C1613.56 134.828 1615.41 132.51 1616.8 130.193C1618.2 127.875 1619.12 125.093 1620.51 122.775C1620.98 122.311 1621.9 121.848 1622.37 121.384C1622.83 120.457 1623.3 119.53 1623.76 119.066C1625.15 117.675 1627 116.748 1627.93 115.358C1630.25 115.358 1631.64 113.503 1633.03 112.576C1633.49 112.112 1633.96 112.576 1634.88 112.112C1635.81 111.649 1637.2 110.258 1638.59 109.794C1641.38 108.404 1644.16 107.477 1646.01 105.159C1647.87 105.159 1648.33 103.768 1649.72 104.231C1654.82 100.059 1665.02 100.059 1672.44 99.5956C1674.29 98.6684 1677.07 99.1319 1679.39 98.6683C1681.71 98.2047 1683.56 97.7412 1685.42 97.2776C1686.81 97.2776 1688.66 97.2776 1690.05 97.2776C1691.91 96.814 1693.76 95.8869 1695.62 97.7412C1697.93 98.2048 1701.18 97.7412 1701.64 99.1319C1706.74 99.1319 1710.45 101.914 1716.01 101.914C1717.4 100.523 1719.26 101.45 1719.72 100.059C1720.65 100.059 1719.72 100.523 1720.19 100.986C1721.11 99.1319 1722.97 99.5955 1725.28 98.6683C1727.6 98.2047 1728.53 95.8868 1730.85 94.9597C1731.31 94.4961 1732.24 94.496 1732.7 94.496C1735.95 93.1053 1738.73 89.8601 1743.36 91.2509C1748.93 93.1052 1752.64 99.5955 1754.95 105.622C1756.81 107.477 1758.2 109.331 1760.52 110.258C1763.3 113.04 1762.37 118.603 1763.76 123.239C1764.23 125.093 1764.69 127.411 1765.15 130.193C1766.08 134.828 1767.94 139.464 1765.62 143.637C1766.08 148.736 1768.86 150.59 1772.11 153.372C1775.35 156.617 1778.6 158.471 1782.31 160.789C1782.77 160.326 1785.09 161.253 1785.09 162.18ZM1763.76 153.372C1762.84 151.518 1761.91 148.272 1760.05 147.809C1761.44 150.127 1762.37 151.981 1763.76 153.372ZM1606.14 174.697C1606.61 178.869 1606.14 183.505 1607.53 187.678C1608.46 191.386 1610.31 194.631 1611.24 199.267C1611.71 202.049 1612.63 205.294 1612.63 208.539C1612.63 210.857 1612.17 213.175 1612.63 215.493C1613.1 216.884 1614.49 218.275 1614.95 219.665C1615.41 222.91 1615.41 225.228 1613.56 227.546C1613.56 228.474 1614.02 228.474 1614.02 229.401C1616.34 227.083 1616.34 223.374 1618.2 221.056C1618.2 215.957 1619.59 210.393 1618.66 205.294C1618.2 202.049 1616.34 198.34 1615.41 194.168C1613.56 186.287 1610.78 181.187 1607.07 176.551C1606.61 176.088 1606.61 175.161 1606.14 174.697C1605.68 174.697 1605.68 174.234 1605.68 174.234C1606.14 174.234 1606.14 174.233 1606.14 174.697ZM1613.1 224.765C1613.56 224.301 1613.1 223.374 1612.63 222.91C1612.17 223.374 1612.63 224.301 1613.1 224.765Z" fill="black"/>
<path d="M460.148 120.457C437.432 109.331 410.08 107.94 385.046 107.476C360.476 106.549 364.648 113.967 351.668 115.357C338.687 116.748 340.541 109.331 332.197 102.841C323.389 96.3502 285.374 94.4959 257.095 105.158C255.704 105.622 254.314 106.086 253.387 106.549C254.314 97.2775 243.651 88.4692 220.008 88.9328C190.802 89.86 195.901 95.4231 187.093 96.3503C178.285 97.2775 157.887 93.5688 145.834 97.7411C133.317 101.913 121.727 110.258 110.137 110.258C98.5476 110.258 68.8778 115.357 73.9773 132.974C76.2953 140.391 85.1035 142.709 94.3753 140.855C96.2296 144.1 100.402 145.027 104.574 145.027C109.21 145.027 113.382 145.027 116.628 144.564C118.018 145.954 119.873 147.345 121.727 148.736C124.972 155.69 130.535 160.326 137.489 162.644C142.589 166.816 146.761 170.988 150.006 173.77C162.987 185.823 186.63 206.221 192.656 219.665V217.811C193.12 218.738 193.12 220.129 193.583 221.056C198.683 240.063 196.829 344.834 196.829 344.834C201.464 348.08 207.491 346.225 207.491 346.225C207.491 346.225 207.491 256.289 206.1 241.917C207.955 226.155 212.591 217.347 216.299 208.539C220.008 199.731 232.989 173.306 240.87 162.644C242.26 162.644 243.188 162.644 244.578 163.107C259.413 177.942 276.566 196.949 281.202 206.221C289.083 221.983 298.355 312.847 305.772 342.053L313.19 342.516C313.19 342.516 307.627 281.786 306.236 273.442C304.381 265.097 298.818 236.354 295.573 229.401C292.328 222.447 288.156 204.367 279.348 193.704C274.712 188.141 262.658 174.697 250.605 163.107C251.069 163.107 251.996 163.107 252.459 163.107C269.149 164.962 278.42 167.743 292.792 170.525C293.255 173.77 293.719 177.015 294.646 179.333C297.891 190.923 311.335 222.91 311.335 222.91C310.408 234.964 316.898 330.927 317.826 342.98L324.316 344.834V288.276L327.561 343.444C326.634 339.271 329.415 264.17 333.588 246.553C346.568 233.109 366.039 215.029 380.41 203.903C396.172 192.313 399.881 189.995 406.835 180.724C409.153 177.942 412.861 174.233 417.034 170.525C422.597 173.306 430.478 176.088 442.995 177.478C475.91 181.187 467.565 170.061 474.982 160.789C480.546 153.835 471.737 150.127 461.075 146.882C469.419 146.418 476.837 145.027 483.791 141.319C500.016 132.974 482.4 131.583 460.148 120.457ZM328.952 233.573C328.488 226.155 329.879 218.738 331.733 214.102C334.978 207.148 349.813 193.241 353.058 179.796C353.522 178.406 353.522 177.015 353.986 175.161C359.085 175.161 363.721 174.697 368.82 174.233C364.184 180.26 360.012 185.36 357.231 189.532C348.886 201.585 336.833 219.202 328.952 233.573ZM179.676 166.352C178.749 164.962 177.821 164.034 176.894 162.18C177.821 162.18 178.749 162.18 179.676 161.716C179.676 163.571 179.676 164.962 179.676 166.352ZM338.687 175.624C343.323 175.624 347.495 175.624 352.131 175.161C351.668 178.406 350.74 180.724 349.813 182.578C344.25 190.923 332.66 204.367 328.024 212.711C328.952 203.903 332.66 195.095 336.833 184.896C338.223 181.651 338.687 178.406 338.687 175.624ZM146.297 167.743C145.37 166.816 144.443 165.889 143.052 164.498C150.47 165.889 159.278 164.962 167.622 163.571C169.477 163.107 171.331 162.644 173.649 162.644C175.967 165.889 177.821 168.67 178.749 170.988C181.067 177.479 184.775 191.386 188.948 205.757C180.139 198.34 152.788 173.77 146.297 167.743ZM182.921 172.379C182.457 169.134 182.457 165.425 182.457 161.716C188.948 161.253 196.365 161.253 203.782 161.253C202.855 168.207 201.928 174.697 201.001 178.869C199.147 188.605 197.756 201.122 196.829 208.075C192.656 197.876 186.166 180.26 182.921 172.379ZM207.491 208.075C207.491 213.639 206.1 217.347 206.1 217.347L203.319 226.155C202.392 222.447 201.464 219.202 200.074 215.029C202.392 200.194 201.464 191.85 205.173 172.843C205.637 169.134 206.564 165.425 207.028 161.253C211.663 161.253 215.836 161.716 220.008 161.716C216.763 171.452 213.054 179.333 210.736 188.605C207.491 202.049 207.491 202.512 207.491 208.075ZM221.399 188.141C215.836 197.413 211.2 209.93 211.2 209.93C211.2 209.93 210.273 196.486 214.909 184.896C216.763 180.724 219.544 171.452 222.79 162.18C227.889 162.644 232.989 162.644 237.624 163.107C232.525 171.452 226.498 179.333 221.399 188.141ZM299.282 175.624C299.282 174.697 298.818 173.77 298.818 172.843C300.673 173.306 302.527 173.306 304.845 173.77C306.699 173.77 308.09 174.233 309.945 174.233C310.408 180.26 310.872 185.823 310.872 188.141C310.872 193.241 311.335 202.512 310.872 211.784C307.163 199.731 301.6 188.141 299.282 175.624ZM315.971 183.042C315.971 180.724 315.508 177.942 315.044 174.697C321.534 175.161 328.952 175.624 336.369 175.624C336.369 176.551 336.369 177.015 335.906 177.478C333.124 187.214 323.852 203.44 323.852 212.248C323.852 216.42 323.852 219.665 324.316 222.447C323.389 225.692 323.852 229.401 324.316 234.964C324.779 237.282 324.779 239.136 325.243 240.99C323.389 244.699 322.461 248.408 321.998 251.189C321.071 244.699 320.143 237.282 319.216 230.791C317.362 212.248 317.362 195.095 315.971 183.042ZM376.238 204.367C370.675 209.93 342.396 229.864 337.296 233.109C338.223 230.328 339.151 227.546 340.078 225.228C345.641 212.711 361.867 189.532 373.456 173.77C379.947 173.306 386.437 172.379 392.927 171.452C395.709 170.988 398.49 170.525 401.272 170.061C400.345 173.77 398.954 180.724 398.027 184.896C390.609 192.313 380.874 199.731 376.238 204.367ZM405.908 177.942C404.98 178.869 404.053 179.796 403.126 180.724C402.662 179.796 402.199 177.015 403.59 171.915C403.59 171.452 404.053 170.988 404.053 170.525C407.298 170.061 410.543 169.598 413.325 169.134C413.789 169.598 414.252 169.597 415.179 170.061C411.471 172.843 407.762 175.624 405.908 177.942Z" fill="black"/>
<path d="M733.667 137.146C721.614 131.12 706.779 130.656 693.335 130.193C679.891 129.729 682.209 133.901 675.255 134.365C668.301 135.292 669.228 131.12 664.592 127.875C659.956 124.166 639.095 123.239 624.26 129.265C623.333 129.729 622.869 129.729 621.942 130.193C622.405 125.093 616.842 120.457 603.862 120.921C588.1 121.384 590.881 124.629 586.245 124.629C581.61 125.093 570.483 123.239 563.993 125.557C557.503 127.875 551.013 132.047 544.986 132.047C538.496 132.047 522.734 134.828 525.515 144.1C526.442 148.273 531.542 149.2 536.641 148.272C537.569 150.127 539.887 150.59 542.204 150.59C544.522 150.59 546.84 150.59 548.695 150.59C549.622 151.518 550.549 151.981 551.476 152.908C553.331 156.617 556.112 158.935 559.821 160.326C562.602 162.644 564.92 164.962 566.775 166.352C573.729 172.843 586.709 183.969 589.954 190.923V189.996C589.954 190.459 590.418 191.386 590.418 191.85C593.199 202.049 592.272 258.607 592.272 258.607C594.59 260.461 597.835 259.534 597.835 259.534C597.835 259.534 597.835 210.857 596.908 203.44C597.835 195.095 600.617 189.996 602.471 185.36C604.325 180.724 611.279 166.352 615.452 160.789C615.915 160.789 616.842 160.789 617.306 160.789C625.187 168.67 634.459 178.869 637.24 183.969C641.413 192.313 646.512 241.454 650.221 257.216H653.93C653.93 257.216 651.148 224.301 650.221 220.129C649.294 215.493 646.049 200.195 644.658 196.486C642.803 192.777 640.485 183.042 635.85 177.479C633.532 174.233 626.578 167.28 620.551 161.253C621.015 161.253 621.478 161.253 621.478 161.253C630.286 162.18 635.386 164.034 643.267 165.425C643.267 167.28 643.731 168.67 644.194 170.061C646.049 176.551 653.002 193.241 653.002 193.241C652.539 199.731 655.784 251.189 656.711 258.143L660.42 258.607V228.01L662.274 257.68C661.811 255.362 663.201 215.029 665.519 205.758C672.473 198.34 683.136 188.605 690.553 183.042C698.898 176.551 701.216 175.624 704.924 170.525C706.315 169.134 708.17 166.816 710.488 164.962C713.269 166.353 717.441 168.207 724.395 168.67C742.012 170.525 737.839 164.962 741.548 159.862C744.33 156.154 739.694 154.299 734.131 152.445C738.766 151.981 742.475 151.518 746.184 149.2C754.992 144.1 745.72 143.173 733.667 137.146ZM662.738 197.877C662.274 193.704 663.201 189.996 664.129 187.678C665.983 183.969 673.864 176.551 675.718 169.134C675.718 168.207 676.182 167.743 676.182 166.352C678.963 166.352 681.281 165.889 684.063 165.889C681.745 169.134 679.427 171.916 678.036 174.234C673.4 181.187 666.91 190.459 662.738 197.877ZM582.537 161.717C582.073 161.253 581.61 160.326 581.146 159.399C581.61 159.399 582.073 159.399 582.537 159.399C582.537 160.326 582.537 161.253 582.537 161.717ZM667.837 166.816C670.155 166.816 672.473 166.816 675.255 166.816C674.791 168.67 674.328 170.061 673.864 170.525C670.619 175.161 664.592 182.114 662.274 186.75C662.738 182.114 664.592 177.015 666.91 171.916C667.837 170.061 667.837 168.207 667.837 166.816ZM564.457 162.644C563.993 162.18 563.53 161.717 562.602 160.789C566.775 161.253 571.411 161.253 575.583 160.326C576.51 160.326 577.901 159.862 578.828 159.862C580.219 161.717 581.146 163.107 581.61 164.498C583 168.207 584.855 175.624 587.173 183.042C582.537 178.869 567.702 165.889 564.457 162.644ZM584.391 165.425C584.391 163.571 583.928 161.717 583.928 159.862C587.636 159.862 591.345 159.399 595.517 159.862C595.054 163.571 594.59 167.28 594.126 169.598C593.199 175.161 592.272 181.651 591.809 185.36C589.491 178.869 585.782 169.134 584.391 165.425ZM597.372 184.432C597.372 187.214 596.444 189.532 596.444 189.532L595.054 194.168C594.59 192.313 594.127 190.459 593.199 188.141C594.127 180.26 594.127 175.624 595.981 165.425C596.444 163.571 596.444 161.253 596.908 158.935C599.226 158.935 601.544 158.935 603.862 159.399C602.008 164.498 600.153 168.67 598.762 173.77C597.372 181.187 597.372 181.651 597.372 184.432ZM604.789 173.77C602.008 178.869 599.226 185.36 599.226 185.36C599.226 185.36 598.762 177.942 601.08 171.916C602.008 169.598 603.862 164.962 605.253 159.399C608.034 159.399 610.816 159.862 613.134 159.862C610.816 164.962 607.571 168.67 604.789 173.77ZM646.976 166.816C646.976 166.352 646.976 165.889 646.512 165.425C647.439 165.425 648.83 165.889 649.757 165.889C650.684 165.889 651.612 165.889 652.539 166.352C653.002 169.598 653.002 172.379 653.002 173.77C653.002 176.551 653.002 181.651 653.002 186.287C651.148 179.797 647.903 173.77 646.976 166.816ZM655.784 170.988C655.784 169.598 655.32 168.207 655.32 166.816C659.029 167.28 662.738 167.28 666.91 167.28C666.91 167.743 666.91 168.207 666.91 168.207C665.519 173.306 660.42 182.114 660.42 186.75C660.42 189.068 660.42 190.923 660.42 192.314C659.956 194.168 659.956 196.022 660.42 199.267C660.42 200.658 660.883 201.585 660.883 202.512C659.956 204.83 659.493 206.685 659.029 208.076C658.565 204.367 658.102 200.658 657.638 196.949C656.711 186.75 656.711 177.479 655.784 170.988ZM688.235 182.578C684.99 185.823 670.155 196.022 667.374 198.34C667.837 196.949 668.301 195.559 668.764 194.168C671.546 187.214 680.354 175.161 686.844 166.352C690.553 165.889 693.798 165.425 697.043 164.962C698.434 164.498 700.289 164.498 701.679 164.498C701.216 166.352 700.289 170.525 699.825 172.379C696.116 175.624 690.553 179.797 688.235 182.578ZM703.997 168.207C703.534 168.67 703.07 169.134 702.607 169.598C702.143 169.134 702.143 167.743 703.07 164.498C703.07 164.035 703.07 164.034 703.534 163.571C705.388 163.571 706.779 163.107 708.633 163.107C709.097 163.107 709.097 163.571 709.56 163.571C707.242 165.425 705.388 166.816 703.997 168.207Z" fill="black"/>
</svg>
