<svg width="1920" height="455" viewBox="0 0 1920 455" fill="none" xmlns="http://www.w3.org/2000/svg">
<path d="M1677.43 112.296C1600.01 97.9243 1541.6 124.349 1470.2 140.111C1376.56 160.973 1274.57 193.887 1167.02 184.616C1073.37 176.734 996.88 141.965 932.904 111.832C865.22 79.8443 817.471 118.322 764.158 144.283C685.348 182.761 607.464 190.642 514.283 161.9C453.553 142.892 390.041 125.74 332.092 104.878C256.527 77.5264 142.13 179.986 -9 218C193.125 216.146 473.951 205.014 743.76 236.538C1374.71 179.516 1953.73 207.332 2233.27 253.227V215.676C2103 212.895 1970.42 176.735 1855.45 151.237C1797.04 137.793 1738.16 123.422 1677.43 112.296Z" fill="#B03324"/>
<path d="M-56.193 332.84C120.089 297.25 166.428 227.919 266.751 225.608C320.734 224.221 437.684 273.117 497.878 293.454C508.866 297.151 520.331 299.925 531.319 301.773C589.124 294.378 646.929 287.907 704.256 281.899C719.544 278.201 733.875 275.428 746.774 274.503C760.15 273.117 775.438 273.117 792.158 273.579C800.279 272.654 808.401 272.192 817 271.268C817 271.268 688.317 186.63 480.028 188.017C344.353 188.941 -216.709 206.195 -307 217.75V339.773C-255.405 337.462 -164.159 354.564 -56.193 332.84Z" fill="black" fill-opacity="0.94"/>
<path d="M744.221 236.075C736.34 237.002 728.459 237.465 720.114 238.393C825.349 241.638 986.678 296.341 1065.49 304.222C1169.33 314.421 1276.42 273.626 1366.82 250.91C1435.43 233.757 1514.71 256.009 1589.34 271.771C1648.22 284.288 1671.4 262.036 1728.42 276.407C1837.83 304.222 2097.9 258.791 2233.73 257.863V252.764C1954.19 206.869 1375.17 178.59 744.221 236.075Z" fill="black" fill-opacity="0.94"/>
<path d="M1944.46 95.6068C1932.4 89.5802 1917.57 89.1166 1904.12 88.653C1890.68 88.1894 1893 92.3617 1886.04 92.8253C1879.09 93.7524 1880.02 89.5802 1875.38 86.335C1870.75 82.6263 1849.88 81.6991 1835.05 87.7257C1834.12 88.1893 1833.66 88.1894 1832.73 88.653C1833.19 83.5535 1827.63 78.9176 1814.65 79.3812C1798.89 79.8448 1801.67 83.0898 1797.03 83.0898C1792.4 83.5534 1781.27 81.6991 1774.78 84.0171C1768.29 86.335 1761.8 90.5073 1755.77 90.5073C1749.28 90.5073 1733.52 93.2889 1736.3 102.561C1737.23 106.733 1742.33 107.66 1747.43 106.733C1748.36 108.587 1750.68 109.051 1752.99 109.051C1755.31 109.051 1757.63 109.051 1759.48 109.051C1760.41 109.978 1761.34 110.442 1762.27 111.369C1764.12 115.078 1766.9 117.396 1770.61 118.786C1773.39 121.104 1775.71 123.422 1777.56 124.813C1784.52 131.303 1797.5 142.429 1800.74 149.383V148.456C1800.74 148.92 1801.21 149.847 1801.21 150.31C1803.99 160.509 1803.06 217.067 1803.06 217.067C1805.38 218.922 1808.62 217.994 1808.62 217.994C1808.62 217.994 1808.62 169.318 1807.7 161.9C1808.62 153.555 1811.41 148.456 1813.26 143.82C1815.11 139.184 1822.07 124.813 1826.24 119.25C1826.7 119.25 1827.63 119.25 1828.09 119.25C1835.98 127.131 1845.25 137.33 1848.03 142.429C1852.2 150.774 1857.3 199.914 1861.01 215.677H1864.72C1864.72 215.677 1861.94 182.762 1861.01 178.589C1860.08 173.953 1856.84 158.655 1855.45 154.946C1853.59 151.238 1851.27 141.502 1846.64 135.939C1844.32 132.694 1837.37 125.74 1831.34 119.713C1831.8 119.713 1832.27 119.713 1832.27 119.713C1841.08 120.641 1846.18 122.495 1854.06 123.886C1854.06 125.74 1854.52 127.131 1854.98 128.522C1856.84 135.012 1863.79 151.701 1863.79 151.701C1863.33 158.191 1866.57 209.65 1867.5 216.604L1871.21 217.067V186.47L1873.06 216.14C1872.6 213.822 1873.99 173.49 1876.31 164.218C1883.26 156.801 1893.92 147.065 1901.34 141.502C1909.69 135.012 1912 134.085 1915.71 128.985C1917.1 127.594 1918.96 125.277 1921.28 123.422C1924.06 124.813 1928.23 126.667 1935.18 127.131C1952.8 128.985 1948.63 123.422 1952.34 118.323C1955.12 114.614 1950.48 112.76 1944.92 110.905C1949.56 110.442 1953.26 109.978 1956.97 107.66C1965.78 102.097 1956.51 101.17 1944.46 95.6068ZM1873.53 156.337C1873.06 152.165 1873.99 148.456 1874.92 146.138C1876.77 142.429 1884.65 135.012 1886.51 127.594C1886.51 126.667 1886.97 126.204 1886.97 124.813C1889.75 124.813 1892.07 124.349 1894.85 124.349C1892.53 127.594 1890.22 130.376 1888.83 132.694C1884.19 139.184 1877.7 148.456 1873.53 156.337ZM1793.33 120.177C1792.86 119.713 1792.4 118.786 1791.94 117.859C1792.4 117.859 1792.86 117.859 1793.33 117.859C1793.33 118.786 1793.33 119.25 1793.33 120.177ZM1879.09 125.277C1881.41 125.277 1883.73 125.277 1886.51 125.277C1886.04 127.131 1885.58 128.522 1885.12 128.985C1881.87 133.621 1875.84 140.575 1873.53 145.211C1873.99 140.575 1875.84 135.476 1878.16 130.376C1878.63 128.522 1878.63 126.667 1879.09 125.277ZM1775.25 121.104C1774.78 120.641 1774.32 120.177 1773.39 119.25C1777.56 119.714 1782.2 119.713 1786.37 118.786C1787.3 118.786 1788.69 118.323 1789.62 118.323C1791.01 120.177 1791.93 121.568 1792.4 122.959C1793.79 126.667 1795.64 134.085 1797.96 141.502C1793.33 137.33 1778.49 124.349 1775.25 121.104ZM1795.18 123.422C1795.18 121.568 1794.72 119.713 1794.72 117.859C1798.43 117.859 1802.13 117.395 1806.31 117.859C1805.84 121.568 1805.38 125.277 1804.92 127.594C1803.99 133.158 1803.06 139.648 1802.6 143.357C1800.28 137.33 1796.57 127.595 1795.18 123.422ZM1808.16 142.429C1808.16 145.211 1807.23 147.529 1807.23 147.529L1805.84 152.165C1805.38 150.31 1804.92 148.456 1803.99 146.138C1804.92 138.257 1804.92 133.621 1806.77 123.422C1807.23 121.568 1807.23 119.25 1807.7 116.932C1810.02 116.932 1812.33 116.932 1814.65 117.395C1812.8 122.495 1810.94 126.667 1809.55 131.767C1808.16 139.184 1808.16 139.648 1808.16 142.429ZM1815.58 131.767C1812.8 136.866 1810.02 143.357 1810.02 143.357C1810.02 143.357 1809.55 135.939 1811.87 129.912C1812.8 127.594 1814.65 122.959 1816.04 117.395C1818.82 117.395 1821.6 117.859 1823.92 117.859C1821.6 122.959 1818.36 127.131 1815.58 131.767ZM1857.76 125.277C1857.76 124.813 1857.76 124.349 1857.3 123.886C1858.23 123.886 1859.62 124.349 1860.55 124.349C1861.47 124.349 1862.4 124.349 1863.33 124.813C1863.79 128.058 1863.79 130.84 1863.79 132.23C1863.79 135.012 1863.79 140.111 1863.79 144.747C1861.94 138.257 1858.69 131.767 1857.76 125.277ZM1866.57 128.985C1866.57 127.594 1866.11 126.204 1866.11 124.813C1869.82 125.277 1873.53 125.277 1877.7 125.277C1877.7 125.74 1877.7 126.204 1877.7 126.204C1876.31 131.303 1871.21 140.111 1871.21 144.747C1871.21 147.065 1871.21 148.92 1871.21 150.31C1870.75 152.165 1870.75 154.019 1871.21 157.264C1871.21 158.655 1871.67 159.582 1871.67 160.509C1870.75 162.827 1870.28 164.682 1869.82 166.072C1869.35 162.364 1868.89 158.655 1868.43 154.946C1867.5 144.747 1867.5 135.475 1866.57 128.985ZM1899.02 140.575C1895.78 143.82 1880.94 154.019 1878.16 156.337C1878.63 154.946 1879.09 153.555 1879.55 152.165C1882.34 145.211 1891.14 133.158 1897.63 124.349C1901.34 123.886 1904.59 123.422 1907.83 122.959C1909.22 122.495 1911.08 122.495 1912.47 122.495C1912 124.349 1911.08 128.522 1910.61 130.376C1906.91 134.085 1901.81 138.257 1899.02 140.575ZM1915.25 126.204C1914.79 126.667 1914.32 127.131 1913.86 127.594C1913.4 127.131 1913.4 125.74 1914.32 122.495C1914.32 122.031 1914.32 122.031 1914.79 121.568C1916.64 121.568 1918.03 121.104 1919.89 121.104C1920.35 121.104 1920.35 121.568 1920.81 121.568C1918.03 123.422 1916.18 124.813 1915.25 126.204Z" fill="black" fill-opacity="0.94"/>
<path d="M634.817 246.737C579.186 252.764 523.091 259.254 466.997 266.672C534.681 313.031 586.603 257.863 634.817 246.737Z" fill="#0F0D06"/>
<path d="M2233.74 618.999V257.399C2097.9 258.327 1840.15 274.552 1730.74 247.2C1673.72 232.829 1650.08 260.181 1591.2 247.664C1516.56 231.902 1426.63 217.531 1358.01 235.147C1267.61 257.863 1168.87 293.559 1065.03 283.36C986.679 275.943 825.35 241.174 720.115 238.392C703.889 237.929 689.054 237.929 676.074 239.319C663.557 240.247 649.649 243.492 634.815 246.737C586.601 258.327 527.725 276.407 466.995 266.671C456.332 264.817 445.206 262.035 434.544 258.327C375.668 237.929 302.421 220.312 250.035 221.703C153.145 224.484 94.2688 267.598 -76.3322 303.295C-181.567 325.083 -256.669 333.892 -306.736 336.21V618.999H2233.74Z" fill="black"/>
<path d="M873.683 224.948C876.928 224.021 877.856 223.558 877.856 222.63C877.856 221.703 879.246 221.703 879.246 221.703C879.246 221.703 880.174 223.558 879.71 224.948C879.246 226.339 885.737 226.803 888.982 225.412C892.227 224.021 888.518 221.703 886.2 219.849C883.882 217.531 883.419 216.14 883.419 213.359C883.419 210.577 882.955 188.325 885.737 179.517C888.518 170.708 895.008 154.946 895.936 152.165C896.863 149.383 899.644 148.92 899.644 147.992C899.644 147.529 908.453 149.383 910.307 147.992C911.234 151.237 912.161 154.483 912.625 160.046C913.088 165.609 914.016 170.708 912.625 174.417C911.234 178.126 912.161 179.98 913.088 181.371C913.552 183.225 913.552 205.014 911.698 209.186C909.843 213.359 910.307 214.749 910.77 215.676C911.234 216.604 910.77 217.531 910.77 219.385C910.307 221.24 913.552 222.167 916.797 221.703C920.042 221.24 923.287 220.312 920.969 217.067C918.188 213.822 917.724 213.359 918.188 212.895C918.651 212.431 918.188 209.186 917.724 208.259C917.261 207.332 917.724 186.934 919.579 184.152C921.433 181.371 921.897 175.344 920.969 172.099C919.579 168.854 922.824 151.237 924.215 147.992C925.142 148.456 926.069 166.072 924.678 170.245C923.751 173.953 922.824 177.662 923.751 180.907C924.678 184.616 925.605 207.332 925.142 210.577C924.678 213.359 925.142 214.749 926.069 215.676C926.996 216.604 926.533 219.385 926.533 220.776C926.996 222.167 931.632 223.094 936.731 220.776C937.195 219.385 933.486 217.531 933.023 216.604C932.096 215.677 930.705 213.359 930.705 211.504C930.705 209.65 928.387 187.861 929.778 184.152C931.168 180.444 932.559 176.735 932.559 173.49C932.559 169.781 936.268 152.628 937.659 147.529C939.049 142.429 939.977 132.23 940.44 130.376C940.904 128.522 943.685 121.104 940.904 115.077C938.122 109.051 936.268 103.024 939.049 98.8518C942.295 94.6795 952.03 67.3278 951.103 51.1021C951.103 39.976 952.957 31.6313 955.739 29.777C958.057 27.9226 959.911 27.9227 961.302 28.8499C962.693 29.7771 968.719 30.2406 971.501 28.8499C972.891 29.3135 975.209 31.1678 976.6 31.1678C977.991 31.1678 977.991 30.2406 977.991 30.2406C977.991 30.2406 979.382 31.6314 979.845 30.7042C979.845 30.7042 980.309 26.0683 976.6 23.2867C974.282 20.0416 971.964 15.4057 970.11 14.4786C968.256 13.5514 964.083 8.45187 962.229 9.37905C961.302 7.52469 960.375 1.03449 958.057 1.03449C955.739 1.03449 955.275 1.96158 955.275 1.96158C955.275 1.96158 955.739 -1.28352 951.566 2.4252C952.03 4.27956 954.348 7.98822 952.957 8.45181C951.566 9.37899 949.248 6.13386 947.394 6.13386C945.54 6.13386 947.858 9.37902 947.858 11.2334C947.858 13.5513 938.122 26.0683 935.341 35.8037C933.023 45.5391 926.069 61.301 921.897 66.4005C917.724 71.5 903.817 86.335 903.817 89.1165C903.817 91.4345 903.353 95.1432 900.108 97.9247C896.863 100.706 885.737 104.415 881.101 106.733C876.465 109.051 872.292 112.76 869.047 119.713C865.802 126.667 862.557 134.085 867.657 153.092C869.511 166.072 870.438 171.172 868.584 173.953C869.047 177.662 872.293 192.033 871.829 197.133C871.365 202.232 873.22 211.504 871.829 213.359C870.902 215.213 869.975 216.604 870.438 217.531C870.902 218.458 868.584 219.385 868.584 221.703C867.193 224.948 870.438 225.875 873.683 224.948ZM877.392 178.589C879.71 185.543 878.783 210.113 878.319 211.968C877.856 213.822 877.392 215.213 877.392 218.922C872.756 208.259 877.392 178.589 877.392 178.589Z" fill="black" fill-opacity="0.94"/>
<path fill-rule="evenodd" clip-rule="evenodd" d="M585.67 109.515C585.67 110.442 585.67 111.369 585.67 112.76C585.207 116.932 587.524 122.959 590.306 123.886C591.697 124.35 593.551 123.886 594.478 123.423C595.405 123.423 596.333 123.423 596.796 123.423C599.578 122.495 597.26 120.641 596.796 119.25C594.942 116.005 594.015 112.296 593.551 108.588C592.16 107.197 593.088 104.879 592.16 103.488C591.233 96.0707 594.478 87.2626 600.969 86.7991C600.969 86.3355 601.432 86.7991 601.432 86.7991C601.432 86.7991 601.432 87.2625 601.896 87.2625C600.505 89.5805 595.869 91.8985 595.869 95.6072C595.869 96.0708 596.333 96.5344 596.333 96.9979C596.333 98.3887 596.333 100.243 598.187 100.707C600.041 99.316 601.432 96.998 603.75 96.0709C606.068 95.6073 607.922 96.5344 609.777 96.9979C609.313 98.8523 611.631 99.3159 612.095 101.17C611.168 101.17 611.168 100.707 610.24 100.707C609.313 101.17 607.922 100.707 606.995 101.17C606.068 101.634 605.141 102.561 603.75 103.488C602.823 103.952 601.896 104.415 600.969 104.415C597.26 106.733 597.723 111.369 599.578 115.078C601.432 115.078 602.359 115.542 603.75 116.005C605.141 115.078 604.214 111.833 604.677 110.906C606.068 111.833 604.677 115.078 605.141 116.005C609.313 114.614 615.34 111.833 613.949 105.343C616.731 107.661 613.949 111.833 612.558 114.151C610.24 116.469 606.995 116.932 603.75 118.787C603.287 119.714 602.823 120.641 602.823 121.568C603.287 122.495 603.75 123.423 604.677 122.495C604.677 125.277 606.995 126.204 608.85 127.595C611.168 127.595 612.558 126.668 613.022 123.886C613.949 123.886 613.022 125.277 613.486 125.741C615.803 124.813 617.658 122.959 619.049 119.25C619.976 119.714 619.512 121.568 619.512 122.032C619.049 123.423 617.194 125.741 615.803 127.131C614.876 128.058 613.022 128.058 612.558 129.449C612.095 130.84 612.558 133.158 613.949 133.158C614.413 133.158 614.413 132.694 614.876 132.694C617.658 132.231 620.439 128.522 619.976 125.741C622.294 128.986 617.194 133.158 615.34 134.549C615.803 135.476 616.731 136.403 617.658 136.867C619.512 135.476 622.294 135.012 624.612 134.085C629.248 128.986 621.83 120.641 627.857 118.323C628.32 119.25 626.93 119.714 626.93 120.641C626.93 121.568 626.93 122.495 626.93 123.423C629.248 126.668 628.32 133.622 625.539 137.33C623.685 137.794 622.294 138.258 621.367 140.112C622.294 140.575 623.685 141.039 623.221 141.966C625.539 142.893 629.711 142.43 631.102 145.211C634.811 144.748 635.274 147.529 638.056 145.675C640.837 143.821 644.546 136.867 642.692 134.085C646.864 137.33 641.301 144.748 639.447 147.066C640.837 146.602 643.155 145.211 644.082 143.821C645.01 142.43 646.864 139.185 646.864 138.257C647.328 136.867 646.864 134.549 645.937 133.158C645.473 132.231 644.082 131.767 644.546 130.84C647.791 132.694 649.182 136.867 647.791 141.503C647.328 141.966 646.4 142.43 646.864 143.357C645.01 145.675 643.619 149.384 640.374 149.384C639.447 149.384 638.056 148.92 638.056 149.847C640.837 152.165 645.01 149.847 648.718 150.311C650.573 149.384 651.5 147.529 652.891 146.138C653.354 145.675 653.818 145.675 654.281 144.748C655.209 142.43 654.281 140.575 654.281 138.257C657.063 139.648 657.063 143.821 656.136 145.675C655.672 146.602 653.818 148.92 652.427 150.311C650.109 152.165 647.328 153.092 644.082 154.02C639.447 154.947 637.592 153.092 634.347 151.238C634.347 152.629 633.42 153.092 632.493 154.483C635.274 156.337 637.592 160.046 641.765 160.046C642.692 160.973 644.546 162.364 644.546 164.218C644.546 164.682 643.619 165.609 643.619 166.536C643.155 169.782 647.328 174.417 649.646 175.808C650.109 176.272 650.573 176.272 651.036 176.735C652.427 178.59 653.818 184.616 650.573 185.08C648.255 185.08 647.791 183.226 645.937 183.226C645.937 184.153 647.328 184.153 647.328 185.544C643.155 187.862 641.301 181.371 637.592 180.444C635.738 179.981 634.347 180.444 632.956 179.98C631.565 179.517 631.102 178.126 629.711 177.199C625.539 191.107 622.294 207.796 608.386 208.259C607.459 209.187 606.532 210.114 605.605 211.041C605.605 214.75 603.75 217.068 603.287 219.386C601.896 223.094 601.896 228.657 601.896 231.903C601.896 234.221 601.896 236.538 603.287 238.393C602.823 240.711 604.214 242.565 602.359 244.42C602.823 244.883 602.359 245.81 602.359 246.274C601.896 250.446 602.823 256.937 603.287 260.645C603.287 262.036 603.287 263.427 603.75 264.354C603.75 264.817 604.677 265.281 604.677 265.745C605.605 268.063 605.604 270.844 608.386 270.844C609.313 273.162 612.095 274.089 613.486 275.944C613.486 276.871 612.558 275.944 612.558 276.407C612.558 276.871 613.022 277.334 612.558 278.262C609.313 277.334 607.922 277.334 606.532 275.944C604.677 273.626 606.068 268.526 601.432 268.99C600.041 265.745 601.896 262.036 601.896 257.864C601.896 254.619 600.505 251.373 600.041 248.128C600.041 246.737 600.041 245.347 600.041 244.42C599.578 242.565 597.723 240.247 597.723 237.929C597.723 237.929 597.26 237.466 596.796 237.466C597.723 236.539 598.187 235.148 597.723 233.293C597.26 229.121 597.26 222.631 596.333 219.849C595.869 220.313 594.942 219.386 594.478 220.313C594.015 225.412 594.478 230.512 595.406 234.684C595.869 235.148 595.869 235.611 596.796 235.611C595.869 237.466 596.796 239.784 596.333 241.638C596.333 242.102 595.406 242.565 595.406 243.492C594.942 244.883 594.478 247.201 594.478 249.055C594.015 251.837 594.015 256.936 594.478 259.254C594.942 261.109 596.333 262.5 595.869 264.354C595.869 266.208 594.942 267.135 595.406 268.99C596.796 272.235 600.505 274.553 601.432 278.262C600.041 277.798 599.578 276.407 598.651 275.944C597.26 276.871 599.114 278.262 598.651 280.116C596.333 279.652 594.942 276.871 593.551 275.48C593.551 272.235 594.015 268.99 592.16 267.135C591.697 267.135 591.233 267.599 590.77 267.135C590.306 265.745 591.233 263.89 591.697 262.963C591.233 260.182 592.624 258.327 592.624 255.082C592.624 250.91 592.16 246.737 591.233 243.492C589.842 238.856 588.915 234.684 588.452 229.585C587.988 226.34 587.061 222.631 586.597 219.386C583.816 218.458 581.961 220.313 579.643 218.922C574.544 219.386 569.908 219.849 564.809 219.849C561.563 222.631 559.709 217.068 556 216.604C554.61 218.459 554.61 221.24 553.219 223.558C551.828 225.876 549.047 226.803 547.656 228.657C547.192 229.585 546.729 230.975 546.265 231.903C544.874 234.221 544.411 236.539 544.411 239.784C544.411 244.883 545.338 250.446 546.265 255.546C547.192 257.864 547.656 260.645 549.047 262.5C551.365 264.354 552.292 266.672 553.682 268.99C552.755 269.453 552.292 268.526 551.365 268.063C550.901 268.063 551.828 269.453 550.901 269.453C548.119 268.526 546.729 266.672 545.338 264.354C545.801 262.036 544.874 259.254 542.556 259.254C542.556 256.936 543.483 254.618 543.483 252.764C543.947 249.519 542.556 245.347 542.093 241.638C542.093 239.784 541.629 237.929 541.165 236.075C540.702 234.221 539.775 232.83 539.311 231.439C537.92 227.267 543.483 224.949 545.338 222.167C546.729 220.313 551.828 211.505 545.338 211.968C544.411 211.968 543.947 212.895 543.02 213.359C541.629 214.286 539.775 214.75 538.848 215.677C537.457 217.068 537.457 218.922 536.066 219.849C534.212 221.704 531.894 222.167 529.576 223.558C523.085 227.267 520.768 240.711 518.913 249.055C518.45 251.837 518.45 254.618 517.986 256.936C517.986 258.791 519.377 260.182 520.304 261.572C521.231 263.427 521.695 265.281 522.622 267.135C521.695 267.599 521.695 266.672 520.768 266.208C520.304 266.672 520.768 267.599 520.304 267.599C517.986 266.208 515.668 264.817 515.668 261.572C515.668 260.182 516.595 258.327 515.668 256.936C515.204 256.473 514.741 256.937 514.277 256.009C514.741 254.619 514.277 253.228 514.741 251.837C514.741 250.91 515.668 249.983 516.132 249.055C517.986 244.883 518.913 238.393 519.84 233.293C520.304 230.048 521.695 225.876 521.695 224.022C521.695 222.631 520.304 221.24 520.768 220.313C521.231 218.458 524.013 218.459 525.867 218.459C529.112 216.141 532.357 213.359 533.748 208.723C533.285 207.796 533.285 206.405 532.821 205.014C532.357 205.014 532.357 205.942 531.43 205.478C530.503 204.087 532.357 202.233 531.894 201.306C530.967 201.306 530.503 202.233 529.576 201.769C529.576 199.915 530.967 198.988 530.503 197.597C529.576 197.133 529.112 198.988 528.185 198.061C528.649 196.67 529.112 195.743 530.039 194.352C530.039 193.888 528.649 193.888 528.649 193.888C529.112 192.497 530.039 192.034 530.039 190.643C528.649 190.18 528.185 192.034 527.258 191.107C527.258 189.252 528.649 189.252 529.112 187.862C528.185 187.398 528.185 188.325 527.258 187.862C527.721 186.471 528.649 186.471 529.112 185.544C528.649 185.544 528.185 186.007 527.721 185.08C528.185 184.153 527.258 184.153 527.258 183.226C527.721 182.762 529.112 182.762 528.649 181.835C528.185 181.371 526.794 182.299 526.794 181.371C526.331 179.981 527.721 178.59 526.794 176.735C527.258 175.808 527.721 175.808 527.721 174.881C527.258 174.418 526.794 174.417 526.331 173.954C525.403 171.172 521.695 170.245 519.84 167.927C520.304 167 522.158 168.391 522.158 167.464C522.158 165.609 519.84 165.609 519.84 163.755C520.304 163.291 521.231 164.682 521.695 163.755C522.158 162.364 520.304 160.51 522.158 160.046C522.158 160.51 522.158 162.364 522.622 162.828C525.403 166.073 528.185 171.172 532.821 170.709C536.066 170.709 540.702 169.782 544.411 170.245C546.729 170.709 548.583 170.245 550.437 170.709C552.755 170.709 555.073 171.636 557.391 172.1C565.736 173.027 575.008 175.808 581.961 179.517C586.134 176.272 593.088 180.908 598.187 181.835C600.969 180.908 603.75 180.908 606.068 179.98C608.386 179.053 612.095 175.345 613.022 173.49C613.485 172.099 613.486 170.709 613.949 169.782C614.876 168.391 615.803 167 616.731 165.609C618.121 163.291 618.585 160.973 620.439 158.655C618.121 157.265 615.803 155.874 614.876 154.02C615.803 152.165 613.949 151.238 614.413 150.311C616.267 149.847 617.658 151.702 619.049 151.702C619.512 150.311 617.658 149.384 618.585 147.993C620.439 147.993 620.903 149.847 622.757 150.774C624.148 151.238 625.539 151.238 626.466 152.165C626.93 152.165 627.393 151.702 627.857 150.774C626.466 147.529 624.148 145.675 621.83 142.893C616.731 141.039 613.022 139.185 607.922 137.33C600.505 132.694 595.869 125.741 588.915 120.641C587.524 118.787 587.061 116.005 585.207 114.614C585.207 113.224 584.743 111.833 584.743 110.442C582.889 108.124 580.571 105.806 579.643 102.561C579.18 101.634 578.716 98.8524 580.107 98.3888C581.034 101.634 581.498 104.879 584.279 106.733C582.889 102.561 584.743 89.117 589.379 91.435C589.379 92.8257 587.524 92.8256 586.597 94.68C585.67 97.4615 586.597 101.634 588.915 103.025C590.77 102.561 592.624 98.8524 594.942 100.707C589.379 104.879 586.597 105.806 585.67 109.515ZM598.187 103.488C600.505 103.025 603.287 100.243 605.605 98.8523C605.605 98.3887 605.605 98.3888 605.605 97.9252C602.359 96.5344 600.505 101.634 598.187 103.488ZM602.359 97.4616C601.896 97.4616 601.896 97.4616 601.432 97.9252C602.359 98.3888 602.359 98.3887 602.359 97.4616ZM600.041 117.859C599.578 118.787 600.041 119.25 600.505 119.714C600.969 119.25 601.896 119.25 601.896 117.859C601.432 117.859 600.505 117.396 600.041 117.859ZM599.578 131.767C602.359 132.231 604.677 132.231 606.995 131.304C605.605 129.913 604.214 128.522 602.823 127.131C602.359 127.595 602.823 128.059 602.359 128.059C602.823 126.204 600.969 124.813 600.505 123.423C598.651 123.423 597.723 124.813 596.333 125.277C594.015 128.522 598.187 129.913 599.578 131.767ZM602.823 134.549C604.214 135.012 604.214 136.403 606.532 136.403C606.995 135.012 608.386 135.012 608.85 133.622C607.459 133.622 604.677 133.622 602.823 134.549ZM610.24 136.867C609.777 137.794 608.85 137.33 608.85 138.257C609.313 138.721 610.704 139.648 611.631 139.185C611.168 138.257 610.704 137.33 610.24 136.867Z" fill="black"/>
<path fill-rule="evenodd" clip-rule="evenodd" d="M1436.82 162.828C1436.82 163.755 1434.97 163.755 1434.51 163.755C1431.26 163.755 1428.02 161.437 1424.77 160.973C1423.38 159.119 1421.06 158.655 1419.67 157.265C1421.99 161.9 1427.09 164.682 1431.26 167.927C1433.12 168.854 1435.43 168.854 1435.9 171.636C1434.51 172.099 1433.12 172.099 1431.72 172.099C1429.87 171.636 1428.48 170.245 1427.09 169.318C1424.77 168.391 1422.45 168.391 1421.06 166.536C1422.92 172.099 1425.7 177.662 1428.48 183.226C1430.33 186.471 1431.26 188.325 1432.65 192.497C1433.12 194.352 1434.04 196.206 1433.58 198.06C1435.43 202.233 1434.51 205.941 1434.97 210.577C1434.04 212.432 1432.65 213.822 1430.8 215.213C1427.55 217.531 1422.45 220.776 1417.35 220.313C1416.89 217.995 1418.74 217.995 1419.67 217.068C1419.21 215.677 1417.82 214.75 1417.82 212.895C1420.14 209.65 1423.84 214.75 1426.63 211.041C1427.09 210.577 1428.48 206.405 1428.48 205.478C1428.48 203.16 1427.55 200.842 1426.63 198.988C1425.23 195.742 1422.45 192.034 1420.6 188.789C1419.67 187.398 1419.67 186.471 1418.74 185.08C1416.89 182.298 1414.57 179.517 1412.72 176.272C1410.86 173.49 1408.55 170.709 1407.15 167.464C1404.84 162.828 1404.84 157.728 1403.45 152.629C1402.05 154.947 1399.74 161.9 1396.03 158.655C1396.49 155.874 1397.88 152.165 1396.49 149.847C1394.64 147.529 1390.47 147.529 1387.68 146.138C1385.83 145.211 1385.37 144.284 1383.98 143.82C1383.05 145.675 1384.44 147.993 1383.98 150.311C1383.51 153.092 1380.27 154.483 1379.34 156.337C1379.34 159.583 1378.41 162.364 1378.88 165.609C1378.88 166.536 1379.8 167.463 1380.27 168.391C1380.73 169.781 1379.8 171.636 1379.8 173.027C1379.8 174.881 1380.27 177.199 1380.27 179.517C1380.73 185.544 1380.27 192.961 1380.73 199.451C1381.19 205.941 1383.05 211.968 1382.12 217.068C1382.12 218.458 1382.12 219.386 1381.66 221.24C1381.19 224.485 1379.34 227.73 1379.34 230.048C1379.8 232.366 1381.66 233.757 1382.58 235.611C1387.22 235.148 1390.47 240.711 1388.15 243.956C1383.05 243.492 1378.41 246.737 1374.7 244.883C1373.78 244.883 1371.92 245.81 1370.99 244.883C1368.68 246.274 1365.43 244.883 1364.97 243.029C1364.5 239.783 1366.82 237.466 1365.89 233.757C1365.89 232.83 1364.97 231.902 1364.97 230.975C1364.04 226.803 1365.43 222.631 1364.97 217.995C1364.97 210.577 1362.65 203.16 1361.72 197.133C1359.87 202.233 1359.4 209.187 1358.48 215.213C1358.48 215.677 1357.55 216.14 1357.55 216.604C1357.09 219.386 1356.62 223.094 1355.23 226.339C1353.84 229.584 1351.06 235.611 1352.91 240.711C1353.84 242.565 1355.7 243.029 1357.55 243.956C1358.48 245.81 1359.4 247.201 1359.87 249.055C1356.62 252.3 1349.67 253.228 1343.64 253.691C1341.32 253.691 1339.01 253.228 1336.23 252.764C1333.44 250.446 1334.83 247.201 1336.23 244.419C1335.76 242.565 1334.83 240.247 1334.83 237.929C1334.83 236.075 1336.23 234.22 1336.69 232.366C1337.15 229.585 1336.69 226.339 1337.15 223.094C1337.62 219.386 1339.01 216.14 1339.01 212.895C1339.01 209.65 1339.47 205.478 1338.54 202.233C1337.62 198.988 1333.91 196.206 1334.83 190.179C1332.98 191.57 1330.2 193.888 1327.88 195.279C1324.17 197.133 1320.93 197.597 1317.68 198.988C1313.97 200.842 1310.73 203.16 1307.95 206.405C1307.48 207.332 1307.02 208.259 1306.56 209.187C1305.16 211.041 1304.24 212.432 1303.31 215.213C1303.77 218.458 1302.38 220.776 1303.77 224.021C1304.24 224.949 1304.7 225.412 1305.16 226.339C1305.63 227.267 1305.63 228.194 1306.09 229.585C1306.56 230.975 1307.48 232.366 1307.95 233.757C1308.41 236.075 1308.41 238.393 1308.87 240.247C1310.26 243.956 1314.44 246.274 1315.83 249.055C1317.22 251.837 1316.75 253.691 1315.36 255.546C1309.8 258.327 1302.85 258.791 1294.97 258.327C1293.58 256.936 1291.72 256.473 1290.33 255.082C1288.94 252.3 1291.26 249.519 1291.26 247.201C1291.26 243.956 1287.55 240.711 1287.55 237.466C1287.08 233.293 1290.79 229.585 1288.01 224.485C1286.62 227.73 1287.08 231.439 1286.16 235.148C1285.69 237.466 1284.3 238.393 1283.84 241.638C1283.84 243.029 1283.84 244.883 1283.84 245.347C1284.3 248.128 1288.94 249.519 1287.08 253.228C1285.69 254.155 1283.84 254.155 1282.91 256.009C1277.35 256.009 1273.64 255.546 1268.54 254.618C1266.69 252.3 1261.59 250.91 1261.59 247.201C1261.59 245.81 1262.51 243.492 1263.44 242.102C1262.98 238.856 1263.44 234.684 1264.83 232.366C1262.98 227.73 1260.66 224.021 1261.12 218.458C1261.12 216.604 1262.51 214.75 1262.05 212.895C1262.05 208.259 1259.73 203.623 1258.34 198.988C1257.42 195.742 1256.95 192.034 1256.02 188.789C1254.17 182.762 1252.32 178.126 1252.78 170.709C1252.78 169.318 1253.71 167.464 1254.17 165.609C1255.1 163.291 1255.1 160.51 1255.56 158.192C1257.42 156.337 1257.42 154.019 1257.88 151.702C1258.34 151.238 1258.81 150.774 1259.27 149.847C1259.73 148.92 1259.73 147.529 1260.2 146.602C1261.12 144.284 1262.51 141.966 1263.91 139.648C1263.91 139.185 1263.91 138.257 1264.37 137.794C1265.3 135.476 1267.15 133.158 1268.54 130.84C1269.93 128.522 1270.86 125.74 1272.25 123.423C1272.71 122.959 1273.64 122.495 1274.1 122.032C1274.57 121.104 1275.03 120.177 1275.49 119.714C1276.89 118.323 1278.74 117.396 1279.67 116.005C1281.99 116.005 1283.38 114.151 1284.77 113.223C1285.23 112.76 1285.69 113.223 1286.62 112.76C1287.55 112.296 1288.94 110.906 1290.33 110.442C1293.11 109.051 1295.89 108.124 1297.75 105.806C1299.6 105.806 1300.07 104.415 1301.46 104.879C1306.56 100.707 1316.75 100.707 1324.17 100.243C1326.03 99.3158 1328.81 99.7794 1331.13 99.3158C1333.44 98.8522 1335.3 98.3887 1337.15 97.9251C1338.54 97.9251 1340.4 97.9251 1341.79 97.9251C1343.64 97.4615 1345.5 96.5343 1347.35 98.3887C1349.67 98.8523 1352.91 98.3886 1353.38 99.7794C1358.48 99.7794 1362.19 102.561 1367.75 102.561C1369.14 101.17 1370.99 102.097 1371.46 100.707C1372.39 100.707 1371.46 101.17 1371.92 101.634C1372.85 99.7794 1374.7 100.243 1377.02 99.3158C1379.34 98.8522 1380.27 96.5343 1382.58 95.6071C1383.05 95.1435 1383.97 95.1435 1384.44 95.1435C1387.68 93.7527 1390.47 90.5076 1395.1 91.8983C1400.66 93.7527 1404.37 100.243 1406.69 106.27C1408.55 108.124 1409.94 109.978 1412.25 110.906C1415.04 113.687 1414.11 119.25 1415.5 123.886C1415.96 125.74 1416.43 128.058 1416.89 130.84C1417.82 135.476 1419.67 140.112 1417.35 144.284C1417.82 149.384 1420.6 151.238 1423.84 154.019C1427.09 157.265 1430.33 159.119 1434.04 161.437C1434.51 160.973 1436.82 161.9 1436.82 162.828ZM1415.5 154.019C1414.57 152.165 1413.64 148.92 1411.79 148.456C1413.18 150.774 1414.11 152.629 1415.5 154.019ZM1257.88 175.344C1258.34 179.517 1257.88 184.153 1259.27 188.325C1260.2 192.034 1262.05 195.279 1262.98 199.915C1263.44 202.696 1264.37 205.941 1264.37 209.187C1264.37 211.505 1263.91 213.823 1264.37 216.14C1264.83 217.531 1266.22 218.922 1266.69 220.313C1267.15 223.558 1267.15 225.876 1265.3 228.194C1265.3 229.121 1265.76 229.121 1265.76 230.048C1268.08 227.73 1268.08 224.021 1269.93 221.703C1269.93 216.604 1271.32 211.041 1270.4 205.941C1269.93 202.696 1268.08 198.988 1267.15 194.815C1265.3 186.934 1262.51 181.835 1258.81 177.199C1258.34 176.735 1258.34 175.808 1257.88 175.344C1257.42 175.344 1257.41 174.881 1257.41 174.881C1257.88 174.881 1257.88 174.881 1257.88 175.344ZM1264.83 225.412C1265.3 224.949 1264.83 224.022 1264.37 223.558C1263.91 224.022 1264.37 224.949 1264.83 225.412Z" fill="black"/>
<path d="M111.884 121.104C89.168 109.978 61.8162 108.587 36.7824 108.124C12.2121 107.197 16.3844 114.614 3.40391 116.005C-9.57661 117.396 -7.72225 109.978 -16.0669 103.488C-24.8751 96.9977 -62.8894 95.1433 -91.1684 105.806C-92.5592 106.269 -93.9499 106.733 -94.8771 107.197C-93.9499 97.925 -104.613 89.1167 -128.256 89.5803C-157.462 90.5074 -152.362 96.0706 -161.17 96.9977C-169.979 97.9249 -190.377 94.2163 -202.43 98.3886C-214.947 102.561 -226.537 110.905 -238.126 110.905C-249.716 110.905 -279.386 116.005 -274.286 133.621C-271.968 141.039 -263.16 143.357 -253.888 141.502C-252.034 144.748 -247.862 145.675 -243.689 145.675C-239.054 145.675 -234.881 145.675 -231.636 145.211C-230.245 146.602 -228.391 147.993 -226.537 149.383C-223.291 156.337 -217.728 160.973 -210.775 163.291C-205.675 167.463 -201.503 171.636 -198.258 174.417C-185.277 186.471 -161.634 206.869 -155.607 220.313V218.458C-155.144 219.385 -155.144 220.776 -154.68 221.703C-149.581 240.711 -151.435 345.482 -151.435 345.482C-146.799 348.727 -140.773 346.873 -140.773 346.873C-140.773 346.873 -140.773 256.936 -142.163 242.565C-140.309 226.803 -135.673 217.995 -131.964 209.187C-128.256 200.378 -115.275 173.954 -107.394 163.291C-106.003 163.291 -105.076 163.291 -103.685 163.755C-88.8505 178.59 -71.6976 197.597 -67.0617 206.869C-59.1807 222.631 -49.9089 313.494 -42.4915 342.7L-35.0741 343.164C-35.0741 343.164 -40.6371 282.434 -42.0279 274.089C-43.8823 265.744 -49.4453 237.002 -52.6905 230.048C-55.9356 223.094 -60.1079 205.014 -68.9161 194.352C-73.552 188.789 -85.6053 175.344 -97.6587 163.755C-97.1951 163.755 -96.2679 163.755 -95.8043 163.755C-79.1151 165.609 -69.8433 168.391 -55.472 171.172C-55.0084 174.417 -54.5448 177.662 -53.6176 179.98C-50.3725 191.57 -36.9284 223.558 -36.9284 223.558C-37.8556 235.611 -31.3653 331.574 -30.4382 343.628L-23.9479 345.482V288.924L-20.7028 344.091C-21.6299 339.919 -18.8484 264.817 -14.6761 247.201C-1.69559 233.757 17.7752 215.677 32.1465 204.551C47.9085 192.961 51.6173 190.643 58.5711 181.371C60.8891 178.59 64.5978 174.881 68.7701 171.172C74.3332 173.954 82.2142 176.735 94.7311 178.126C127.646 181.835 119.301 170.708 126.719 161.437C132.282 154.483 123.474 150.774 112.811 147.529C121.156 147.065 128.573 145.675 135.527 141.966C151.753 133.621 134.136 132.231 111.884 121.104ZM-19.312 234.22C-19.7756 226.803 -18.3848 219.385 -16.5305 214.75C-13.2853 207.796 1.54953 193.888 4.79466 180.444C5.25825 179.053 5.25827 177.662 5.72186 175.808C10.8213 175.808 15.4572 175.344 20.5567 174.881C15.9208 180.908 11.7485 186.007 8.96697 190.179C0.622355 202.233 -11.431 219.849 -19.312 234.22ZM-168.588 167C-169.515 165.609 -170.442 164.682 -171.369 162.828C-170.442 162.828 -169.515 162.828 -168.588 162.364C-168.588 164.218 -168.588 165.609 -168.588 167ZM-9.57662 176.272C-4.94072 176.272 -0.768407 176.272 3.86749 175.808C3.4039 179.053 2.47672 181.371 1.54954 183.225C-4.01354 191.57 -15.6033 205.014 -20.2392 213.359C-19.312 204.551 -15.6033 195.742 -11.431 185.543C-10.0402 182.298 -9.57662 179.053 -9.57662 176.272ZM-201.966 168.391C-202.894 167.463 -203.821 166.536 -205.211 165.145C-197.794 166.536 -188.986 165.609 -180.641 164.218C-178.787 163.755 -176.933 163.291 -174.615 163.291C-172.297 166.536 -170.442 169.318 -169.515 171.636C-167.197 178.126 -163.488 192.034 -159.316 206.405C-168.124 198.988 -195.476 174.417 -201.966 168.391ZM-165.343 173.026C-165.806 169.781 -165.806 166.073 -165.806 162.364C-159.316 161.9 -151.899 161.9 -144.481 161.9C-145.408 168.854 -146.336 175.344 -147.263 179.517C-149.117 189.252 -150.508 201.769 -151.435 208.723C-155.607 198.524 -162.098 180.907 -165.343 173.026ZM-140.773 208.723C-140.773 214.286 -142.163 217.995 -142.163 217.995L-144.945 226.803C-145.872 223.094 -146.799 219.849 -148.19 215.677C-145.872 200.842 -146.799 192.497 -143.09 173.49C-142.627 169.781 -141.7 166.073 -141.236 161.9C-136.6 161.9 -132.428 162.364 -128.256 162.364C-131.501 172.099 -135.209 179.98 -137.527 189.252C-140.773 202.696 -140.773 203.16 -140.773 208.723ZM-126.865 188.789C-132.428 198.06 -137.064 210.577 -137.064 210.577C-137.064 210.577 -137.991 197.133 -133.355 185.543C-131.501 181.371 -128.719 172.099 -125.474 162.828C-120.375 163.291 -115.275 163.291 -110.639 163.755C-115.739 172.099 -121.765 179.98 -126.865 188.789ZM-48.9817 176.272C-48.9817 175.344 -49.4453 174.417 -49.4453 173.49C-47.591 173.954 -45.7366 173.954 -43.4187 174.417C-41.5643 174.417 -40.1735 174.881 -38.3192 174.881C-37.8556 180.908 -37.392 186.471 -37.392 188.789C-37.392 193.888 -36.9284 203.16 -37.392 212.432C-41.1007 200.378 -46.6638 188.789 -48.9817 176.272ZM-32.2925 183.689C-32.2925 181.371 -32.7561 178.59 -33.2197 175.344C-26.7294 175.808 -19.312 176.272 -11.8946 176.272C-11.8946 177.199 -11.8946 177.662 -12.3582 178.126C-15.1397 187.861 -24.4115 204.087 -24.4115 212.895C-24.4115 217.067 -24.4115 220.313 -23.9479 223.094C-24.8751 226.339 -24.4115 230.048 -23.9479 235.611C-23.4843 237.929 -23.4843 239.783 -23.0207 241.638C-24.8751 245.347 -25.8023 249.055 -26.2658 251.837C-27.193 245.346 -28.1202 237.929 -29.0474 231.439C-30.9017 212.895 -30.9017 195.742 -32.2925 183.689ZM27.9742 205.014C22.4111 210.577 -5.8679 230.512 -10.9674 233.757C-10.0402 230.975 -9.11302 228.194 -8.18584 225.876C-2.62276 213.359 13.6029 190.179 25.1926 174.417C31.6829 173.954 38.1732 173.027 44.6634 172.099C47.445 171.636 50.2265 171.172 53.008 170.708C52.0808 174.417 50.6901 181.371 49.7629 185.543C42.3455 192.961 32.6101 200.378 27.9742 205.014ZM57.6439 178.59C56.7167 179.517 55.7896 180.444 54.8624 181.371C54.3988 180.444 53.9352 177.662 55.326 172.563C55.326 172.099 55.7895 171.636 55.7895 171.172C59.0347 170.709 62.2798 170.245 65.0613 169.781C65.5249 170.245 65.9885 170.245 66.9157 170.708C63.207 173.49 59.4983 176.272 57.6439 178.59Z" fill="black"/>
<path d="M385.403 137.794C373.35 131.767 358.515 131.304 345.071 130.84C331.627 130.376 333.945 134.549 326.991 135.012C320.037 135.939 320.964 131.767 316.328 128.522C311.693 124.813 290.831 123.886 275.996 129.913C275.069 130.376 274.605 130.376 273.678 130.84C274.142 125.74 268.579 121.105 255.598 121.568C239.836 122.032 242.618 125.277 237.982 125.277C233.346 125.74 222.22 123.886 215.729 126.204C209.239 128.522 202.749 132.694 196.722 132.694C190.232 132.694 174.47 135.476 177.252 144.748C178.179 148.92 183.278 149.847 188.378 148.92C189.305 150.774 191.623 151.238 193.941 151.238C196.259 151.238 198.577 151.238 200.431 151.238C201.358 152.165 202.285 152.629 203.213 153.556C205.067 157.265 207.848 159.583 211.557 160.973C214.339 163.291 216.657 165.609 218.511 167C225.465 173.49 238.445 184.616 241.691 191.57V190.643C241.691 191.107 242.154 192.034 242.154 192.497C244.936 202.696 244.008 259.254 244.008 259.254C246.326 261.109 249.572 260.182 249.572 260.182C249.572 260.182 249.572 211.505 248.644 204.087C249.572 195.743 252.353 190.643 254.207 186.007C256.062 181.371 263.016 167 267.188 161.437C267.652 161.437 268.579 161.437 269.042 161.437C276.923 169.318 286.195 179.517 288.977 184.616C293.149 192.961 298.248 242.102 301.957 257.864H305.666C305.666 257.864 302.884 224.949 301.957 220.776C301.03 216.14 297.785 200.842 296.394 197.133C294.54 193.425 292.222 183.689 287.586 178.126C285.268 174.881 278.314 167.927 272.287 161.9C272.751 161.9 273.215 161.9 273.215 161.9C282.023 162.828 287.122 164.682 295.003 166.073C295.003 167.927 295.467 169.318 295.931 170.709C297.785 177.199 304.739 193.888 304.739 193.888C304.275 200.378 307.52 251.837 308.447 258.791L312.156 259.254V228.657L314.011 258.327C313.547 256.009 314.938 215.677 317.256 206.405C324.21 198.988 334.872 189.252 342.29 183.689C350.634 177.199 352.952 176.272 356.661 171.172C358.052 169.781 359.906 167.464 362.224 165.609C365.005 167 369.178 168.854 376.132 169.318C393.748 171.172 389.576 165.609 393.284 160.51C396.066 156.801 391.43 154.947 385.867 153.092C390.503 152.629 394.212 152.165 397.92 149.847C406.728 144.748 397.457 143.82 385.403 137.794ZM314.474 198.524C314.011 194.352 314.938 190.643 315.865 188.325C317.719 184.616 325.6 177.199 327.455 169.781C327.455 168.854 327.918 168.391 327.918 167C330.7 167 333.018 166.536 335.799 166.536C333.481 169.781 331.163 172.563 329.773 174.881C325.137 181.835 318.646 191.107 314.474 198.524ZM234.273 162.364C233.809 161.9 233.346 160.973 232.882 160.046C233.346 160.046 233.809 160.046 234.273 160.046C234.273 160.973 234.273 161.9 234.273 162.364ZM319.574 167.464C321.892 167.464 324.209 167.464 326.991 167.464C326.527 169.318 326.064 170.709 325.6 171.172C322.355 175.808 316.328 182.762 314.011 187.398C314.474 182.762 316.328 177.663 318.646 172.563C319.574 170.709 319.574 168.854 319.574 167.464ZM216.193 163.291C215.73 162.828 215.266 162.364 214.339 161.437C218.511 161.9 223.147 161.9 227.319 160.973C228.246 160.973 229.637 160.51 230.564 160.51C231.955 162.364 232.882 163.755 233.346 165.146C234.737 168.854 236.591 176.272 238.909 183.689C234.273 179.517 219.438 166.536 216.193 163.291ZM236.127 166.073C236.127 164.218 235.664 162.364 235.664 160.51C239.373 160.51 243.081 160.046 247.254 160.51C246.79 164.218 246.326 167.927 245.863 170.245C244.936 175.808 244.008 182.298 243.545 186.007C241.227 179.517 237.518 169.781 236.127 166.073ZM249.108 185.08C249.108 187.861 248.181 190.179 248.181 190.179L246.79 194.815C246.326 192.961 245.863 191.107 244.936 188.789C245.863 180.908 245.863 176.272 247.717 166.073C248.181 164.218 248.181 161.9 248.644 159.582C250.962 159.582 253.28 159.582 255.598 160.046C253.744 165.146 251.889 169.318 250.499 174.417C249.108 181.835 249.108 182.298 249.108 185.08ZM256.525 174.417C253.744 179.517 250.962 186.007 250.962 186.007C250.962 186.007 250.499 178.59 252.817 172.563C253.744 170.245 255.598 165.609 256.989 160.046C259.771 160.046 262.552 160.51 264.87 160.51C262.552 165.609 259.307 169.318 256.525 174.417ZM298.712 167.464C298.712 167 298.712 166.536 298.248 166.073C299.176 166.073 300.566 166.536 301.494 166.536C302.421 166.536 303.348 166.536 304.275 167C304.739 170.245 304.739 173.027 304.739 174.417C304.739 177.199 304.739 182.298 304.739 186.934C302.884 180.444 299.639 174.417 298.712 167.464ZM307.52 171.636C307.52 170.245 307.057 168.854 307.057 167.464C310.765 167.927 314.474 167.927 318.646 167.927C318.646 168.391 318.646 168.854 318.646 168.854C317.256 173.954 312.156 182.762 312.156 187.398C312.156 189.716 312.156 191.57 312.156 192.961C311.693 194.815 311.693 196.67 312.156 199.915C312.156 201.306 312.62 202.233 312.62 203.16C311.693 205.478 311.229 207.332 310.765 208.723C310.302 205.014 309.838 201.306 309.375 197.597C308.447 187.398 308.447 178.126 307.52 171.636ZM339.972 183.226C336.726 186.471 321.892 196.67 319.11 198.988C319.574 197.597 320.037 196.206 320.501 194.815C323.282 187.861 332.091 175.808 338.581 167C342.29 166.536 345.535 166.073 348.78 165.609C350.171 165.146 352.025 165.146 353.416 165.146C352.952 167 352.025 171.172 351.561 173.027C347.853 176.272 342.29 180.444 339.972 183.226ZM355.734 168.854C355.27 169.318 354.806 169.782 354.343 170.245C353.879 169.782 353.879 168.391 354.806 165.146C354.806 164.682 354.806 164.682 355.27 164.218C357.124 164.218 358.515 163.755 360.369 163.755C360.833 163.755 360.833 164.218 361.297 164.218C358.979 166.073 357.124 167.463 355.734 168.854Z" fill="black"/>
</svg>
