<svg width="1920" height="377" viewBox="0 0 1920 377" fill="none" xmlns="http://www.w3.org/2000/svg">
<rect x="-178" y="167.858" width="2555" height="208.429" fill="#B03324"/>
<path d="M1743.63 20.6787C1655.42 -2.91416 1588.86 40.4664 1507.51 66.3424C1400.8 100.59 1284.59 154.625 1162.03 139.404C1055.33 126.466 968.168 69.3866 895.27 19.9176C818.146 -32.5956 763.737 30.5725 702.989 73.1919C613.187 136.36 524.442 149.298 418.264 102.112C349.064 70.9087 276.694 42.7495 210.664 8.50172C124.56 -36.4009 -5.79187 131.803 -178 194.21C52.3152 191.166 372.307 172.891 679.746 224.643C1398.69 131.033 2058.47 176.696 2377 252.041V190.395C2228.56 185.829 2077.48 126.466 1946.48 84.6079C1879.92 62.5371 1812.83 38.9442 1743.63 20.6787Z" fill="#B03324"/>
</svg>
