<svg width="277" height="277" viewBox="0 0 277 277" fill="none" xmlns="http://www.w3.org/2000/svg">
<path d="M239.971 138.486C239.971 165.401 229.279 191.215 210.247 210.247C191.215 229.279 165.401 239.971 138.486 239.971C111.57 239.971 85.7567 229.279 66.7244 210.247C47.6922 191.215 37 165.401 37 138.486C37 111.57 47.6922 85.7567 66.7244 66.7245C85.7567 47.6922 111.57 37 138.486 37C165.401 37 191.215 47.6922 210.247 66.7245C229.279 85.7567 239.971 111.57 239.971 138.486V138.486Z" fill="#FFFEE1"/>
<path d="M259 138.5C259 170.459 246.305 201.108 223.706 223.706C201.108 246.304 170.459 259 138.5 259C106.541 259 75.8917 246.304 53.2936 223.706C30.6955 201.108 18 170.459 18 138.5C18 106.541 30.6955 75.8918 53.2936 53.2936C75.8917 30.6955 106.541 18 138.5 18C170.459 18 201.108 30.6955 223.706 53.2936C246.305 75.8918 259 106.541 259 138.5V138.5Z" fill="#FFFEE1" fill-opacity="0.26"/>
<path d="M277 138.5C277 175.232 262.408 210.46 236.434 236.434C210.461 262.408 175.232 277 138.5 277C101.768 277 66.5395 262.408 40.5657 236.434C14.5919 210.46 0 175.232 0 138.5C0 101.768 14.5919 66.5395 40.5657 40.5657C66.5395 14.5919 101.768 0 138.5 0C175.232 0 210.461 14.5919 236.434 40.5657C262.408 66.5395 277 101.768 277 138.5V138.5Z" fill="#FFFEE1" fill-opacity="0.26"/>
</svg>
