<svg width="1992" height="1140" viewBox="0 0 1992 1140" fill="none" xmlns="http://www.w3.org/2000/svg">
<path d="M1456.05 913.554C1466.88 900.252 1477.99 887.086 1486.63 872.274C1495.41 857.326 1503.63 838.4 1503.77 820.709C1503.91 806.446 1497.19 791.497 1492.94 778.057C1487.86 762.286 1477.99 748.434 1466.74 736.503C1462.08 731.566 1456.18 727.314 1451.79 722.103C1447.68 717.166 1445.9 708.663 1439.45 705.783C1436.43 704.549 1434.1 706.057 1431.22 705.509C1428.07 704.823 1426.29 703.314 1423.54 701.806C1414.08 696.732 1403.79 690.972 1393.78 686.446C1381.58 680.96 1370.33 673.829 1356.89 670.4C1348.94 668.343 1342.49 662.583 1334.54 661.349C1324.53 659.703 1312.87 663.817 1303.41 666.286C1285.99 670.812 1263.36 672.183 1245.26 669.166C1231.95 666.972 1219.75 658.606 1206.17 658.743C1197.26 658.88 1188.07 657.783 1179.29 659.154C1167.22 661.074 1156.11 665.052 1143.77 666.423C1135.41 667.383 1127.04 667.794 1118.81 668.892C1100.98 671.223 1085.07 676.297 1066.83 675.337C1058.19 674.926 1050.1 670.537 1042.29 666.972C1029.39 660.937 1018.15 651.474 1004.71 647.36C989.349 642.697 972.48 648.732 957.257 644.48C948.343 642.012 943.131 635.292 936.137 630.08C929.691 625.28 918.857 622.4 910.903 620.892C902.126 619.246 891.154 619.657 882.24 620.892C871.406 622.4 860.297 622.4 849.6 624.457C833.28 627.612 810.926 627.886 794.743 623.909C785.143 621.577 777.874 616.092 768 614.034C757.029 611.84 745.371 611.566 734.949 607.314C726.583 604.023 721.234 597.44 714.103 592.777C706.834 588.114 696.823 587.429 688.594 585.372C675.154 581.943 661.989 582.903 648.549 580.023C638.949 577.966 630.583 572.892 621.943 568.229C603.429 558.492 589.029 545.6 567.223 543.406C559.543 542.583 557.486 543.132 550.903 538.743C544.869 534.629 538.011 532.434 531.566 529.28C521.006 524.069 513.874 514.057 503.451 508.434C495.771 504.183 486.994 502.537 478.354 502.4C464.777 502.263 452.434 501.166 438.857 498.972C430.629 497.6 423.086 496.777 414.72 496.914C396.343 497.189 377.829 497.052 359.314 497.052C353.143 497.052 347.109 497.052 340.937 497.052C334.491 497.052 330.24 498.56 324.206 499.52C319.543 500.343 314.331 500.069 309.669 499.109C302.263 497.6 295.406 497.737 287.863 496.777C279.909 495.817 270.034 492.252 263.177 488.137C256.869 484.297 252.48 478.126 246.446 473.874C240.823 470.034 236.16 464.549 230.4 460.983C219.429 454.4 205.029 455.497 192.823 455.634C177.189 455.634 162.24 458.24 147.017 460.709C139.749 461.806 136.32 460.023 129.737 457.417C120.96 453.989 110.949 453.577 101.623 452.343C83.7943 449.874 69.8057 443.703 54.0343 435.063C48.96 432.32 43.4743 430.263 38.1257 428.206C33.4629 426.423 27.84 426.423 23.7257 423.68C12.48 447.269 15.0857 478.812 13.8514 504.046C11.52 553.28 13.3029 604.709 19.0629 653.669C24.6857 701.806 36.3429 748.846 42.1029 796.983C47.3143 840.594 47.8629 884.48 53.0743 928.092C56.7771 959.36 62.6743 990.766 63.0857 1022.31C63.36 1048.09 52.6628 1077.99 65.1428 1102.13C70.7657 1113.1 84.48 1122.42 95.1771 1128.05C112.32 1137.1 131.52 1138.88 150.72 1139.43C184.32 1140.25 218.331 1136.55 251.794 1134.77C299.52 1132.16 347.52 1128.59 395.246 1128.05C481.509 1126.95 567.497 1137.37 653.76 1134.35C707.931 1132.43 761.829 1127.22 815.726 1123.11C860.983 1119.54 906.103 1116.53 950.949 1109.94C998.263 1102.95 1045.03 1092.25 1090.56 1077.17C1122.38 1066.61 1153.65 1054.26 1185.87 1044.8C1218.65 1035.34 1252.25 1027.93 1284.07 1015.18C1307.38 1005.85 1329.87 994.88 1352.23 983.635C1372.8 973.212 1393.78 963.063 1413.81 951.543C1430.81 941.532 1443.57 928.914 1456.05 913.554Z" fill="black" fill-opacity="0.29"/>
<path d="M17.3238 818.868V810.774H23.0082V815.765C23.0082 815.765 46.9638 812.933 76.4684 806.862C105.973 800.792 152.125 781.906 152.125 781.906V777.32H160.651V768.686C160.651 768.686 153.478 768.686 152.801 768.686C152.125 768.686 152.801 765.584 152.801 765.584H160.651V756.95H151.448V751.959C151.448 751.959 155.644 751.959 162.546 751.959C169.449 751.959 184.201 747.642 184.201 747.642V731.994H180.276V724.71H161.463V721.742H166.2V718.235C166.2 718.235 131.959 716.751 124.109 716.751C115.988 720.663 110.981 721.472 110.981 721.472H109.627V713.243H119.237V707.578C119.237 707.578 82.1528 704.745 58.6032 701.238C50.7534 702.587 44.9336 702.991 44.9336 702.991H42.0914V697.326H36.407L28.8279 690.85V687.343H44.3923V679.519H51.9714V683.026C51.9714 683.026 103.266 680.194 166.471 653.619C166.471 647.144 166.471 645.39 166.471 645.39H159.704V641.748H167.283V634.194H158.757V630.686H200.171V614.633H194.893V610.991H196.788V609.238L194.622 606.675H171.479V603.842H176.216V599.93H162.681V596.827H150.636C150.636 596.827 141.027 603.842 132.5 605.326C131.147 605.326 131.147 605.326 131.147 605.326V598.85H135.748V590.757L126.816 581.584V579.56H135.342V576.997C135.342 576.997 110.304 578.076 86.6191 575.108C68.4832 576.457 66.5884 576.188 66.5884 576.188V569.173H64.1522L58.8739 563.777V560.135H68.7539L73.4909 557.032V547.05H79.4459V551.636C79.4459 551.636 101.913 544.487 141.568 527.76C181.223 511.032 249.977 474.205 249.977 474.205V471.642H255.932V462.334H264.053V453.566H265.542V451.812H268.79V448.575H271.361V445.742H265V439.672H262.564V436.164H271.226V429.419H261.887V424.833H271.226V418.493H261.887V413.906H271.226V407.701H261.887V403.114H271.226V399.067H261.887V394.481H271.226V390.434H261.887V385.848H271.226V379.507H261.887V374.921H271.226V368.581H261.887V363.994H271.226V357.654H261.887V353.067H271.226V349.56H261.887V344.974H271.226V338.633H264.188L267.03 316.375L271.226 313.408V306.663H269.196V302.481H271.226V297.894H269.196V293.713H271.226V284H275.151V293.713H277.587V297.894H275.422V302.481H277.587V306.663H275.422V313.003L280.429 315.971L282.595 338.633H275.422V344.974H285.708V349.56H275.422V353.067H285.708V357.654H275.422V363.994H285.708V368.581H275.422V374.921H285.708V379.507H275.422V385.848H285.708V390.434H275.422V394.481H285.708V399.067H275.422V403.114H285.708V407.701H275.422V414.041H285.708V418.628H275.422V424.968H285.708V429.554H275.422V436.299H285.031V439.806H282.459V445.877H275.422V448.71H279.617V453.026H281.512V454.106H283.948V462.199H291.527V472.047H296.129L296.806 475.554C296.806 475.554 427.276 545.161 446.088 552.985C446.088 549.073 446.088 549.073 446.088 549.073L453.938 550.827V559.056L467.066 561.484L458.81 569.713L460.164 575.378H437.968V577.537H409.546L401.29 585.765L402.102 594.399L406.839 597.906L406.433 602.628L387.214 596.153L386.402 602.628L374.628 597.367L372.462 604.786H347.559L345.8 610.047L345.394 627.853H384.237V632.035H373.951V637.836H382.071V642.422H374.222V647.818C374.222 647.818 441.351 668.862 470.179 669.132C470.179 666.299 471.262 664.95 471.262 664.95C471.262 664.95 479.518 668.188 478.841 673.853C482.766 674.528 490.887 673.853 490.887 673.853V677.091C490.887 677.091 484.796 682.082 480.601 684.645C480.601 689.232 480.601 689.232 480.601 689.232H472.074C472.074 689.232 467.472 692.874 465.307 693.413C465.307 698.809 465.307 701.238 465.307 701.238H461.788V695.572C461.788 695.572 437.968 702.721 424.027 705.824C424.027 710.411 424.027 710.411 424.027 710.411H420.373V707.982C420.373 707.982 409.275 711.085 401.019 710.411C401.019 715.807 401.019 719.314 401.019 719.314H397.094L383.425 711.49C383.425 711.49 378.823 712.569 378.688 713.243C378.417 713.918 378.688 723.9 378.688 723.9H375.575L365.56 718.639V730.78H361.635V724.035H358.792V742.111H390.057V745.214H380.447V753.847H388.703V757.355H380.041V766.258C380.041 766.258 455.562 787.167 492.375 785.414C492.375 782.446 492.375 782.446 492.375 782.446C492.375 782.446 499.142 780.018 501.579 788.111C506.18 789.46 512 788.111 512 788.111V791.619L506.316 795.801V803.894H497.383C497.383 803.894 492.375 808.751 490.345 810.37C490.345 816.17 490.345 816.17 490.345 816.17H483.172C483.172 816.17 425.787 850.974 414.824 854.886C403.861 858.798 391.545 860.147 391.545 860.147V869.724H382.883V933.261L322.385 974L156.862 955.924V862.845H154.02V855.29C154.02 855.29 128.304 856.639 119.372 855.695C119.372 852.457 119.372 852.053 119.372 852.053H124.65V848.815H99.3412C99.3412 848.815 91.4914 851.648 84.4536 852.727C84.4536 846.252 84.4536 846.252 84.4536 846.252L88.1078 845.982L89.1905 841.396C89.1905 841.396 53.4602 837.079 27.8805 832.493C14.7523 834.651 8.93257 835.595 8.93257 835.595V829.525L5.66131e-06 821.701V819.138H17.3238V818.868ZM179.329 715.132H177.434L173.644 718.909V719.584C173.644 719.584 180.682 719.584 180.953 719.584L179.329 715.132ZM171.885 580.639H152.26L144.41 589.947V593.859L171.885 584.551V580.639ZM195.57 600.199L191.645 598.311H187.72L185.284 600.065V601.953H195.57V600.199V600.199ZM377.74 585.631C382.613 589.812 393.305 591.971 393.305 591.971L394.658 589.138L389.38 580.639H377.876C377.74 580.639 377.74 581.853 377.74 585.631ZM361.905 754.657L375.981 754.117V745.754H372.868C372.868 745.754 365.966 750.205 361.905 751.554C361.905 754.657 361.905 754.657 361.905 754.657ZM359.334 748.317C365.424 747.777 368.943 745.754 368.943 745.754H359.334V748.317ZM346.07 637.971H369.485V631.226H361.229V632.575H349.86L346.07 635.677V637.971ZM183.524 751.15L174.862 753.443H183.524V751.15ZM165.118 765.449H167.148L183.524 761.132V756.815H165.253V765.449H165.118Z" fill="#4A2626"/>
<path d="M1847.46 665.354V659.946H1843.68V663.281C1843.68 663.281 1827.72 661.388 1808.07 657.333C1788.42 653.277 1757.68 640.659 1757.68 640.659V637.595H1752V631.827C1752 631.827 1756.78 631.827 1757.23 631.827C1757.68 631.827 1757.23 629.754 1757.23 629.754H1752V623.986H1758.13V620.651C1758.13 620.651 1755.34 620.651 1750.74 620.651C1746.14 620.651 1736.32 617.767 1736.32 617.767V607.312H1738.93V602.445H1751.46V600.462H1748.31V598.119C1748.31 598.119 1771.11 597.128 1776.34 597.128C1781.75 599.741 1785.09 600.282 1785.09 600.282H1785.99V594.784H1779.59V590.999C1779.59 590.999 1804.28 589.106 1819.97 586.763C1825.2 587.664 1829.07 587.935 1829.07 587.935H1830.97V584.149H1834.75L1839.8 579.823V577.48H1829.43V572.253H1824.39V574.596C1824.39 574.596 1790.22 572.703 1748.13 554.948C1748.13 550.622 1748.13 549.45 1748.13 549.45H1752.63V547.017H1747.59V541.97H1753.27V539.627H1725.68V528.901H1729.2V526.468H1727.94V525.296L1729.38 523.584H1744.79V521.691H1741.64V519.078H1750.65V517.005H1758.67C1758.67 517.005 1765.07 521.691 1770.75 522.683C1771.65 522.683 1771.65 522.683 1771.65 522.683V518.357H1768.59V512.949L1774.54 506.82V505.468H1768.86V503.756C1768.86 503.756 1785.54 504.477 1801.31 502.494C1813.39 503.395 1814.65 503.215 1814.65 503.215V498.529H1816.27L1819.79 494.924V492.49H1813.21L1810.05 490.417V483.748H1806.09V486.812C1806.09 486.812 1791.12 482.035 1764.71 470.86C1738.3 459.684 1692.51 435.079 1692.51 435.079V433.367H1688.55V427.148H1683.14V421.29H1682.15V420.118H1679.98V417.955H1678.27V416.062H1682.51V412.007H1684.13V409.663H1678.36V405.157H1684.58V402.093H1678.36V397.857H1684.58V394.792H1678.36V390.647H1684.58V387.582H1678.36V384.878H1684.58V381.814H1678.36V379.11H1684.58V376.046H1678.36V371.81H1684.58V368.746H1678.36V364.51H1684.58V361.445H1678.36V357.209H1684.58V354.145H1678.36V351.802H1684.58V348.737H1678.36V344.501H1683.05L1681.15 329.63L1678.36 327.648V323.141H1679.71V320.347H1678.36V317.283H1679.71V314.489H1678.36V308H1675.75V314.489H1674.12V317.283H1675.56V320.347H1674.12V323.141H1675.56V327.377L1672.23 329.36L1670.79 344.501H1675.56V348.737H1668.71V351.802H1675.56V354.145H1668.71V357.209H1675.56V361.445H1668.71V364.51H1675.56V368.746H1668.71V371.81H1675.56V376.046H1668.71V379.11H1675.56V381.814H1668.71V384.878H1675.56V387.582H1668.71V390.647H1675.56V394.883H1668.71V397.947H1675.56V402.183H1668.71V405.247H1675.56V409.753H1669.16V412.097H1670.88V416.152H1675.56V418.045H1672.77V420.929H1671.51V421.65H1669.89V427.058H1664.84V433.637H1661.77L1661.32 435.98C1661.32 435.98 1574.43 482.486 1561.9 487.713C1561.9 485.1 1561.9 485.1 1561.9 485.1L1556.67 486.271V491.769L1547.93 493.391L1553.43 498.889L1552.52 502.674H1567.31V504.117H1586.24L1591.73 509.614L1591.19 515.382L1588.04 517.726L1588.31 520.88L1601.11 516.554L1601.65 520.88L1609.49 517.365L1610.93 522.322H1627.52L1628.69 525.837L1628.96 537.734H1603.09V540.528H1609.94V544.403H1604.53V547.468H1609.76V551.073C1609.76 551.073 1565.05 565.133 1545.85 565.313C1545.85 563.42 1545.13 562.519 1545.13 562.519C1545.13 562.519 1539.63 564.682 1540.08 568.467C1537.47 568.918 1532.06 568.467 1532.06 568.467V570.63C1532.06 570.63 1536.12 573.965 1538.91 575.677C1538.91 578.742 1538.91 578.742 1538.91 578.742H1544.59C1544.59 578.742 1547.66 581.175 1549.1 581.536C1549.1 585.141 1549.1 586.763 1549.1 586.763H1551.44V582.978C1551.44 582.978 1567.31 587.754 1576.59 589.827C1576.59 592.892 1576.59 592.892 1576.59 592.892H1579.02V591.269C1579.02 591.269 1586.42 593.342 1591.91 592.892C1591.91 596.497 1591.91 598.84 1591.91 598.84H1594.53L1603.63 593.613C1603.63 593.613 1606.7 594.334 1606.79 594.784C1606.97 595.235 1606.79 601.904 1606.79 601.904H1608.86L1615.53 598.389V606.501H1618.15V601.995H1620.04V614.072H1599.22V616.144H1605.62V621.913H1600.12V624.256H1605.89V630.204C1605.89 630.204 1555.59 644.174 1531.07 643.002C1531.07 641.02 1531.07 641.02 1531.07 641.02C1531.07 641.02 1526.56 639.397 1524.94 644.805C1521.88 645.706 1518 644.805 1518 644.805V647.148L1521.79 649.942V655.35H1527.74C1527.74 655.35 1531.07 658.594 1532.42 659.676C1532.42 663.551 1532.42 663.551 1532.42 663.551H1537.2C1537.2 663.551 1575.42 686.804 1582.72 689.418C1590.02 692.031 1598.22 692.933 1598.22 692.933V699.332H1603.99V741.782L1644.29 769L1754.53 756.923V694.735H1756.42V689.688C1756.42 689.688 1773.55 690.589 1779.5 689.959C1779.5 687.795 1779.5 687.525 1779.5 687.525H1775.98V685.362H1792.84C1792.84 685.362 1798.07 687.255 1802.75 687.976C1802.75 683.65 1802.75 683.65 1802.75 683.65L1800.32 683.469L1799.6 680.405C1799.6 680.405 1823.39 677.521 1840.43 674.457C1849.17 675.899 1853.05 676.53 1853.05 676.53V672.474L1859 667.247V665.534H1847.46V665.354ZM1739.56 596.046H1740.83L1743.35 598.57V599.02C1743.35 599.02 1738.66 599.02 1738.48 599.02L1739.56 596.046ZM1744.52 506.189H1757.59L1762.82 512.408V515.022L1744.52 508.803V506.189ZM1728.75 519.258L1731.36 517.996H1733.98L1735.6 519.168V520.43H1728.75V519.258V519.258ZM1607.42 509.524C1604.17 512.318 1597.05 513.76 1597.05 513.76L1596.15 511.867L1599.67 506.189H1607.33C1607.42 506.189 1607.42 507.001 1607.42 509.524ZM1617.97 622.453L1608.59 622.093V616.505H1610.66C1610.66 616.505 1615.26 619.479 1617.97 620.38C1617.97 622.453 1617.97 622.453 1617.97 622.453ZM1619.68 618.217C1615.62 617.857 1613.28 616.505 1613.28 616.505H1619.68V618.217ZM1628.51 544.493H1612.92V539.987H1618.42V540.888H1625.99L1628.51 542.961V544.493ZM1736.77 620.11L1742.54 621.642H1736.77V620.11ZM1749.03 629.664H1747.68L1736.77 626.779V623.895H1748.94V629.664H1749.03Z" fill="#A35050"/>
</svg>
