<svg width="1780" height="598" viewBox="0 0 1780 598" fill="none" xmlns="http://www.w3.org/2000/svg">
<path d="M1216.97 416.291C1215.59 415.331 1214.36 414.508 1212.99 413.548C1213.95 413 1214.77 412.451 1215.73 411.765C1216.14 411.491 1216.01 411.08 1215.73 410.805C1212.85 408.885 1209.56 407.788 1206.27 407.514C1207.64 403.674 1207.64 399.56 1206.68 395.582C1206.27 393.937 1205.72 392.428 1205.03 390.92C1204.62 389.96 1203.94 388.725 1202.7 388.588C1201.33 388.451 1200.23 389.822 1199.41 390.645C1198.45 391.605 1197.63 392.702 1196.81 393.8C1195.98 392.154 1194.89 390.508 1193.51 389.137C1193.38 389 1192.97 388.862 1192.83 389.137C1190.09 392.154 1188.17 395.857 1187.07 399.697C1186.38 399.011 1185.7 398.325 1185.01 397.64C1182.13 395.171 1178.57 393.525 1174.59 393.525C1174.31 393.525 1174.18 393.662 1174.04 393.937C1173.22 396.542 1172.81 399.285 1172.67 402.028C1171.57 401.617 1170.47 401.068 1169.38 400.657C1169.1 400.52 1168.69 400.657 1168.55 400.931C1167.87 405.045 1169.65 408.748 1172.67 411.491C1170.2 411.902 1167.73 412.588 1165.54 413.548C1165.13 413.685 1165.26 414.371 1165.67 414.508C1167.46 415.194 1169.1 416.017 1170.75 416.84C1168.69 417.8 1166.91 419.171 1165.54 421.228C1165.4 421.365 1165.4 421.64 1165.54 421.777C1167.73 425.754 1171.98 428.634 1176.51 429.32C1179.66 429.731 1182.54 429.045 1185.01 427.4C1184.46 431.24 1185.15 435.354 1187.07 438.92C1187.21 439.194 1187.62 439.331 1187.89 439.057C1188.99 437.822 1189.81 436.451 1190.5 434.942C1191.32 436.314 1192.01 437.685 1192.55 439.194C1192.69 439.468 1192.97 439.742 1193.38 439.468C1198.31 436.451 1201.61 431.102 1201.74 425.342C1201.74 424.794 1201.74 424.382 1201.74 423.834C1204.9 424.382 1208.19 423.834 1211.21 422.325C1213.67 421.091 1215.87 419.171 1217.38 416.702C1217.38 416.702 1217.24 416.428 1216.97 416.291Z" fill="#F0A49C"/>
<path d="M1246.59 441.937C1245.22 440.977 1243.98 440.154 1242.61 439.194C1243.57 438.646 1244.39 438.097 1245.35 437.411C1245.77 437.137 1245.63 436.726 1245.35 436.451C1242.47 434.531 1239.18 433.434 1235.89 433.16C1237.26 429.32 1237.26 425.206 1236.3 421.228C1235.89 419.583 1235.34 418.074 1234.66 416.566C1234.25 415.606 1233.56 414.371 1232.33 414.234C1230.95 414.097 1229.86 415.468 1229.03 416.291C1228.07 417.251 1227.25 418.348 1226.43 419.446C1225.61 417.8 1224.51 416.154 1223.14 414.783C1223 414.646 1222.59 414.508 1222.45 414.783C1219.71 417.8 1217.79 421.503 1216.69 425.343C1216.01 424.657 1215.32 423.971 1214.63 423.286C1211.75 420.817 1208.19 419.171 1204.21 419.171C1203.94 419.171 1203.8 419.308 1203.66 419.583C1202.84 422.188 1202.43 424.931 1202.29 427.674C1201.19 427.263 1200.1 426.714 1199 426.303C1198.73 426.166 1198.31 426.303 1198.18 426.577C1197.49 430.691 1199.27 434.394 1202.29 437.137C1199.82 437.548 1197.35 438.234 1195.16 439.194C1194.75 439.331 1194.89 440.017 1195.3 440.154C1197.08 440.84 1198.73 441.663 1200.37 442.486C1198.31 443.446 1196.53 444.817 1195.16 446.874C1195.02 447.011 1195.02 447.286 1195.16 447.423C1197.35 451.4 1201.61 454.28 1206.13 454.966C1209.29 455.377 1212.17 454.691 1214.63 453.046C1214.09 456.886 1214.77 461 1216.69 464.566C1216.83 464.84 1217.24 464.977 1217.51 464.703C1218.61 463.468 1219.43 462.097 1220.12 460.588C1220.94 461.96 1221.63 463.331 1222.18 464.84C1222.31 465.114 1222.59 465.388 1223 465.114C1227.94 462.097 1231.23 456.748 1231.37 450.988C1231.37 450.44 1231.37 450.028 1231.37 449.48C1234.52 450.028 1237.81 449.48 1240.83 447.971C1243.3 446.737 1245.49 444.817 1247 442.348C1246.86 442.348 1246.86 442.074 1246.59 441.937Z" fill="#E86F6E"/>
<path d="M513.835 533.686C512.463 533.686 511.229 533.686 509.858 533.686C510.269 532.863 510.543 532.04 510.955 531.217C511.092 530.943 510.818 530.669 510.543 530.669C507.8 530.669 504.92 531.491 502.589 532.863C501.766 529.709 499.846 526.829 497.378 524.634C496.418 523.674 495.32 522.989 494.086 522.166C493.263 521.754 492.303 521.206 491.343 521.617C490.383 522.166 490.246 523.537 490.109 524.634C489.972 525.731 489.835 526.829 489.835 527.926C488.463 527.103 487.092 526.554 485.446 526.28C485.172 526.28 485.035 526.417 484.898 526.554C484.486 529.846 484.76 533.274 485.858 536.429C485.035 536.291 484.349 536.154 483.526 536.017C480.372 535.606 477.218 536.154 474.612 538.074C474.475 538.211 474.338 538.349 474.475 538.623C475.16 540.817 476.12 542.737 477.218 544.657C476.258 544.794 475.298 545.069 474.338 545.206C474.063 545.206 473.789 545.48 473.926 545.754C475.298 548.909 478.315 550.554 481.606 551.103C480.098 552.474 478.726 554.12 477.766 555.903C477.492 556.314 478.04 556.589 478.315 556.451C479.823 556.04 481.332 555.903 482.84 555.766C481.88 557.411 481.332 559.194 481.332 561.114C481.332 561.251 481.469 561.389 481.606 561.526C484.898 563.171 489.149 563.171 492.44 561.526C494.772 560.429 496.418 558.509 497.378 556.314C498.886 559.194 501.08 561.663 504.098 563.171C504.372 563.309 504.646 563.171 504.646 562.897C504.783 561.526 504.783 560.154 504.509 558.92C505.743 559.469 506.84 560.017 507.8 560.84C508.075 560.977 508.349 560.977 508.486 560.703C510.406 556.451 510.132 551.24 507.526 547.263C507.252 546.851 507.115 546.577 506.84 546.303C509.172 545.206 511.229 543.286 512.463 540.954C513.56 538.897 514.109 536.566 514.109 534.371C514.246 533.823 514.109 533.686 513.835 533.686Z" fill="#EE9991"/>
<path d="M608.874 352.932C607.503 351.972 606.269 351.149 604.897 350.189C605.857 349.64 606.68 349.092 607.64 348.406C608.051 348.132 607.914 347.72 607.64 347.446C604.76 345.526 601.469 344.429 598.177 344.154C599.549 340.314 599.549 336.2 598.589 332.223C598.177 330.577 597.629 329.069 596.943 327.56C596.531 326.6 595.846 325.366 594.611 325.229C593.24 325.092 592.143 326.463 591.32 327.286C590.36 328.246 589.537 329.343 588.714 330.44C587.891 328.794 586.794 327.149 585.423 325.777C585.286 325.64 584.874 325.503 584.737 325.777C581.994 328.795 580.074 332.497 578.977 336.337C578.291 335.652 577.606 334.966 576.92 334.28C574.04 331.812 570.474 330.166 566.497 330.166C566.223 330.166 566.086 330.303 565.949 330.577C565.126 333.183 564.714 335.926 564.577 338.669C563.48 338.257 562.383 337.709 561.286 337.297C561.011 337.16 560.6 337.297 560.463 337.572C559.777 341.686 561.56 345.389 564.577 348.132C562.109 348.543 559.64 349.229 557.446 350.189C557.034 350.326 557.171 351.012 557.583 351.149C559.366 351.835 561.011 352.657 562.657 353.48C560.6 354.44 558.817 355.812 557.446 357.869C557.309 358.006 557.309 358.28 557.446 358.417C559.64 362.395 563.891 365.275 568.417 365.96C571.571 366.372 574.451 365.686 576.92 364.04C576.371 367.88 577.057 371.995 578.977 375.56C579.114 375.835 579.526 375.972 579.8 375.697C580.897 374.463 581.72 373.092 582.406 371.583C583.229 372.954 583.914 374.326 584.463 375.835C584.6 376.109 584.874 376.383 585.286 376.109C590.223 373.092 593.514 367.743 593.651 361.983C593.651 361.434 593.651 361.023 593.651 360.475C596.806 361.023 600.097 360.474 603.114 358.966C605.583 357.732 607.777 355.812 609.286 353.343C609.149 353.48 609.149 353.069 608.874 352.932Z" fill="#EE9891"/>
<path d="M1077.22 351.56C1075.98 351.972 1074.61 351.286 1074.2 349.914C1073.79 348.406 1075.16 347.034 1076.53 346.897C1077.22 346.897 1077.35 345.937 1076.67 345.663C1072.14 344.429 1066.66 343.194 1062.27 345.252C1064.87 340.452 1065.56 334.692 1064.05 329.48C1063.91 329.069 1063.37 328.932 1062.95 329.206C1061.72 330.303 1060.49 331.126 1059.11 331.949C1058.98 330.714 1058.84 329.48 1058.7 328.383C1058.7 327.972 1058.15 327.56 1057.74 327.834C1053.22 330.303 1050.06 334.966 1049.24 339.903C1047.59 334.417 1044.85 329.206 1039.09 327.149C1038.82 327.012 1038.41 327.286 1038.27 327.56C1037.99 329.206 1037.72 330.989 1037.45 332.634C1036.07 331.674 1034.84 330.714 1033.47 329.892C1033.19 329.617 1032.65 329.892 1032.51 330.303C1031 336.474 1032.65 343.194 1036.49 348.269C1034.98 348.269 1033.47 348.406 1031.82 348.68C1030.31 348.954 1028.94 349.366 1027.43 350.052C1026.2 350.6 1024.55 351.286 1023.87 352.383C1022.09 355.126 1024.83 357.32 1027.02 358.554C1025.51 359.652 1024.14 361.023 1023.05 362.532C1022.77 362.806 1023.05 363.354 1023.46 363.492C1030.73 364.589 1039.37 365.686 1045.13 360.474C1045.26 364.04 1045.95 367.606 1048.14 370.486C1050.34 373.366 1053.77 375.149 1057.47 374.6C1057.74 374.6 1057.88 374.326 1057.88 374.189C1058.29 373.092 1058.7 371.994 1059.11 371.034C1059.39 371.72 1059.8 372.269 1060.07 372.954C1060.35 373.366 1060.9 373.366 1061.17 372.954C1063.78 368.703 1063.37 363.08 1060.62 359.103C1066.79 361.297 1074.47 358.692 1077.49 352.657C1078.04 352.109 1077.77 351.423 1077.22 351.56Z" fill="#F8D8D2"/>
<path d="M443.206 431.926C441.971 432.337 440.6 431.652 440.189 430.28C439.777 428.772 441.149 427.4 442.52 427.263C443.206 427.263 443.343 426.303 442.657 426.029C438.131 424.795 432.646 423.56 428.257 425.617C430.863 420.817 431.549 415.057 430.04 409.846C429.903 409.435 429.354 409.297 428.943 409.572C427.709 410.669 426.474 411.492 425.103 412.315C424.966 411.08 424.829 409.846 424.691 408.749C424.691 408.337 424.143 407.926 423.731 408.2C419.206 410.669 416.051 415.332 415.229 420.269C413.583 414.783 410.84 409.572 405.08 407.515C404.806 407.377 404.394 407.652 404.257 407.926C403.983 409.572 403.709 411.355 403.434 413C402.063 412.04 400.829 411.08 399.457 410.257C399.183 409.983 398.634 410.257 398.497 410.669C396.989 416.84 398.634 423.56 402.474 428.635C400.966 428.635 399.457 428.772 397.811 429.046C396.303 429.32 394.931 429.732 393.423 430.417C392.189 430.966 390.543 431.652 389.857 432.749C388.074 435.492 390.817 437.686 393.011 438.92C391.503 440.017 390.131 441.389 389.034 442.897C388.76 443.172 389.034 443.72 389.446 443.857C396.714 444.955 405.354 446.052 411.114 440.84C411.251 444.406 411.937 447.972 414.131 450.852C416.326 453.732 419.754 455.514 423.457 454.966C423.731 454.966 423.869 454.692 423.869 454.554C424.28 453.457 424.691 452.36 425.103 451.4C425.377 452.086 425.789 452.635 426.063 453.32C426.337 453.732 426.886 453.732 427.16 453.32C429.766 449.069 429.354 443.446 426.611 439.469C432.783 441.663 440.463 439.057 443.48 433.023C444.166 432.474 443.754 431.789 443.206 431.926Z" fill="#F8D8D2"/>
<path d="M315.937 383.514C314.703 383.926 313.331 383.24 312.92 381.869C312.509 380.36 313.88 378.989 315.251 378.851C315.937 378.851 316.074 377.891 315.389 377.617C310.863 376.383 305.377 375.149 300.989 377.206C303.594 372.406 304.28 366.646 302.771 361.434C302.634 361.023 302.086 360.886 301.674 361.16C300.44 362.257 299.206 363.08 297.834 363.903C297.697 362.669 297.56 361.434 297.423 360.337C297.423 359.926 296.874 359.514 296.463 359.789C291.937 362.257 288.783 366.92 287.96 371.857C286.314 366.371 283.571 361.16 277.811 359.103C277.537 358.966 277.126 359.24 276.989 359.514C276.714 361.16 276.44 362.943 276.166 364.589C274.794 363.629 273.56 362.669 272.189 361.846C271.914 361.571 271.366 361.846 271.229 362.257C269.72 368.429 271.366 375.149 275.206 380.223C273.697 380.223 272.189 380.36 270.543 380.634C269.034 380.909 267.663 381.32 266.154 382.006C264.92 382.554 263.274 383.24 262.589 384.337C260.806 387.08 263.549 389.274 265.743 390.509C264.234 391.606 262.863 392.977 261.766 394.486C261.491 394.76 261.766 395.309 262.177 395.446C269.446 396.543 278.086 397.64 283.846 392.429C283.983 395.994 284.669 399.56 286.863 402.44C289.057 405.32 292.486 407.103 296.189 406.554C296.463 406.554 296.6 406.28 296.6 406.143C297.011 405.046 297.423 403.949 297.834 402.989C298.109 403.674 298.52 404.223 298.794 404.909C299.069 405.32 299.617 405.32 299.891 404.909C302.497 400.657 302.086 395.034 299.343 391.057C305.514 393.251 313.194 390.646 316.211 384.611C316.897 383.926 316.486 383.377 315.937 383.514Z" fill="#FCECE9"/>
<path d="M1724.94 377.343C1723.98 378.166 1722.34 378.166 1721.51 377.069C1720.55 375.834 1721.24 374.051 1722.47 373.366C1723.02 373.091 1722.89 372.132 1722.2 372.132C1717.54 372.817 1712.05 373.777 1708.9 377.48C1709.45 371.994 1707.8 366.509 1704.23 362.257C1703.96 361.846 1703.41 361.983 1703.14 362.394C1702.45 363.903 1701.63 365.137 1700.67 366.509C1700.12 365.411 1699.43 364.451 1698.89 363.354C1698.61 362.943 1698.2 362.806 1697.79 363.217C1694.63 367.332 1693.54 372.68 1694.77 377.617C1691.07 373.092 1686.54 369.526 1680.37 369.937C1680.1 369.937 1679.82 370.349 1679.82 370.623C1680.23 372.269 1680.65 373.914 1681.06 375.697C1679.55 375.423 1677.9 375.011 1676.39 374.737C1675.98 374.6 1675.71 375.011 1675.71 375.423C1676.81 381.731 1680.92 387.354 1686.54 390.234C1685.17 390.783 1683.8 391.469 1682.43 392.429C1681.19 393.252 1679.96 394.211 1679 395.309C1678.04 396.269 1676.81 397.503 1676.67 399.011C1676.12 402.166 1679.55 403.263 1682.02 403.4C1681.06 405.046 1680.37 406.829 1679.96 408.611C1679.82 409.023 1680.23 409.434 1680.65 409.297C1687.78 407.514 1696.14 405.046 1699.43 397.914C1700.94 401.069 1703 404.086 1706.15 405.869C1709.31 407.651 1713.15 407.926 1716.3 405.869C1716.44 405.731 1716.58 405.457 1716.58 405.32C1716.58 404.223 1716.44 402.989 1716.44 401.892C1716.99 402.303 1717.54 402.852 1718.09 403.263C1718.5 403.537 1719.05 403.263 1719.05 402.851C1719.73 397.914 1717.13 392.977 1713.01 390.372C1719.59 389.96 1725.63 384.474 1726.04 377.754C1725.9 377.343 1725.35 376.932 1724.94 377.343Z" fill="#F8D8D2"/>
<path d="M238.04 390.371C237.629 391.331 236.395 392.017 235.297 391.468C234.063 390.92 233.926 389.274 234.612 388.177C234.886 387.766 234.475 387.08 233.926 387.354C230.497 389.548 226.52 392.566 225.56 396.543C223.915 392.154 220.486 388.451 216.097 386.531C215.686 386.394 215.275 386.668 215.275 387.08C215.275 388.451 215.137 389.823 214.863 391.194C214.04 390.646 213.08 389.96 212.257 389.411C211.983 389.137 211.435 389.274 211.435 389.686C210.475 394.074 211.846 398.737 214.589 402.166C210.063 400.108 205.126 399.011 200.463 401.617C200.189 401.754 200.189 402.166 200.326 402.303C201.286 403.4 202.246 404.634 203.206 405.731C201.835 406.006 200.463 406.417 199.092 406.691C198.817 406.828 198.68 407.24 198.817 407.514C202.109 412.04 207.457 414.783 212.943 415.057C211.983 416.017 211.297 417.114 210.612 418.348C209.926 419.446 209.377 420.68 209.103 421.914C208.692 423.011 208.28 424.52 208.692 425.617C209.515 428.36 212.532 427.811 214.589 426.988C214.452 428.634 214.589 430.28 215 431.926C215.137 432.2 215.549 432.474 215.823 432.2C220.623 428.086 226.246 423.011 226.109 416.154C228.577 418.074 231.32 419.583 234.337 419.72C237.492 419.857 240.646 418.623 242.292 415.88C242.429 415.743 242.292 415.468 242.292 415.331C241.88 414.508 241.332 413.548 240.92 412.726C241.469 412.863 242.155 413 242.703 413.137C243.115 413.274 243.389 412.863 243.252 412.451C241.88 408.337 238.04 405.457 233.789 405.046C238.726 402.166 241.332 395.583 239.137 390.234C238.863 390.097 238.315 389.96 238.04 390.371Z" fill="#ED9189"/>
<path d="M1466.29 496.52C1465.61 497.617 1464.1 498.165 1463 497.343C1461.77 496.52 1461.77 494.6 1462.73 493.503C1463.14 492.954 1462.73 492.131 1462.04 492.543C1457.79 494.6 1452.99 497.48 1451.21 501.868C1449.97 496.52 1446.54 491.857 1441.88 489.114C1441.47 488.84 1440.92 489.114 1440.92 489.663C1440.78 491.308 1440.37 492.817 1439.96 494.325C1439 493.502 1438.18 492.68 1437.22 491.994C1436.81 491.72 1436.39 491.72 1436.12 492.268C1434.47 497.205 1435.3 502.691 1437.9 506.943C1432.97 503.925 1427.48 502.005 1421.72 504.337C1421.45 504.474 1421.31 504.885 1421.45 505.16C1422.41 506.668 1423.37 508.04 1424.33 509.548C1422.68 509.685 1421.17 509.96 1419.53 510.097C1419.11 510.097 1418.98 510.645 1419.11 510.92C1422.13 516.543 1427.89 520.382 1434.2 521.48C1433.1 522.44 1432.01 523.674 1431.05 524.908C1430.09 526.142 1429.4 527.377 1428.71 528.885C1428.17 530.12 1427.48 531.765 1427.62 533.137C1428.17 536.291 1431.59 536.154 1434.2 535.605C1433.79 537.525 1433.79 539.308 1433.93 541.228C1433.93 541.64 1434.47 541.914 1434.75 541.64C1440.92 537.662 1447.91 532.588 1448.74 524.771C1451.21 527.24 1454.22 529.434 1457.65 530.12C1461.22 530.805 1464.92 529.708 1467.25 526.828C1467.39 526.691 1467.39 526.417 1467.25 526.28C1466.84 525.182 1466.43 524.222 1466.02 523.125C1466.7 523.4 1467.39 523.674 1468.07 523.948C1468.49 524.085 1468.9 523.674 1468.9 523.263C1467.94 518.325 1463.96 514.485 1459.16 513.388C1465.19 510.783 1469.03 503.651 1467.25 497.205C1467.39 496.108 1466.57 495.971 1466.29 496.52Z" fill="#F8D8D2"/>
<path d="M663.869 449.343C663.869 450.166 663.183 450.852 662.36 450.715C661.4 450.578 660.989 449.618 661.126 448.795C661.263 448.383 660.714 448.109 660.44 448.383C658.794 450.715 656.874 453.595 657.149 456.475C654.954 454.006 651.8 452.36 648.372 452.223C648.097 452.223 647.96 452.498 647.96 452.772C648.372 453.732 648.646 454.555 648.783 455.515C648.097 455.378 647.274 455.24 646.589 454.966C646.314 454.966 646.04 455.103 646.04 455.378C646.452 458.532 648.509 461.275 651.114 462.783C647.549 462.509 644.12 463.058 641.652 465.938C641.514 466.075 641.514 466.349 641.789 466.486C642.749 467.035 643.572 467.583 644.532 467.995C643.709 468.543 642.886 469.092 642.063 469.641C641.926 469.778 641.926 470.052 642.063 470.189C645.354 472.383 649.469 472.932 653.172 471.698C652.76 472.521 652.623 473.481 652.349 474.441C652.212 475.401 652.212 476.223 652.212 477.183C652.212 478.006 652.349 479.103 652.76 479.789C653.994 481.298 655.777 480.338 657.012 479.241C657.286 480.338 657.834 481.435 658.52 482.395C658.657 482.532 659.069 482.532 659.069 482.395C661.263 478.418 663.732 473.755 661.949 469.229C664.006 469.915 666.2 470.189 668.257 469.641C670.314 468.955 672.097 467.309 672.509 465.115C672.509 464.978 672.509 464.841 672.372 464.841C671.823 464.429 671.274 463.881 670.863 463.469C671.274 463.469 671.686 463.332 672.234 463.332C672.509 463.332 672.646 462.921 672.509 462.783C670.589 460.452 667.297 459.492 664.417 460.178C667.023 457.161 667.023 452.086 664.28 449.069C664.28 448.932 663.869 449.069 663.869 449.343Z" fill="white"/>
<path d="M589.674 293.823C589.674 294.646 588.989 295.331 588.166 295.194C587.206 295.057 586.794 294.097 586.932 293.274C587.069 292.863 586.52 292.589 586.246 292.863C584.6 295.194 582.68 298.074 582.954 300.954C580.76 298.486 577.606 296.84 574.177 296.703C573.903 296.703 573.766 296.977 573.766 297.251C574.177 298.211 574.452 299.034 574.589 299.994C573.903 299.857 573.08 299.72 572.394 299.446C572.12 299.446 571.846 299.583 571.846 299.857C572.257 303.011 574.314 305.754 576.92 307.263C573.354 306.989 569.926 307.537 567.457 310.417C567.32 310.554 567.32 310.828 567.594 310.966C568.554 311.514 569.377 312.063 570.337 312.474C569.514 313.023 568.692 313.571 567.869 314.12C567.732 314.257 567.732 314.531 567.869 314.669C571.16 316.863 575.274 317.411 578.977 316.177C578.566 317 578.429 317.96 578.154 318.92C578.017 319.88 578.017 320.703 578.017 321.663C578.017 322.486 578.154 323.583 578.566 324.269C579.8 325.777 581.583 324.817 582.817 323.72C583.092 324.817 583.64 325.914 584.326 326.874C584.463 327.011 584.874 327.011 584.874 326.874C587.069 322.897 589.537 318.234 587.754 313.708C589.812 314.394 592.006 314.669 594.063 314.12C596.12 313.434 597.903 311.788 598.314 309.594C598.314 309.457 598.314 309.32 598.177 309.32C597.629 308.909 597.08 308.36 596.669 307.949C597.08 307.949 597.492 307.811 598.04 307.811C598.314 307.811 598.452 307.4 598.314 307.263C596.394 304.931 593.103 303.971 590.223 304.657C592.829 301.64 592.829 296.566 590.086 293.549C590.086 293.411 589.674 293.549 589.674 293.823Z" fill="white"/>
<path d="M323.206 204.131C323.206 204.954 322.52 205.64 321.697 205.503C320.737 205.366 320.326 204.406 320.463 203.583C320.6 203.171 320.051 202.897 319.777 203.171C318.131 205.503 316.211 208.383 316.486 211.263C314.291 208.794 311.137 207.149 307.709 207.011C307.434 207.011 307.297 207.286 307.297 207.56C307.709 208.52 307.983 209.343 308.12 210.303C307.434 210.166 306.611 210.029 305.926 209.754C305.651 209.754 305.377 209.891 305.377 210.166C305.789 213.32 307.846 216.063 310.451 217.571C306.886 217.297 303.457 217.846 300.989 220.726C300.851 220.863 300.851 221.137 301.126 221.274C302.086 221.823 302.909 222.371 303.869 222.783C303.046 223.331 302.223 223.88 301.4 224.429C301.263 224.566 301.263 224.84 301.4 224.977C304.691 227.171 308.806 227.72 312.509 226.486C312.097 227.309 311.96 228.269 311.686 229.229C311.549 230.189 311.549 231.011 311.549 231.971C311.549 232.794 311.686 233.891 312.097 234.577C313.331 236.086 315.114 235.126 316.349 234.029C316.623 235.126 317.171 236.223 317.857 237.183C317.994 237.32 318.406 237.32 318.406 237.183C320.6 233.206 323.069 228.543 321.286 224.017C323.343 224.703 325.537 224.977 327.594 224.429C329.651 223.743 331.434 222.097 331.846 219.903C331.846 219.766 331.846 219.629 331.709 219.629C331.16 219.217 330.611 218.669 330.2 218.257C330.611 218.257 331.023 218.12 331.571 218.12C331.846 218.12 331.983 217.709 331.846 217.571C329.926 215.24 326.634 214.28 323.754 214.966C326.36 211.949 326.36 206.874 323.617 203.857C323.617 203.72 323.206 203.857 323.206 204.131Z" fill="white"/>
<path d="M109.949 193.983C109.949 194.806 109.263 195.492 108.44 195.354C107.48 195.217 107.069 194.257 107.206 193.434C107.343 193.023 106.795 192.749 106.52 193.023C104.875 195.354 102.955 198.234 103.229 201.114C101.035 198.646 97.8803 197 94.4517 196.863C94.1774 196.863 94.0403 197.137 94.0403 197.412C94.4517 198.372 94.726 199.194 94.8631 200.154C94.1774 200.017 93.3545 199.88 92.6688 199.606C92.3945 199.606 92.1203 199.743 92.1203 200.017C92.5317 203.172 94.5888 205.914 97.1945 207.423C93.6288 207.149 90.2003 207.697 87.7317 210.577C87.5945 210.714 87.5945 210.989 87.8688 211.126C88.8288 211.674 89.6517 212.223 90.6117 212.634C89.7888 213.183 88.966 213.732 88.1431 214.28C88.006 214.417 88.006 214.692 88.1431 214.829C91.4345 217.023 95.5488 217.572 99.2517 216.337C98.8403 217.16 98.7031 218.12 98.4288 219.08C98.2917 220.04 98.2917 220.863 98.2917 221.823C98.2917 222.646 98.4288 223.743 98.8403 224.429C100.075 225.937 101.857 224.977 103.092 223.88C103.366 224.977 103.915 226.074 104.6 227.034C104.737 227.172 105.149 227.172 105.149 227.034C107.343 223.057 109.812 218.394 108.029 213.869C110.086 214.554 112.28 214.829 114.337 214.28C116.395 213.594 118.177 211.949 118.589 209.754C118.589 209.617 118.589 209.48 118.452 209.48C117.903 209.069 117.355 208.52 116.943 208.109C117.355 208.109 117.766 207.972 118.315 207.972C118.589 207.972 118.726 207.56 118.589 207.423C116.669 205.092 113.377 204.132 110.497 204.817C113.103 201.8 113.103 196.726 110.36 193.709C110.497 193.572 109.949 193.709 109.949 193.983Z" fill="white"/>
<path d="M709.812 300.131C713.378 297.8 717.355 295.743 721.195 294.097C720.098 294.234 719.001 294.371 717.903 294.508C721.058 295.605 724.76 293.686 726.269 290.806C728.052 287.514 725.721 284.36 722.292 283.948C720.098 283.674 717.903 284.771 716.258 286.28C715.983 286.554 714.338 289.023 715.161 288.2C715.709 287.514 713.789 289.16 713.652 289.434C711.183 291.903 709.263 294.783 707.48 297.8C706.658 299.171 708.303 301.091 709.812 300.131Z" fill="white"/>
<path d="M894.269 355.4C893.857 355.263 893.309 354.303 892.897 353.891C892.212 353.068 891.526 352.52 890.566 351.971C889.88 351.423 889.88 351.423 890.429 351.971C890.154 351.423 889.743 351.011 889.332 350.737C888.783 350.188 888.509 349.503 887.96 348.954C888.097 349.777 888.372 350.463 888.509 351.286C888.783 349.091 888.097 347.446 886.589 345.937C882.886 342.371 876.303 345.937 877.812 351.011C877.812 351.286 877.949 351.423 877.949 351.697C878.497 353.48 879.869 355.126 881.789 355.537C882.063 355.674 882.475 355.674 882.749 355.811C882.063 355.4 881.377 354.988 880.829 354.714C882.749 356.634 884.943 357.594 887.412 358.554C888.783 359.103 889.743 359.24 891.252 358.966C892.349 358.691 893.172 358.006 894.132 357.731C895.366 357.32 895.229 355.811 894.269 355.4Z" fill="white"/>
<path d="M1135.78 483.08C1134.68 481.571 1134.27 479.377 1132.76 478.143C1130.98 476.634 1128.65 475.4 1126.59 474.303C1127.14 474.851 1127.69 475.4 1128.37 476.086C1126.18 472.794 1122.34 471.423 1118.77 473.617C1116.58 474.989 1115.48 478.006 1116.99 480.337C1119.32 483.766 1122.89 484.452 1126.59 482.806C1125.77 483.08 1124.94 483.217 1124.12 483.492C1126.18 483.766 1128.1 484.726 1130.02 485C1131.39 485.137 1132.9 484.726 1134.27 485.274C1135.37 485.274 1136.46 484.04 1135.78 483.08Z" fill="white"/>
<path d="M1506.06 249.114C1508.94 247.88 1510.59 245.823 1511.69 242.805C1512.23 241.297 1512.92 239.651 1512.51 238.005C1512.1 236.085 1510.86 235.125 1509.63 234.302C1508.26 233.342 1506.2 234.028 1505.38 235.4C1505.1 235.948 1504.83 236.497 1504.69 237.045C1504.97 236.497 1505.38 235.948 1505.65 235.4C1503.87 237.045 1503.73 239.788 1504.97 241.708C1504.83 241.022 1504.55 240.337 1504.42 239.651C1504.42 241.297 1503.73 243.08 1502.63 244.451C1500.17 247.194 1502.91 250.485 1506.06 249.114Z" fill="white"/>
<path d="M1480.42 101.137C1478.36 99.6288 1476.71 97.4345 1474.66 95.7888C1472.6 94.1431 1470.54 92.4974 1468.62 90.5774C1469.03 91.5374 1469.45 92.6345 1469.86 93.5945C1469.58 90.0288 1467.66 87.8345 1463.96 87.1488C1460.94 86.6003 1457.79 88.9317 1458.75 92.3602C1460.12 97.2974 1464.23 97.983 1468.07 99.7659C1469.86 100.726 1471.78 101.549 1473.7 102.097C1475.75 102.646 1477.67 102.372 1479.87 102.646C1480.83 102.783 1480.97 101.549 1480.42 101.137Z" fill="white"/>
<path d="M265.057 324.543C264.782 324.406 264.371 323.72 264.234 323.446C263.548 322.76 264.782 324.406 264.097 323.309C263.548 322.486 262.999 321.8 262.314 320.977C261.354 319.606 260.394 318.235 259.708 316.726C259.982 317.549 260.119 318.235 260.394 319.057C260.394 320.017 260.531 318.92 260.531 318.646C262.039 313.846 256.828 309.595 252.439 311.515C248.051 313.297 247.365 319.88 251.754 322.212C252.302 322.486 252.851 322.76 253.399 323.035C252.851 322.486 252.302 321.937 251.754 321.389C253.399 323.583 255.045 325.366 257.651 326.463C258.748 327.012 260.257 327.56 261.491 327.56C261.902 327.56 262.314 327.56 262.725 327.423C263.411 327.423 263.959 327.012 264.645 327.012C265.742 327.149 266.291 325.229 265.057 324.543Z" fill="white"/>
<path d="M358.177 486.508C355.297 484.04 350.908 483.354 347.48 481.571C344.188 479.926 340.074 481.023 338.566 484.589C337.194 487.743 338.84 492.269 342.68 493.091C347.754 494.051 355.846 493.914 358.451 488.566C358.726 487.88 358.726 486.92 358.177 486.508Z" fill="white"/>
<path d="M492.578 471.423C495.046 470.6 497.378 469.777 499.709 468.68C501.903 467.72 503.823 466.623 505.743 465.526C509.446 463.468 508.212 457.571 504.098 457.16C499.709 456.611 497.515 461.686 500.258 464.84C500.395 465.114 500.669 465.251 500.806 465.526C500.669 464.154 500.395 462.783 500.258 461.411C499.298 462.92 497.515 464.017 496.281 465.114C494.635 466.486 492.989 468.131 491.481 469.64C490.795 470.463 491.481 471.834 492.578 471.423Z" fill="white"/>
<path d="M405.766 594.989C406.726 596.634 408.371 597.457 410.291 597.732C411.388 597.869 412.623 597.732 413.583 597.183C413.994 596.909 414.406 596.497 414.68 596.086C415.091 595.263 415.091 595.126 414.817 595.537C415.091 594.989 415.228 594.577 415.228 594.166C415.64 591.972 413.72 590.6 411.663 591.423C411.937 591.286 411.251 591.286 411.663 591.423C412.074 591.286 411.8 591.423 410.977 591.56C410.703 591.697 410.428 591.835 410.291 591.835C409.88 592.109 409.606 592.383 409.331 592.657C408.92 592.932 409.88 592.383 409.194 592.794C408.646 593.206 408.097 593.206 407.274 592.932C406.177 592.52 405.08 594.029 405.766 594.989Z" fill="white"/>
<path d="M105.834 436.177C100.897 436.177 96.0966 438.097 91.4337 439.057C86.3594 440.154 81.8337 439.057 79.5023 444.542C79.0909 445.64 78.9537 447.148 79.9137 447.971C80.7366 448.657 81.5594 449.205 82.5194 449.754C84.1652 450.577 86.2223 450.851 87.868 449.754C93.9023 445.64 101.994 444.405 106.931 438.645C107.617 437.822 107.068 436.177 105.834 436.177Z" fill="white"/>
<path d="M20.8052 189.732C18.6109 188.086 16.2795 186.303 14.0852 184.657C12.4395 183.423 9.01091 181.64 8.18805 179.72C6.81663 176.703 2.29091 177.115 0.782338 179.72C-0.863377 182.463 1.19377 186.303 4.4852 186.166C6.4052 186.029 9.69662 188.635 11.3423 189.457C13.8109 190.692 16.4166 191.926 18.8852 193.297C21.2166 194.395 22.8623 191.377 20.8052 189.732Z" fill="white"/>
<path d="M1696.55 523.4C1698.06 522.303 1700.81 524.771 1702.86 524.771C1703.96 524.771 1705.19 524.634 1706.29 524.36C1709.45 523.949 1712.6 522.577 1714.11 519.697C1715.34 517.229 1715.21 514.211 1713.15 512.291C1709.99 509.137 1705.06 509.274 1701.35 511.469C1699.85 512.429 1698.2 513.526 1697.24 515.034C1695.87 517.503 1697.38 520.383 1695.73 522.577C1695.46 523.126 1696.14 523.674 1696.55 523.4Z" fill="white"/>
<path d="M1056.65 584.428C1055.96 583.88 1055.82 583.331 1055.41 582.645C1054.86 581.685 1054.04 581 1053.49 580.177C1052.94 579.491 1052.67 578.805 1052.12 578.12C1051.43 577.297 1051.16 577.297 1050.75 576.2C1049.51 573.182 1045.4 571.674 1043.21 574.691C1041.01 577.708 1043.21 581.274 1046.63 581.685C1047.32 581.685 1047.87 581.96 1048.55 581.96C1048.01 581.822 1047.46 581.685 1046.91 581.548C1048.55 582.371 1050.06 582.782 1051.71 583.468C1053.22 584.017 1054.86 584.291 1056.23 585.114C1056.51 585.251 1056.92 584.702 1056.65 584.428Z" fill="white"/>
<path d="M1773.49 224.84C1773.63 224.292 1773.77 223.606 1773.77 223.057C1773.49 223.332 1773.22 223.743 1773.08 224.017C1774.59 223.332 1776.23 222.646 1777.06 221.137C1777.61 220.04 1777.88 218.943 1777.74 217.709C1777.33 215.103 1775.14 212.909 1772.39 212.909C1769.93 213.046 1767.87 214.554 1767.18 216.886C1766.77 218.12 1767.05 220.04 1767.73 221.137C1768.69 222.646 1770.06 223.194 1771.71 224.017C1771.43 223.743 1771.16 223.332 1771.02 223.057C1771.16 223.606 1771.3 224.292 1771.3 224.84C1771.43 226.074 1773.35 226.074 1773.49 224.84Z" fill="white"/>
<path d="M1247.27 341.686C1247 339.08 1247 336.749 1247 334.143C1246.59 334.966 1246.18 335.652 1245.63 336.474C1248.65 334.692 1250.84 331.812 1249.88 327.972C1248.92 324.406 1244.94 322.074 1241.38 323.172C1237.81 324.132 1235.48 328.109 1236.58 331.674C1237.54 335.377 1240.83 336.749 1244.39 336.749C1243.57 336.337 1242.89 335.926 1242.06 335.377C1243.43 337.572 1244.53 339.629 1245.49 341.96C1245.9 342.92 1247.27 342.509 1247.27 341.686Z" fill="#E86F6E"/>
<path d="M1564.49 553.709C1566.13 551.103 1568.33 550.692 1570.11 548.497C1572.58 545.48 1574.36 542.874 1577.38 540.269C1580.81 537.389 1579.16 531.766 1575.32 530.257C1571.07 528.474 1566.95 531.629 1566.68 535.88C1566.41 539.309 1565.58 542.052 1564.62 545.343C1563.8 548.086 1564.76 550.554 1563.66 553.434C1563.66 553.846 1564.35 553.983 1564.49 553.709Z" fill="#E86F6E"/>
<path d="M1779.94 531.217C1779.11 528.337 1778.7 525.457 1777.19 522.851C1775.82 520.382 1772.67 518.051 1772.26 515.308C1771.57 511.331 1765.54 509.823 1763.07 512.84C1762.38 513.525 1761.83 514.211 1761.7 515.308C1761.01 520.382 1765.13 523.537 1769.79 521.617C1768.97 521.754 1768.97 522.028 1770.06 522.303C1770.61 522.577 1771.16 522.988 1771.71 523.4C1772.67 524.085 1773.49 524.908 1774.31 525.731C1776.1 527.514 1777.74 529.297 1778.7 531.628C1778.98 532.314 1780.21 532.04 1779.94 531.217Z" fill="#E86F6E"/>
<path d="M572.394 446.737C572.532 443.994 572.806 440.703 571.983 438.097C571.572 436.726 571.023 435.492 570.337 434.12C569.652 432.749 568.692 431.514 568.006 430.006C564.714 422.874 554.017 432.749 561.423 436.589C563.343 437.549 564.714 439.88 565.949 441.526C567.32 443.446 568.417 444.68 569.24 447.012C569.789 448.932 572.257 448.52 572.394 446.737Z" fill="#E86F6E"/>
<path d="M244.486 254.051C248.464 251.445 252.441 248.977 256.418 246.508C255.732 246.645 255.184 246.92 254.498 247.057C256.281 246.92 257.652 246.782 259.161 245.822C262.041 243.902 262.726 240.062 260.258 237.594C257.789 235.125 253.812 235.811 252.029 238.691C251.069 240.2 250.795 241.571 250.795 243.354C250.932 242.668 251.206 242.12 251.344 241.434C248.875 245.411 246.544 249.388 243.801 253.365C243.389 253.777 244.075 254.462 244.486 254.051Z" fill="#E86F6E"/>
<path d="M168.098 320.292C167.549 322.075 166.589 323.857 165.355 325.229C163.709 327.012 161.378 328.109 160.966 330.852C160.555 332.772 161.515 335.24 163.709 335.652C171.115 337.023 174.818 327.149 174.955 321.252C174.818 317.137 169.332 316.589 168.098 320.292Z" fill="#E86F6E"/>
<path d="M808.691 516.268C808.417 515.308 808.691 514.348 808.28 513.251C807.731 511.743 806.634 510.234 805.537 509C803.342 506.531 799.914 504.611 796.897 503.24C795.114 502.417 792.097 502.554 791.137 504.748C790.862 505.434 790.588 505.983 790.588 506.805C790.451 509.137 792.645 510.783 794.702 510.92C797.445 511.194 799.365 512.428 801.56 513.937C802.52 514.623 803.617 515.308 804.577 515.994C805.262 516.405 806.36 516.68 806.908 517.228C807.868 517.777 808.965 517.091 808.691 516.268Z" fill="#E86F6E"/>
<path d="M692.531 588.131C689.788 587.446 687.593 586.211 684.713 585.526C683.479 585.251 682.245 584.84 680.874 584.566C679.502 584.291 678.131 584.566 676.759 584.291C672.234 583.468 667.982 587.034 669.216 591.834C670.451 596.36 676.211 597.731 679.502 594.577C680.874 593.206 683.205 592.246 685.125 591.423C687.182 590.6 690.199 589.366 692.393 589.228C693.079 589.228 693.216 588.268 692.531 588.131Z" fill="#E86F6E"/>
<path d="M375.869 543.697C378.886 541.503 381.766 539.857 384.509 537.252C387.115 534.783 389.583 530.943 392.737 529.434C396.715 527.514 395.755 521.48 392.052 519.972C387.8 518.189 384.097 522.029 384.783 526.28C385.194 528.886 382.452 532.726 381.217 534.92C379.435 537.8 377.652 540.954 375.32 543.286C375.183 543.56 375.594 543.972 375.869 543.697Z" fill="#E86F6E"/>
<path d="M51.1144 526.555C50.0173 525.32 48.783 524.497 47.4116 523.537C47.6859 523.949 47.9602 524.497 48.2344 524.909C47.823 521.069 42.6116 518.737 39.8687 516.68C40.5544 517.777 41.103 518.875 41.7887 519.972C41.7887 519.56 41.7887 519.286 41.6516 518.875C41.2402 513.526 34.1087 510.92 31.0916 515.995C28.0744 521.069 33.9716 526.143 38.7716 523.675C39.0459 523.537 39.4573 523.4 39.7316 523.126C38.7716 523.263 37.8116 523.4 36.8516 523.537C39.8687 524.772 43.983 527.652 47.4116 526.28C46.863 526.28 46.3144 526.28 45.7659 526.28C47.2744 526.966 48.6459 527.515 50.1544 527.926C51.1144 528.337 51.663 527.24 51.1144 526.555Z" fill="#ED9189"/>
<path d="M1549.13 482.258C1550.22 480.2 1551.18 478.143 1552.01 475.949C1552.97 473.343 1554.61 471.286 1555.57 468.818C1554.2 469.915 1552.83 471.012 1551.32 471.972C1559 471.972 1561.74 460.726 1553.79 458.532C1545.83 456.338 1542.13 467.583 1549.13 471.286C1548.44 470.052 1547.75 468.818 1546.93 467.583C1546.79 469.915 1547.21 472.109 1546.93 474.578C1546.66 476.909 1546.52 479.24 1546.52 481.572C1546.52 482.943 1548.44 483.492 1549.13 482.258Z" fill="#ED9189"/>
<path d="M1355.21 344.291C1356.44 342.783 1357.26 341.548 1357.81 339.628C1358.5 337.434 1358.5 335.514 1360.28 334.005C1365.49 329.617 1361.1 320.977 1354.93 320.977C1348.76 320.977 1344.23 329.617 1349.58 334.005C1350.68 334.965 1350.82 335.24 1351.23 336.611C1351.5 337.571 1351.78 338.531 1352.05 339.628C1352.6 341.548 1353.29 342.783 1354.66 344.291C1354.52 344.428 1354.93 344.428 1355.21 344.291Z" fill="#F1AAA1"/>
<path d="M1675.16 268.177C1674.89 265.434 1674.34 263.514 1672.97 261.183C1671.46 258.714 1668.99 256.931 1667.75 254.463C1666.79 252.406 1663.37 250.897 1661.17 251.857C1657.47 253.366 1655.14 256.52 1657.74 260.36C1658.98 262.28 1661.86 264.063 1664.33 262.966C1667.48 261.731 1672.55 266.394 1674.47 268.451C1674.75 268.726 1675.3 268.589 1675.16 268.177Z" fill="#F1AAA1"/>
<path d="M1127.27 213.594C1126.86 213.045 1126.73 212.085 1126.18 211.4C1125.22 210.165 1123.43 208.931 1122.2 207.971C1119.59 205.914 1117.13 203.72 1114.38 201.662C1111.09 199.194 1106.43 199.057 1104.23 203.034C1102.04 206.737 1104.1 211.4 1108.07 212.634C1111.37 213.594 1114.66 214.417 1117.95 215.377C1119.46 215.788 1121.1 216.2 1122.61 216.474C1123.98 216.748 1124.94 216.2 1126.18 216.337C1127.55 216.474 1128.1 214.554 1127.27 213.594Z" fill="#F1AAA1"/>
<path d="M495.183 194.943C492.577 195.08 490.109 195.354 487.503 195.766C484.76 196.314 481.88 196.451 479.549 197.96C475.434 200.566 478.177 206.463 482.84 205.64C485.583 205.229 487.777 203.171 490.109 201.8C492.303 200.566 494.223 198.92 496.28 197.274C497.103 196.726 496.28 194.943 495.183 194.943Z" fill="#F1AAA1"/>
<path d="M413.308 125.549C412.897 125.411 412.486 125.411 412.074 125.274C412.623 125.686 413.171 126.097 413.72 126.508C412.348 124.451 410.428 123.629 407.96 124.314C406.451 124.726 404.806 125.274 403.571 126.234C402.337 127.057 402.337 128.566 403.571 129.389C404.806 130.211 406.451 130.897 407.96 131.308C410.428 131.994 412.348 131.171 413.72 129.114C413.171 129.526 412.623 129.937 412.074 130.349C412.486 130.211 412.897 130.211 413.308 130.074C415.503 129.663 415.503 126.097 413.308 125.549Z" fill="#F1AAA1"/>
<path d="M268.623 108.269C267.389 108.269 266.155 108.132 264.783 108.132C263.686 108.132 262.589 107.72 261.766 108.68C261.492 109.092 261.492 109.503 261.766 109.914C262.452 110.874 263.686 110.463 264.783 110.463C266.018 110.463 267.252 110.326 268.623 110.326C269.995 110.326 269.995 108.406 268.623 108.269Z" fill="#F1AAA1"/>
<path d="M1415.55 116.36C1416.78 118.554 1419.8 117.594 1421.58 116.908C1423.5 116.086 1426.11 114.303 1426.66 112.108C1426.93 111.011 1426.25 110.188 1425.29 109.777C1423.37 108.954 1420.07 110.051 1418.43 111.148C1416.92 112.246 1414.31 114.028 1415.55 116.36Z" fill="#F1AAA1"/>
<path d="M1692.44 80.8399C1691.34 78.2342 1690.38 75.4914 1689.01 72.8857C1688.74 72.2 1688.33 71.6514 1688.05 70.9656C1688.05 70.2799 1688.05 69.4571 1687.91 68.7714C1687.5 67.1257 1686.27 66.4399 1685.03 65.4799C1681.74 63.0114 1678.31 67.1256 1678.86 70.2799C1679.14 71.9256 1679.69 73.16 1681.19 74.12C1682.57 74.9429 1682.98 75.9028 1683.94 77.2743C1685.58 79.4686 1687.37 81.3886 1689.15 83.4457C1690.66 85.3657 1693.26 82.7599 1692.44 80.8399Z" fill="#F1AAA1"/>
<path d="M1694.36 13.0918C1693.68 11.1718 1693.95 10.486 1693.54 8.56604C1693.13 6.64604 1692.3 4.86321 1691.48 2.94321C1690.52 0.748927 1687.23 0.474658 1685.58 1.84609C1683.53 3.4918 1683.66 5.96032 1685.17 7.88032C1686.27 9.25175 1687.23 10.6232 1688.6 11.7204C1689.97 12.8175 1690.93 13.0918 1692.17 14.6004C1692.99 15.4232 1694.91 14.3261 1694.36 13.0918Z" fill="#F1AAA1"/>
<path d="M1473.97 11.9935C1476.85 12.1307 1479.59 10.7593 1481.38 8.56497C1483.16 6.37068 1484.53 2.25645 1481.38 0.473592C1480.69 0.0621635 1479.87 0.199323 1479.32 0.747895C1477.26 2.94218 1477.67 7.33072 1473.97 7.74215C1471.37 8.29072 1471.23 11.8564 1473.97 11.9935Z" fill="#F1AAA1"/>
<path d="M697.743 125.686C698.155 121.983 698.703 118.417 698.703 114.714C698.703 110.052 691.435 110.052 691.435 114.714C691.435 118.417 691.983 121.983 692.395 125.686C692.669 129.114 697.332 129.114 697.743 125.686Z" fill="#F1AAA1"/>
<path d="M798.954 192.338C799.229 192.2 799.503 192.063 799.777 192.063C799.229 191.926 798.68 191.926 797.994 191.789C799.503 192.475 801.286 192.063 802.932 191.515C803.892 191.241 804.714 190.692 805.537 190.006C806.497 189.183 806.772 188.361 807.183 187.263C807.869 185.343 806.086 183.423 804.303 183.423C802.383 183.423 800.463 184.109 799.229 185.618C798.269 186.715 796.897 188.36 796.897 189.869C797.172 189.32 797.309 188.772 797.583 188.223C797.309 188.498 797.172 188.635 796.897 188.909C795.663 190.28 797.034 193.16 798.954 192.338Z" fill="#F1AAA1"/>
</svg>
