<svg width="1920" height="506" viewBox="0 0 1920 506" fill="none" xmlns="http://www.w3.org/2000/svg">
<path d="M1854.52 5.51845C1841.38 4.33689 1828.15 0.782294 1815.02 0.913761C1773.54 1.17739 1733.68 30.3145 1696.81 46.391C1614.31 81.864 1516.45 141.683 1422.79 126.812C1410.34 124.715 1397.91 119.738 1385.35 121.025C1376.01 121.877 1365.16 127.945 1355.63 129.808L1354.7 129.97C1340.53 132.454 1323.85 135.378 1309.46 135.472C1282.94 135.687 1256.87 121.049 1230.87 122.673C1210.47 123.786 1201.75 140.742 1182.73 142.903C1160.22 145.451 1136.43 135.437 1118.08 124.357C1102.32 114.818 1091.42 111.442 1072.44 107.844C1034.27 100.347 991.32 119.464 954.267 132.361C895.015 153.106 834.066 150.989 772.424 155.293C745.868 157.074 719.97 153.999 693.113 155.985C674.486 157.435 655.805 153.632 638.244 160.525C620.682 167.418 604.412 177.177 591.35 189.379C573.532 205.921 554.254 208.033 532.779 217.592C513.014 226.426 494.557 229.742 473.958 236.06C452.853 242.281 439.132 259.338 419.21 267.619C395.915 277.094 375.084 280.485 352.841 294.092C337.126 303.694 321.876 309.452 303.891 314.431C256.728 326.721 208.394 298.164 160.682 316.116C150.516 319.956 142.196 326.504 132.187 330.897C119.01 336.787 104.754 335.919 91.7694 340.797C73.1472 347.751 67.5019 354.02 46.1067 346.557C24.2532 338.745 6.69187 320.739 -14.73 310.65L-14.73 512L1927 512L1927 233.132L1927 4.41654C1902.65 6.66552 1878.36 7.58412 1854.52 5.51845Z" fill="black"/>
</svg>
