<svg width="44" height="44" viewBox="0 0 44 44" fill="none" xmlns="http://www.w3.org/2000/svg">
<rect x="1" y="1" width="42" height="42" rx="21" fill="white" stroke="white" stroke-width="2"/>
<g clip-path="url(#clip0_80_571)">
<path d="M30.7335 12.4316C31.1293 12.8994 31.1833 13.5652 30.8954 14.4288C30.6075 15.2924 30.1217 16.0661 29.438 16.7498L27.2654 18.9224L29.4245 28.3145C29.4695 28.4854 29.4155 28.6338 29.2626 28.7598L27.5353 30.0552C27.4723 30.1092 27.3869 30.1362 27.2789 30.1362C27.2429 30.1362 27.2115 30.1317 27.1845 30.1227C27.0495 30.0957 26.9551 30.0237 26.9011 29.9068L23.1362 23.0517L19.6411 26.5467L20.3563 29.1646C20.4013 29.3175 20.3653 29.457 20.2484 29.5829L18.9529 30.8784C18.872 30.9593 18.7685 30.9998 18.6426 30.9998H18.6156C18.4806 30.9818 18.3727 30.9234 18.2917 30.8244L15.7413 27.4238L12.3407 24.8734C12.2418 24.8104 12.1833 24.707 12.1653 24.563C12.1563 24.4461 12.1968 24.3336 12.2867 24.2257L13.5822 22.9167C13.6632 22.8358 13.7666 22.7953 13.8926 22.7953C13.9465 22.7953 13.9825 22.7998 14.0005 22.8088L16.6184 23.524L20.1134 20.0289L13.2583 16.264C13.1324 16.1921 13.0559 16.0841 13.0289 15.9402C13.0109 15.7962 13.0514 15.6748 13.1504 15.5758L14.8776 13.8485C15.0036 13.7316 15.1385 13.6956 15.2825 13.7406L24.2562 15.8862L26.4153 13.7271C27.099 13.0434 27.8727 12.5576 28.7363 12.2697C29.6 11.9818 30.2657 12.0358 30.7335 12.4316Z" fill="#2C42B5"/>
</g>
<defs>
<clipPath id="clip0_80_571">
<rect width="19" height="19" fill="white" transform="translate(13 12)"/>
</clipPath>
</defs>
</svg>
