<svg width="213" height="57" viewBox="0 0 213 57" fill="none" xmlns="http://www.w3.org/2000/svg">
<path d="M30.8591 30.2532C34.0822 25.7024 38.2836 22.305 41.6554 24.8754L44.8053 23.1853C41.7484 21.2485 38.9767 21.8004 31.1443 27.257C31.0945 28.3412 31.0005 29.337 30.8591 30.2532Z" fill="#2C42B5"/>
<path d="M28.1343 22.9548C28.8887 23.642 29.1828 34.5338 25.215 38.8575C28.4251 37.1833 30.1837 34.6265 30.8591 30.2532C31.0005 29.337 31.0945 28.3412 31.1443 27.257C31.2249 25.5029 31.1899 23.5175 31.0536 21.2647C31.0536 21.2647 27.38 22.2676 28.1343 22.9548Z" fill="#2C42B5"/>
<path d="M27.3476 1.5627C26.0415 17.5422 23.8905 29.0659 12.6741 36.9021C0.382049 46.2747 -5.37978 26.5307 11.5217 21.2298C2.30282 26.5307 2.54765 35.1591 7.0058 37.2946C7.10502 37.3421 7.20632 37.3864 7.30965 37.4274C11.5221 38.789 16.5088 33.1324 19.9757 25.0461C22.7684 18.5326 24.5748 10.4423 24.1978 3.17602C24.0829 2.79171 23.947 2.6437 23.4295 2.63825L26.4257 1.02493C26.9801 0.939263 27.178 1.06393 27.3476 1.5627Z" fill="#2C42B5"/>
<path d="M53.0764 23.2536C52.7454 23.5912 52.3655 23.999 52.0835 24.3267C43.5318 34.2643 57.1013 39.5054 66.7512 33.7785C55.43 44.0876 35.3034 34.4991 53.0764 23.2536Z" fill="#2C42B5"/>
<path d="M79.3665 21.6025C62.4918 29.7228 74.4063 42.7042 84.9746 35.0469C84.0528 35.5847 81.9644 36.0011 81.0566 35.917C74.4516 35.305 70.4255 27.5032 79.3665 21.6025Z" fill="#2C42B5"/>
<path d="M81.0566 35.917C81.9644 36.0011 84.0528 35.5847 84.9746 35.0469C85.8082 34.3231 87.0222 32.9135 87.6849 32.0864C89.16 30.2452 89.4324 29.4707 89.6973 28.2759C89.7309 27.9597 89.8338 27.236 89.8521 26.9803C89.299 27.5287 87.3867 28.3231 86.588 28.5936C86.7646 30.0921 84.1201 35.5965 81.0566 35.917Z" fill="#2C42B5"/>
<path d="M92.0194 36.5066C92.7934 36.4303 93.9911 34.8573 95.6357 33.7312C91.8314 33.0433 89.4733 32.7732 89.6973 28.2759C89.4324 29.4707 89.16 30.2452 87.6849 32.0864C88.0331 34.5824 89.0339 35.5167 92.0194 36.5066Z" fill="#2C42B5"/>
<path d="M76.8445 23.6351C78.8827 22.5526 81.0675 23.4008 80.9029 24.906C82.3025 23.9356 82.9149 23.6133 83.7454 23.3695C84.0349 21.6172 81.1395 20.734 79.3665 21.6025C78.3693 22.2606 77.5335 22.9424 76.8445 23.6351Z" fill="#2C42B5"/>
<path d="M126.333 24.8292C131.438 22.9631 132.226 27.1055 132.556 36.0456C132.854 36.6056 133.023 36.7146 133.324 36.8137C131.08 38.511 130.712 38.8112 130.712 38.8112C130.712 38.8112 129.637 38.1199 129.329 37.4284C129.022 36.7369 130.078 23.9395 124.271 26.5788C124.862 26.0396 125.543 25.4605 126.333 24.8292Z" fill="#2C42B5"/>
<path d="M111.636 25.3925C117.317 24.0286 120.009 28.8066 117.037 34.0482L119.957 32.5117C120.77 30.6124 121.618 28.9983 124.271 26.5788C124.862 26.0396 125.543 25.4605 126.333 24.8292C124.522 25.5705 123.49 26.0304 121.263 27.9022C120.657 24.1038 118.208 22.5435 113.888 23.5232C113.036 24.1421 112.295 24.7491 111.636 25.3925Z" fill="#2C42B5"/>
<path d="M107.357 28.1327C107.11 24.2236 106.653 22.6143 104.822 21.6025C103.139 20.309 97.4718 23.9052 97.2934 24.1378C97.115 24.3704 96.755 24.7786 96.9093 25.5974C98.2834 24.7239 99.0041 24.2859 99.8286 23.9841C99.5683 23.664 99.608 23.4918 99.9823 23.2159C103.13 21.8258 105.503 28.2023 104.054 35.1237C105.426 34.1583 106.108 33.7715 107.127 33.4336C108.42 29.5663 109.664 27.3165 111.636 25.3925C112.295 24.7491 113.036 24.1421 113.888 23.5232C111.015 24.8908 109.574 25.8829 107.357 28.1327Z" fill="#2C42B5"/>
<path d="M11.5491 21.2223C10.3544 21.9232 9.73691 22.3486 8.73522 23.1746C12.5108 21.5516 17.1979 25.6473 18.3223 28.3978C18.9189 27.2847 19.26 26.6223 19.9427 25.0032C17.6223 21.9968 14.7729 20.3509 11.5491 21.2223Z" fill="#2C42B5"/>
<path d="M55.1031 29.6952C56.3724 29.3908 57.5749 28.9078 58.9627 28.315C65.1692 25.0013 61.4773 19.023 53.0855 23.249C52.683 23.6693 52.4669 23.9044 52.0931 24.3232C59.0097 21.8219 61.9783 27.1889 55.1031 29.6952Z" fill="#2C42B5"/>
<path d="M58.9627 28.315C57.5749 28.9078 56.3724 29.3908 55.1031 29.6952C53.4834 30.0837 51.7549 30.1812 49.3938 29.8447C49.3743 30.8163 49.471 31.3323 49.8174 32.2096C53.5647 31.6787 56.6085 30.0391 58.9627 28.315Z" fill="#2C42B5"/>
<path d="M25.215 38.8575L24.7729 38.4519C24.5759 38.6665 24.5616 38.9917 24.739 39.2228C24.9163 39.4539 25.2341 39.5243 25.4924 39.3895L25.215 38.8575ZM31.0536 21.2647L31.6526 21.2285C31.6417 21.0481 31.5501 20.8823 31.4032 20.777C31.2564 20.6718 31.0699 20.6383 30.8956 20.6859L31.0536 21.2647ZM41.6554 24.8754L41.2917 25.3526C41.4787 25.4952 41.7319 25.5153 41.9391 25.4041L41.6554 24.8754ZM44.8053 23.1853L45.0889 23.714C45.2769 23.6132 45.3972 23.4201 45.4049 23.207C45.4126 22.9938 45.3065 22.7926 45.1264 22.6785L44.8053 23.1853ZM31.1443 27.257L30.5449 27.2295L31.1443 27.257ZM126.333 24.8292L126.127 24.2657C126.12 24.2683 126.113 24.271 126.106 24.2739L126.333 24.8292ZM132.556 36.0456L131.956 36.0677C131.96 36.1585 131.984 36.2473 132.026 36.3274L132.556 36.0456ZM133.324 36.8137L133.686 37.2923C133.864 37.1576 133.953 36.9353 133.916 36.7152C133.879 36.495 133.724 36.3134 133.512 36.2437L133.324 36.8137ZM130.712 38.8112L130.388 39.3159C130.606 39.4563 130.89 39.4403 131.091 39.2762L130.712 38.8112ZM104.822 21.6025L104.457 22.0783C104.48 22.0966 104.506 22.1131 104.532 22.1277L104.822 21.6025ZM107.357 28.1327L106.759 28.1706C106.774 28.4067 106.926 28.612 107.148 28.6947C107.369 28.7775 107.619 28.7223 107.785 28.5538L107.357 28.1327ZM113.888 23.5232L113.755 22.938C113.712 22.9478 113.67 22.9624 113.63 22.9814L113.888 23.5232ZM111.488 24.8109C111.166 24.8883 110.968 25.2123 111.045 25.5345C111.122 25.8567 111.446 26.0551 111.769 25.9777L111.488 24.8109ZM117.037 34.0482L116.515 33.7522C116.384 33.9839 116.421 34.2745 116.607 34.4657C116.792 34.657 117.081 34.7032 117.317 34.5791L117.037 34.0482ZM119.957 32.5117L120.236 33.0426C120.358 32.9785 120.454 32.8744 120.508 32.7478L119.957 32.5117ZM121.263 27.9022L120.67 27.9967C120.704 28.2102 120.851 28.3889 121.053 28.4644C121.256 28.5399 121.483 28.5006 121.649 28.3615L121.263 27.9022ZM99.9823 23.2159L99.7085 22.682C99.6798 22.6967 99.6523 22.7137 99.6263 22.7329L99.9823 23.2159ZM104.054 35.1237L103.467 35.0008C103.416 35.242 103.518 35.4895 103.724 35.625C103.93 35.7604 104.198 35.7562 104.399 35.6144L104.054 35.1237ZM107.127 33.4336L107.316 34.0031C107.495 33.9436 107.636 33.8031 107.696 33.6238L107.127 33.4336ZM96.9093 25.5974L96.3196 25.7085C96.3565 25.9041 96.4879 26.0687 96.6706 26.1479C96.8532 26.227 97.0632 26.2105 97.2311 26.1038L96.9093 25.5974ZM99.8286 23.9841L100.035 24.5475C100.217 24.4809 100.356 24.3303 100.407 24.1433C100.459 23.9564 100.416 23.756 100.294 23.6056L99.8286 23.9841ZM105.737 23.1155C106.025 23.2791 106.392 23.1782 106.555 22.8901C106.719 22.602 106.618 22.2357 106.33 22.072L105.737 23.1155ZM84.9746 35.0469L85.3267 35.5327C85.3409 35.5224 85.3547 35.5115 85.368 35.4999L84.9746 35.0469ZM76.8445 23.6351L76.419 23.212C76.2098 23.4224 76.1858 23.7542 76.3625 23.9926C76.5393 24.2309 76.8638 24.3042 77.1259 24.165L76.8445 23.6351ZM80.9029 24.906L80.3065 24.8408C80.2809 25.0744 80.3942 25.3015 80.5961 25.4217C80.7981 25.5418 81.0517 25.533 81.2448 25.3991L80.9029 24.906ZM83.7454 23.3695L83.9144 23.9452C84.1355 23.8803 84.2999 23.6946 84.3374 23.4673L83.7454 23.3695ZM81.0566 35.917L81.0012 36.5145L81.0566 35.917ZM86.588 28.5936L86.3955 28.0253C86.1271 28.1162 85.9589 28.3824 85.9921 28.6638L86.588 28.5936ZM89.8521 26.9803L90.4506 27.0231C90.4684 26.7737 90.3297 26.5394 90.1025 26.435C89.8753 26.3307 89.6072 26.3782 89.4297 26.5542L89.8521 26.9803ZM95.6357 33.7312L95.9747 34.2262C96.1754 34.0888 96.2733 33.8436 96.2224 33.6057C96.1715 33.3677 95.9819 33.1841 95.7424 33.1408L95.6357 33.7312ZM92.0194 36.5066L91.8305 37.0761C91.9102 37.1025 91.9946 37.1119 92.0782 37.1037L92.0194 36.5066ZM53.0764 23.2536L52.8063 22.7178C52.7889 22.7266 52.772 22.7362 52.7556 22.7465L53.0764 23.2536ZM66.7512 33.7785L67.1552 34.2222C67.3828 34.0149 67.4166 33.669 67.2335 33.4216C67.0504 33.1742 66.7097 33.1054 66.445 33.2626L66.7512 33.7785ZM49.7268 31.6165C49.3988 31.6637 49.1712 31.9679 49.2185 32.2959C49.2657 32.6239 49.5699 32.8515 49.8979 32.8042L49.7268 31.6165ZM49.4701 29.2494C49.1421 29.2026 48.8381 29.4305 48.7912 29.7585C48.7444 30.0866 48.9723 30.3905 49.3003 30.4374L49.4701 29.2494ZM55.1031 29.6952L55.243 30.2787L55.1031 29.6952ZM27.3476 1.5627L27.9456 1.61158C27.9523 1.52972 27.9421 1.44736 27.9156 1.3696L27.3476 1.5627ZM26.4257 1.02493L26.3341 0.431963C26.2666 0.442392 26.2013 0.464267 26.1412 0.496644L26.4257 1.02493ZM23.4295 2.63825L23.1451 2.10997C22.9041 2.23973 22.7815 2.51612 22.847 2.78186C22.9125 3.0476 23.1495 3.23533 23.4232 3.23821L23.4295 2.63825ZM24.1978 3.17602L24.797 3.14493C24.7945 3.09721 24.7863 3.04995 24.7726 3.00416L24.1978 3.17602ZM7.30965 37.4274L7.08843 37.9851C7.10051 37.9899 7.11274 37.9943 7.12511 37.9983L7.30965 37.4274ZM11.5217 21.2298L11.3628 20.6512C11.3559 20.6531 11.349 20.6552 11.3421 20.6573L11.5217 21.2298ZM19.9757 25.0461L20.5272 25.2826L19.9757 25.0461ZM7.0058 37.2946L7.265 36.7535L7.0058 37.2946ZM52.0835 24.3267L51.6287 23.9353V23.9353L52.0835 24.3267ZM8.43843 22.6495C8.13569 22.7843 7.9995 23.1389 8.13424 23.4417C8.26898 23.7444 8.62363 23.8806 8.92637 23.7459L8.43843 22.6495ZM17.785 28.6699C17.9067 28.9781 18.2552 29.1293 18.5634 29.0076C18.8716 28.8858 19.0228 28.5373 18.9011 28.2291L17.785 28.6699ZM11.5491 21.2223L11.3925 20.6431L11.5491 21.2223ZM8.73522 23.1746L8.97217 23.7258L8.73522 23.1746ZM53.0855 23.249L52.8157 22.7131L53.0855 23.249ZM52.0931 24.3232L52.2972 24.8875L52.0931 24.3232ZM27.7303 23.3984C27.6624 23.3366 27.6678 23.2991 27.7048 23.4021C27.7333 23.4814 27.7662 23.6033 27.7993 23.7729C27.865 24.1099 27.9206 24.5803 27.9555 25.1577C28.0251 26.3096 28.0095 27.8389 27.8483 29.484C27.6871 31.1297 27.3818 32.8748 26.8791 34.4644C26.3745 36.0599 25.6831 37.4601 24.7729 38.4519L25.6571 39.2632C26.7308 38.0931 27.4906 36.5105 28.0232 34.8262C28.5577 33.1361 28.8757 31.3046 29.0426 29.601C29.2096 27.8967 29.227 26.304 29.1533 25.0853C29.1165 24.4774 29.0564 23.9504 28.9771 23.5434C28.9377 23.3409 28.8908 23.1541 28.8341 22.9962C28.7858 22.8621 28.7005 22.659 28.5384 22.5113L27.7303 23.3984ZM28.5384 22.5113C28.5486 22.5206 28.5889 22.5612 28.6139 22.6386C28.6406 22.7215 28.6349 22.8011 28.6174 22.859C28.5917 22.9438 28.5547 22.9432 28.647 22.8694C28.8129 22.7367 29.1314 22.5736 29.538 22.4075C29.9287 22.2479 30.3471 22.1067 30.6717 22.0044C30.833 21.9536 30.9693 21.913 31.0647 21.8853C31.1124 21.8714 31.1498 21.8608 31.175 21.8537C31.1876 21.8502 31.1971 21.8475 31.2033 21.8458C31.2064 21.845 31.2086 21.8443 31.2101 21.844C31.2108 21.8438 31.2112 21.8436 31.2115 21.8436C31.2117 21.8435 31.2117 21.8435 31.2118 21.8435C31.2118 21.8435 31.2118 21.8435 31.2118 21.8435C31.2117 21.8435 31.2117 21.8435 31.0536 21.2647C30.8956 20.6859 30.8955 20.6859 30.8955 20.6859C30.8954 20.6859 30.8953 20.686 30.8952 20.686C30.895 20.686 30.8948 20.6861 30.8944 20.6862C30.8938 20.6864 30.893 20.6866 30.8919 20.6869C30.8898 20.6875 30.8868 20.6883 30.883 20.6894C30.8753 20.6915 30.8643 20.6945 30.8502 20.6985C30.8219 20.7065 30.7811 20.7181 30.7298 20.733C30.6273 20.7628 30.4824 20.8059 30.3112 20.8599C29.9705 20.9671 29.5176 21.1196 29.0842 21.2966C28.6666 21.4672 28.2082 21.6837 27.8974 21.9323C27.7514 22.0491 27.5512 22.2397 27.469 22.5108C27.4232 22.6619 27.4159 22.8335 27.4717 23.0066C27.5257 23.1742 27.6257 23.3031 27.7303 23.3984L28.5384 22.5113ZM30.2661 30.1616C29.9375 32.2894 29.3518 33.9328 28.4875 35.2359C27.6265 36.5341 26.4668 37.528 24.9375 38.3255L25.4924 39.3895C27.1733 38.5129 28.498 37.3912 29.4876 35.8992C30.4739 34.412 31.1052 32.5903 31.452 30.3448L30.2661 30.1616ZM31.3487 30.6C32.9394 28.354 34.7366 26.4461 36.5045 25.4117C37.3839 24.8972 38.228 24.6153 39.0176 24.5911C39.7952 24.5672 40.5557 24.7915 41.2917 25.3526L42.0192 24.3983C41.0693 23.6741 40.0401 23.3592 38.9809 23.3916C37.9337 23.4237 36.8938 23.7936 35.8985 24.376C33.9169 25.5354 32.0018 27.6016 30.3694 29.9064L31.3487 30.6ZM41.9391 25.4041L45.0889 23.714L44.5216 22.6566L41.3717 24.3467L41.9391 25.4041ZM30.4547 21.3009C30.5901 23.5399 30.6242 25.5028 30.5449 27.2295L31.7436 27.2846C31.8255 25.5029 31.7896 23.4952 31.6526 21.2285L30.4547 21.3009ZM30.5449 27.2295C30.4959 28.2963 30.4037 29.2704 30.2661 30.1616L31.452 30.3448C31.5973 29.4037 31.693 28.3861 31.7436 27.2846L30.5449 27.2295ZM45.1264 22.6785C44.3161 22.1651 43.4943 21.7974 42.5812 21.6453C41.6664 21.4928 40.6984 21.5629 39.6031 21.8711C37.4417 22.4792 34.7172 24.0366 30.8013 26.7647L31.4872 27.7493C35.4037 25.0208 37.9813 23.574 39.9281 23.0262C40.8869 22.7564 41.6745 22.7107 42.3839 22.8289C43.095 22.9475 43.766 23.2371 44.4841 23.6921L45.1264 22.6785ZM126.539 25.3927C127.758 24.9472 128.611 24.9026 129.223 25.1065C129.812 25.3028 130.295 25.7699 130.689 26.6342C131.089 27.5104 131.369 28.7359 131.567 30.3327C131.764 31.9223 131.874 33.8361 131.956 36.0677L133.156 36.0235C133.073 33.785 132.961 31.8286 132.758 30.1853C132.555 28.5494 132.257 27.1796 131.781 26.1359C131.299 25.0804 130.607 24.3031 129.602 23.9681C128.62 23.6408 127.461 23.7781 126.127 24.2657L126.539 25.3927ZM132.026 36.3274C132.184 36.6246 132.338 36.8622 132.529 37.0405C132.737 37.2359 132.949 37.3221 133.137 37.3838L133.512 36.2437C133.398 36.2063 133.374 36.1884 133.349 36.1645C133.305 36.1235 133.225 36.0266 133.086 35.7638L132.026 36.3274ZM132.962 36.3352C131.84 37.1845 131.185 37.685 130.81 37.9737C130.623 38.1181 130.506 38.2098 130.434 38.2659C130.398 38.294 130.374 38.3132 130.358 38.3258C130.35 38.3321 130.345 38.3368 130.341 38.34C130.339 38.3417 130.337 38.343 130.336 38.344C130.335 38.3445 130.335 38.3449 130.334 38.3452C130.334 38.3454 130.334 38.3456 130.334 38.3457C130.333 38.3458 130.333 38.3459 130.333 38.3459C130.333 38.3459 130.333 38.346 130.333 38.346C130.333 38.346 130.333 38.3461 130.712 38.8112C131.091 39.2762 131.091 39.2763 131.091 39.2763C131.091 39.2763 131.091 39.2764 131.091 39.2764C131.091 39.2764 131.091 39.2765 131.091 39.2765C131.091 39.2766 131.091 39.2766 131.091 39.2766C131.091 39.2767 131.091 39.2766 131.091 39.2765C131.091 39.2763 131.092 39.2757 131.093 39.2747C131.096 39.2728 131.1 39.2693 131.106 39.2641C131.12 39.2536 131.142 39.2362 131.175 39.2096C131.243 39.1563 131.358 39.0669 131.543 38.9241C131.914 38.6384 132.565 38.1403 133.686 37.2923L132.962 36.3352ZM130.712 38.8112C131.037 38.3064 131.037 38.3065 131.037 38.3065C131.037 38.3065 131.037 38.3066 131.037 38.3066C131.037 38.3066 131.037 38.3067 131.037 38.3067C131.037 38.3068 131.037 38.3068 131.037 38.3068C131.037 38.3067 131.037 38.3065 131.036 38.3061C131.035 38.3054 131.033 38.304 131.03 38.302C131.024 38.298 131.014 38.2915 131.001 38.2828C130.975 38.2653 130.936 38.2387 130.889 38.2045C130.792 38.1356 130.661 38.0374 130.523 37.9205C130.224 37.6682 129.972 37.3968 129.878 37.1847L128.781 37.672C128.994 38.1515 129.433 38.5714 129.749 38.8377C129.918 38.98 130.075 39.0979 130.19 39.1802C130.248 39.2216 130.296 39.2544 130.33 39.2774C130.347 39.289 130.36 39.298 130.37 39.3045C130.375 39.3077 130.379 39.3103 130.382 39.3122C130.384 39.3132 130.385 39.3139 130.386 39.3146C130.386 39.3149 130.387 39.3151 130.387 39.3154C130.387 39.3155 130.387 39.3156 130.387 39.3157C130.387 39.3157 130.388 39.3158 130.388 39.3158C130.388 39.3158 130.388 39.3159 130.712 38.8112ZM129.878 37.1847C129.901 37.237 129.902 37.267 129.897 37.233C129.893 37.2108 129.888 37.173 129.884 37.1154C129.874 37.0006 129.868 36.8418 129.862 36.6381C129.856 36.4359 129.851 36.1999 129.846 35.9322C129.841 35.6657 129.835 35.3701 129.826 35.0536C129.791 33.7913 129.712 32.1751 129.454 30.6544C129.201 29.1594 128.759 27.6436 127.923 26.6719C127.491 26.1703 126.94 25.7976 126.253 25.6691C125.572 25.5417 124.827 25.6672 124.023 26.0326L124.519 27.1251C125.167 26.8307 125.658 26.7786 126.033 26.8486C126.401 26.9175 126.723 27.117 127.013 27.4548C127.622 28.1619 128.024 29.3938 128.271 30.8547C128.514 32.2898 128.591 33.8377 128.626 35.0869C128.635 35.3983 128.641 35.6898 128.646 35.9562C128.651 36.2214 128.656 36.4639 128.662 36.6727C128.668 36.8799 128.676 37.0644 128.688 37.2118C128.694 37.2852 128.701 37.3582 128.712 37.4248C128.721 37.4797 128.739 37.5766 128.781 37.672L129.878 37.1847ZM104.532 22.1277C105.321 22.564 105.796 23.1065 106.12 23.9882C106.461 24.9149 106.635 26.2149 106.759 28.1706L107.956 28.0948C107.833 26.1414 107.654 24.6822 107.247 23.5741C106.823 22.421 106.154 21.6529 105.112 21.0774L104.532 22.1277ZM107.785 28.5538C109.949 26.3572 111.331 25.4047 114.145 24.0649L113.63 22.9814C110.698 24.377 109.199 25.4087 106.93 27.7115L107.785 28.5538ZM117.317 34.5791L120.236 33.0426L119.677 31.9807L116.758 33.5172L117.317 34.5791ZM120.508 32.7478C120.996 31.6075 121.483 30.6055 122.366 29.4659C123.255 28.3194 124.561 27.0129 126.708 25.298L125.959 24.3604C123.769 26.1093 122.385 27.4827 121.418 28.7309C120.445 29.986 119.911 31.0932 119.405 32.2756L120.508 32.7478ZM126.106 24.2739C124.252 25.0326 123.162 25.5218 120.877 27.4429L121.649 28.3615C123.817 26.539 124.791 26.1084 126.56 25.3845L126.106 24.2739ZM121.855 27.8076C121.535 25.8006 120.707 24.2711 119.279 23.4075C117.864 22.5524 115.992 22.4307 113.755 22.938L114.02 24.1083C116.103 23.6359 117.616 23.8045 118.658 24.4344C119.685 25.0556 120.384 26.2054 120.67 27.9967L121.855 27.8076ZM100.225 23.7647C100.789 23.5154 101.293 23.6017 101.777 23.9865C102.296 24.3988 102.792 25.1638 103.176 26.2524C103.939 28.4176 104.173 31.6284 103.467 35.0008L104.641 35.2467C105.384 31.6975 105.156 28.2595 104.308 25.8535C103.886 24.6566 103.29 23.6555 102.524 23.0469C101.723 22.4108 100.749 22.2213 99.7399 22.667L100.225 23.7647ZM104.399 35.6144C105.752 34.6625 106.378 34.314 107.316 34.0031L106.938 32.8641C105.838 33.229 105.1 33.6541 103.709 34.6331L104.399 35.6144ZM105.188 21.1268C104.543 20.6312 103.635 20.6688 102.84 20.8326C102.003 21.005 101.083 21.3622 100.241 21.7538C99.3927 22.1478 98.596 22.5893 97.9996 22.9472C97.7013 23.1262 97.4496 23.2863 97.2639 23.4114C97.1716 23.4735 97.0917 23.5297 97.0288 23.5768C96.9977 23.6001 96.9662 23.6247 96.9377 23.6489C96.9202 23.6638 96.8654 23.7099 96.8173 23.7726L97.7694 24.503C97.7325 24.5511 97.6996 24.5762 97.7141 24.5638C97.7176 24.5609 97.7283 24.5522 97.7489 24.5367C97.7895 24.5063 97.8512 24.4626 97.9342 24.4067C98.0992 24.2956 98.3327 24.1467 98.6171 23.9761C99.186 23.6347 99.9449 23.2144 100.746 22.842C101.553 22.4671 102.377 22.1533 103.082 22.0079C103.829 21.854 104.26 21.9271 104.457 22.0783L105.188 21.1268ZM96.8173 23.7726C96.7421 23.8706 96.5491 24.0996 96.4192 24.4257C96.2834 24.7666 96.2218 25.189 96.3196 25.7085L97.4989 25.4863C97.4425 25.1869 97.4838 24.9958 97.534 24.8698C97.5901 24.7289 97.6662 24.6376 97.7694 24.503L96.8173 23.7726ZM97.2311 26.1038C98.6154 25.2239 99.2817 24.8233 100.035 24.5475L99.6223 23.4207C98.7266 23.7486 97.9515 24.224 96.5874 25.091L97.2311 26.1038ZM100.294 23.6056C100.272 23.5781 100.258 23.5586 100.25 23.5458C100.241 23.5329 100.242 23.531 100.245 23.5388C100.248 23.5472 100.256 23.568 100.26 23.599C100.264 23.6313 100.263 23.6674 100.255 23.7042C100.24 23.7781 100.207 23.8119 100.216 23.8017C100.22 23.797 100.231 23.7856 100.252 23.7672C100.273 23.7489 100.301 23.7263 100.338 23.6988L99.6263 22.7329C99.4412 22.8693 99.1543 23.0999 99.0798 23.4626C98.9967 23.8665 99.2172 24.1833 99.3631 24.3626L100.294 23.6056ZM100.256 23.7498C101.769 22.9741 102.76 22.6178 103.554 22.5453C104.308 22.4763 104.935 22.6597 105.737 23.1155L106.33 22.072C105.392 21.5394 104.518 21.252 103.444 21.3503C102.409 21.445 101.245 21.8939 99.7085 22.682L100.256 23.7498ZM79.1063 21.0619C74.8165 23.1262 72.2688 25.54 71.0982 27.943C69.9173 30.367 70.1629 32.7383 71.3794 34.5729C73.7987 38.2214 79.8294 39.5158 85.3267 35.5327L84.6226 34.561C79.5516 38.2353 74.3408 36.8676 72.3795 33.9097C71.4056 32.441 71.1761 30.523 72.177 28.4685C73.1881 26.393 75.4791 24.139 79.6267 22.1432L79.1063 21.0619ZM77.1259 24.165C78.0145 23.6931 78.8991 23.662 79.5069 23.8683C80.1177 24.0756 80.3483 24.4581 80.3065 24.8408L81.4994 24.9712C81.6221 23.8487 80.8427 23.0545 79.8926 22.732C78.9396 22.4085 77.7126 22.4947 76.563 23.1052L77.1259 24.165ZM81.2448 25.3991C82.628 24.44 83.1771 24.1617 83.9144 23.9452L83.5764 22.7938C82.6526 23.065 81.977 23.4311 80.5611 24.413L81.2448 25.3991ZM84.3374 23.4673C84.5532 22.161 83.5478 21.3085 82.5348 20.9394C81.4974 20.5615 80.1581 20.5466 79.1026 21.0637L79.6305 22.1414C80.3479 21.7899 81.3428 21.7823 82.124 22.067C82.9295 22.3604 83.2271 22.8257 83.1535 23.2718L84.3374 23.4673ZM79.036 21.1018C74.4318 24.1404 73.0011 27.7987 73.8009 30.8932C74.5889 33.942 77.4897 36.1891 81.0012 36.5145L81.1119 35.3196C78.0185 35.033 75.6038 33.0731 74.9627 30.5929C74.3335 28.1583 75.3603 24.9653 79.697 22.1033L79.036 21.1018ZM81.0012 36.5145C81.547 36.565 82.3673 36.4665 83.136 36.3018C83.9058 36.1369 84.7329 35.8825 85.277 35.5651L84.6723 34.5286C84.2945 34.749 83.6164 34.9717 82.8847 35.1285C82.1517 35.2855 81.474 35.3531 81.1119 35.3196L81.0012 36.5145ZM85.9921 28.6638C86.0183 28.8862 85.9336 29.3948 85.6663 30.1167C85.4106 30.8072 85.0202 31.6076 84.5313 32.3746C84.0415 33.1431 83.4653 33.8585 82.8457 34.3944C82.222 34.9337 81.5938 35.2575 80.9941 35.3203L81.119 36.5138C82.0511 36.4163 82.9023 35.9319 83.6306 35.3021C84.3628 34.6689 85.0111 33.8545 85.5433 33.0195C86.0764 32.183 86.5055 31.3063 86.7917 30.5333C87.0663 29.7916 87.2459 29.0502 87.1838 28.5234L85.9921 28.6638ZM89.4297 26.5542C89.3481 26.6351 89.1798 26.7565 88.9208 26.9062C88.6717 27.0502 88.373 27.2011 88.0591 27.3471C87.43 27.6397 86.7725 27.8976 86.3955 28.0253L86.7804 29.1619C87.2022 29.0191 87.9002 28.7445 88.5652 28.4352C88.8984 28.2802 89.2313 28.1128 89.5213 27.9451C89.8013 27.7833 90.0796 27.5997 90.2745 27.4064L89.4297 26.5542ZM95.2967 33.2361C94.4325 33.8278 93.6852 34.5377 93.0989 35.0673C92.7972 35.3399 92.5468 35.5571 92.3316 35.7104C92.1022 35.8738 91.9901 35.9065 91.9606 35.9094L92.0782 37.1037C92.4356 37.0685 92.7635 36.876 93.0278 36.6878C93.3062 36.4895 93.6032 36.2288 93.9033 35.9578C94.5204 35.4003 95.1942 34.7606 95.9747 34.2262L95.2967 33.2361ZM85.368 35.4999C86.2455 34.738 87.4881 33.2915 88.1531 32.4615L87.2166 31.7112C86.5563 32.5354 85.3708 33.9082 84.5813 34.5938L85.368 35.4999ZM92.2082 35.937C90.7312 35.4473 89.8501 35.0017 89.2882 34.4378C88.7484 33.8961 88.4437 33.183 88.2791 32.0034L87.0906 32.1693C87.2743 33.4858 87.6441 34.4878 88.4381 35.2848C89.21 36.0594 90.3221 36.5759 91.8305 37.0761L92.2082 35.937ZM88.1531 32.4615C88.9025 31.5262 89.369 30.8343 89.682 30.2064C89.9993 29.5695 90.1463 29.0226 90.2831 28.4057L89.1115 28.146C88.9834 28.7239 88.8618 29.1617 88.6079 29.6711C88.3496 30.1895 87.9424 30.8054 87.2166 31.7112L88.1531 32.4615ZM90.2939 28.3393C90.3215 28.0804 90.432 27.2825 90.4506 27.0231L89.2536 26.9375C89.2356 27.1895 89.1404 27.839 89.1007 28.2124L90.2939 28.3393ZM95.7424 33.1408C94.7784 32.9664 93.946 32.8253 93.2199 32.6397C92.4959 32.4546 91.9303 32.2375 91.4967 31.9382C90.7003 31.3886 90.1898 30.4484 90.2966 28.3057L89.098 28.246C88.9808 30.6006 89.5373 32.0441 90.8151 32.9259C91.4185 33.3423 92.1417 33.6027 92.9228 33.8023C93.7018 34.0014 94.5908 34.152 95.5289 34.3216L95.7424 33.1408ZM66.3472 33.3349C60.8702 38.3223 53.2952 38.4546 49.3103 36.0834C47.3451 34.914 46.3369 33.204 46.7127 31.2027C47.1019 29.1306 49.0018 26.5417 53.3972 23.7606L52.7556 22.7465C48.2645 25.5882 46.0153 28.4149 45.5334 30.9812C45.0381 33.6185 46.4366 35.7698 48.6967 37.1146C53.1621 39.7718 61.311 39.5439 67.1552 34.2222L66.3472 33.3349ZM26.7496 1.51383C25.4431 17.4991 23.297 28.7487 12.3305 36.4102L13.0177 37.3939C24.484 29.3832 26.64 17.5854 27.9456 1.61158L26.7496 1.51383ZM27.9156 1.3696C27.8218 1.09354 27.6718 0.756619 27.3364 0.55824C27.0062 0.362896 26.636 0.385313 26.3341 0.431963L26.5173 1.61789C26.6334 1.59996 26.6995 1.59834 26.7349 1.601C26.7649 1.60325 26.7525 1.60707 26.7255 1.59106C26.6975 1.57453 26.6917 1.55925 26.7033 1.57763C26.7185 1.60154 26.7446 1.65306 26.7795 1.7558L27.9156 1.3696ZM26.1412 0.496644L23.1451 2.10997L23.714 3.16653L26.7101 1.55321L26.1412 0.496644ZM23.4232 3.23821C23.5279 3.23932 23.5852 3.2477 23.6136 3.25442C23.6377 3.26011 23.6256 3.26095 23.602 3.2431C23.5776 3.22457 23.5699 3.208 23.5749 3.21725C23.5831 3.23226 23.5991 3.26831 23.6229 3.34789L24.7726 3.00416C24.709 2.79147 24.6021 2.49551 24.3272 2.28703C24.0559 2.08123 23.7292 2.04137 23.4358 2.03828L23.4232 3.23821ZM12.3103 36.4249C9.32644 38.7001 6.86129 39.1179 5.10774 38.5792C3.35974 38.0423 2.13878 36.5002 1.73921 34.4535C0.944285 30.3818 3.48505 24.3792 11.7013 21.8023L11.3421 20.6573C2.65688 23.3813 -0.372183 29.9012 0.561444 34.6835C1.02615 37.0638 2.49406 39.0317 4.75537 39.7263C7.01112 40.4193 9.87572 39.7903 13.0379 37.3792L12.3103 36.4249ZM7.12511 37.9983C9.568 38.7879 12.0986 37.501 14.3511 35.1994C16.6274 32.8733 18.7766 29.3654 20.5272 25.2826L19.4243 24.8097C17.7078 28.8131 15.6302 32.1766 13.4934 34.36C11.3327 36.5679 9.26374 37.4285 7.49419 36.8565L7.12511 37.9983ZM11.2226 20.7097C6.4893 23.4314 4.11351 27.0523 3.54364 30.347C2.97746 33.6204 4.21085 36.6211 6.7466 37.8357L7.265 36.7535C5.34261 35.8326 4.22451 33.4514 4.72609 30.5515C5.22399 27.6729 7.33523 24.3292 11.8208 21.75L11.2226 20.7097ZM6.7466 37.8357C6.85835 37.8893 6.97232 37.9391 7.08843 37.9851L7.53086 36.8697C7.44031 36.8337 7.35168 36.795 7.26501 36.7535L6.7466 37.8357ZM6.7466 37.8357C8.4348 38.6444 10.5858 38.5968 12.9387 37.4405L12.4095 36.3636C10.3067 37.3969 8.54891 37.3685 7.265 36.7535L6.7466 37.8357ZM20.5272 25.2826C23.3486 18.702 25.1796 10.52 24.797 3.14493L23.5986 3.20711C23.97 10.3645 22.1882 18.3631 19.4243 24.8097L20.5272 25.2826ZM52.6479 22.8335C52.3106 23.1777 51.9213 23.5953 51.6287 23.9353L52.5383 24.7181C52.8096 24.4028 53.1803 24.0047 53.5049 23.6736L52.6479 22.8335ZM51.6287 23.9353C49.4319 26.4882 48.5662 28.8425 48.815 30.8743C49.0658 32.9228 50.4279 34.4773 52.3148 35.4591C56.0565 37.4061 62.0829 37.2467 67.0574 34.2945L66.445 33.2626C61.7696 36.0372 56.1862 36.1208 52.8687 34.3946C51.2259 33.5397 50.1959 32.2785 50.0061 30.7284C49.8142 29.1615 50.4592 27.134 52.5383 24.7181L51.6287 23.9353ZM79.036 21.1018C78.0087 21.7797 77.1402 22.4869 76.419 23.212L77.2699 24.0582C77.9267 23.3978 78.7299 22.7415 79.697 22.1033L79.036 21.1018ZM124.675 27.0222C125.255 26.4933 125.926 25.9226 126.708 25.298L125.959 24.3604C125.16 24.9983 124.469 25.586 123.866 26.1355L124.675 27.0222ZM111.776 25.976C114.435 25.3376 116.226 26.1559 117.067 27.553C117.932 28.9881 117.933 31.2519 116.515 33.7522L117.559 34.3441C119.114 31.6028 119.254 28.8569 118.095 26.9336C116.914 24.9723 114.518 24.0836 111.496 24.8091L111.776 25.976ZM120.508 32.7478C121.294 30.9131 122.096 29.3743 124.675 27.0222L123.866 26.1355C121.14 28.6222 120.246 30.3116 119.405 32.2756L120.508 32.7478ZM113.535 23.0379C112.667 23.669 111.902 24.2945 111.217 24.9631L112.055 25.822C112.689 25.2037 113.406 24.6152 114.24 24.0085L113.535 23.0379ZM107.696 33.6238C108.973 29.8036 110.178 27.6534 112.055 25.822L111.217 24.9631C109.15 26.9797 107.867 29.329 106.558 33.2433L107.696 33.6238ZM111.769 25.9777L111.776 25.9759L111.496 24.8091L111.488 24.8109L111.769 25.9777ZM11.3925 20.6431C11.3824 20.6459 11.3724 20.6486 11.3628 20.6512L11.6806 21.8084C11.6893 21.806 11.6976 21.8037 11.7057 21.8015L11.3925 20.6431ZM8.92637 23.7459C8.94163 23.7391 8.9569 23.7324 8.97217 23.7258L8.49826 22.6234C8.47828 22.6319 8.45834 22.6407 8.43843 22.6495L8.92637 23.7459ZM11.2455 20.7048C10.0262 21.42 9.3822 21.8634 8.3535 22.7117L9.11694 23.6375C10.0916 22.8338 10.6825 22.4263 11.8527 21.7399L11.2455 20.7048ZM20.4518 24.681C20.4406 24.6664 20.4288 24.651 20.4176 24.6366L19.4677 25.3698C19.4782 25.3834 19.4892 25.3977 19.4996 25.4113L20.4518 24.681ZM20.4176 24.6366C18.0293 21.542 14.9554 19.68 11.3925 20.6431L11.7057 21.8015C14.5904 21.0217 17.2154 22.4516 19.4677 25.3698L20.4176 24.6366ZM8.97217 23.7258C10.5917 23.0296 12.4848 23.5321 14.1949 24.6485C15.9007 25.7621 17.2603 27.3857 17.7669 28.6248L18.8776 28.1707C18.2598 26.6593 16.7137 24.8598 14.8509 23.6437C12.9925 22.4304 10.6543 21.6965 8.49826 22.6234L8.97217 23.7258ZM17.7669 28.6248C17.7731 28.64 17.7791 28.655 17.785 28.6699L18.9011 28.2291C18.8934 28.2096 18.8856 28.1902 18.8776 28.1707L17.7669 28.6248ZM19.3898 24.7701C18.7158 26.3687 18.3832 27.0141 17.7934 28.1143L18.8511 28.6813C19.4546 27.5553 19.8042 26.8759 20.4955 25.2363L19.3898 24.7701ZM53.3466 23.7893C53.3496 23.7878 53.3525 23.7863 53.3554 23.7849L52.8157 22.7131C52.8125 22.7147 52.8093 22.7163 52.8063 22.7178L53.3466 23.7893ZM53.3554 23.7849C55.3909 22.7598 57.0997 22.3752 58.4094 22.3917C59.7252 22.4082 60.5923 22.825 61.045 23.3475C61.4803 23.85 61.6059 24.531 61.2881 25.3027C60.9618 26.0948 60.1527 26.9995 58.6801 27.7857L59.2453 28.8443C60.876 27.9736 61.9328 26.8884 62.3976 25.7597C62.8709 24.6106 62.7128 23.4398 61.9519 22.5617C61.2086 21.7038 59.9671 21.2112 58.4245 21.1918C56.8757 21.1723 54.9761 21.6251 52.8157 22.7131L53.3554 23.7849ZM52.288 24.8908C52.291 24.8897 52.2941 24.8886 52.2972 24.8875L51.8891 23.759C51.8857 23.7602 51.8824 23.7614 51.879 23.7626L52.288 24.8908ZM52.2972 24.8875C53.953 24.2886 55.3298 24.1768 56.3496 24.3467C57.3786 24.5182 57.9889 24.9619 58.2458 25.4232C58.4861 25.8549 58.4899 26.4336 58.0169 27.0991C57.5314 27.782 56.5498 28.5292 54.8976 29.1315L55.3086 30.2589C57.0939 29.6081 58.3195 28.7446 58.9949 27.7944C59.6827 26.8268 59.8012 25.7501 59.2943 24.8395C58.8038 23.9585 57.8048 23.3727 56.5468 23.1631C55.2796 22.9519 53.6915 23.1071 51.8891 23.759L52.2972 24.8875ZM52.6522 22.834C52.2444 23.2599 52.0235 23.5001 51.6455 23.9237L52.5408 24.7227C52.9104 24.3086 53.1217 24.0788 53.5189 23.6639L52.6522 22.834ZM55.243 30.2787C56.5659 29.9614 57.8089 29.4602 59.1984 28.8668L58.727 27.7632C57.3409 28.3553 56.1789 28.8202 54.9631 29.1118L55.243 30.2787ZM58.727 27.7632C57.1496 28.437 55.8609 28.9466 54.4575 29.2221C53.0635 29.4958 51.5298 29.5431 49.4785 29.2507L49.3091 30.4387C51.4693 30.7466 53.1406 30.7036 54.6887 30.3996C56.2271 30.0976 57.6172 29.5421 59.1984 28.8668L58.727 27.7632ZM49.4785 29.2507C49.4651 29.2488 49.4872 29.2519 49.4701 29.2494L49.3003 30.4374C49.301 30.4375 49.3018 30.4376 49.3034 30.4378C49.3047 30.438 49.3069 30.4383 49.3091 30.4387L49.4785 29.2507ZM49.8979 32.8042L49.9029 32.8035L49.7318 31.6157L49.7268 31.6165L49.8979 32.8042ZM49.9015 32.8037C53.7766 32.2547 56.9118 30.5606 59.3172 28.799L58.6082 27.8309C56.3051 29.5176 53.3528 31.1028 49.7332 31.6155L49.9015 32.8037ZM48.7939 29.8326C48.7729 30.8842 48.884 31.4793 49.2593 32.43L50.3755 31.9893C50.0581 31.1854 49.9758 30.7483 49.9937 29.8567L48.7939 29.8326ZM54.9631 29.1118C53.4274 29.4801 51.7761 29.5782 49.4785 29.2507L49.3091 30.4387C51.7336 30.7843 53.5393 30.6873 55.243 30.2787L54.9631 29.1118Z" fill="#2C42B5"/>
<path d="M149.797 7.78418L146.186 9.47433C145.76 12.1205 145.09 15.4487 144.494 18.9239C142.833 28.5964 141.74 39.4075 148.03 39.8201C151.18 40.0267 157.922 36.2857 159.938 34.1351C155.572 37.2292 151.18 38.5705 148.03 36.2862C145.94 33.944 146.191 26.1421 147.416 18.4628C148.024 14.6442 148.919 10.8487 149.797 7.78418Z" fill="#00A7EE"/>
<path d="M147.196 19.9162C151.2 18.3711 153.974 17.0959 155.866 15.3898C153.232 16.6922 149.868 18.0659 147.416 18.4628C147.338 18.9473 147.265 19.4322 147.196 19.9162Z" fill="#00A7EE"/>
<path d="M141.27 18.2323C138.747 20.1134 138.268 20.3524 138.043 20.2298C138.753 21.3279 140.145 21.4693 144.165 20.9075C144.271 20.2435 144.381 19.5811 144.494 18.9239C142.489 19.0125 141.214 19.1347 141.27 18.2323Z" fill="#00A7EE"/>
<path d="M164.394 22.5345C165.148 23.2217 165.442 34.1135 161.475 38.4373C164.685 36.7631 167.119 29.8329 167.119 29.8329C167.26 28.9167 167.354 27.9209 167.404 26.8367C167.484 25.0826 167.449 23.0972 167.313 20.8444C167.313 20.8444 163.64 21.8474 164.394 22.5345Z" fill="#00A7EE"/>
<path d="M167.119 29.8329C170.342 25.2821 174.543 21.8847 177.915 24.4552L181.065 22.765C178.008 20.8282 175.236 21.3801 167.404 26.8367C167.354 27.9209 167.26 28.9167 167.119 29.8329Z" fill="#00A7EE"/>
<path d="M185.874 24.4552L182.955 25.838C181.958 33.1503 183.295 37.7045 184.184 38.0531C185.073 38.4018 187.604 38.0576 189.254 37.0544C185.111 39.5542 184.569 30.3041 185.874 24.4552Z" fill="#00A7EE"/>
<path d="M186.489 16.0813C184.088 17.3939 183.714 17.603 183.569 17.6946C183.695 19.3661 183.998 19.841 185.413 20.0761C186.488 19.6197 187.307 18.9656 188.947 17.925C187.134 18.2368 186.699 18.0119 186.489 16.0813Z" fill="#00A7EE"/>
<path d="M199.933 31.9538L197.244 33.7208C201.812 36.1288 204.393 35.2242 208.762 32.2239C207.876 32.732 206.75 32.7754 205.925 32.9593C202.931 33.6268 201.105 33.1296 199.933 31.9538Z" fill="#00A7EE"/>
<path d="M193.249 55.9999C195.088 55.2469 195.996 54.7219 196.86 53.4647C196.315 53.6898 196.084 53.7204 196.092 53.2342C196.941 41.905 198.046 28.4698 196.234 22.2405C196.08 21.7111 195.905 21.2337 195.707 20.8142C194.341 21.3316 193.735 21.7107 192.942 22.5811C196.629 29.4953 192.02 54.617 193.249 55.9999Z" fill="#00A7EE"/>
<path d="M196.245 22.2739C208.614 17.4339 212.225 28.8808 205.925 32.9593L207.147 32.7458L207.539 32.6675L207.923 32.5695L208.279 32.4508L208.515 32.3512L208.762 32.2239C216.711 26.5294 208.407 15.0244 195.996 21.5099C196.081 21.7409 196.16 21.9846 196.234 22.2405L196.245 22.2739Z" fill="#00A7EE"/>
<path d="M197.244 33.7208L196.914 33.2194C196.737 33.336 196.634 33.5376 196.645 33.7497C196.655 33.9617 196.776 34.1526 196.964 34.2516L197.244 33.7208ZM199.933 31.9538L200.358 31.5303C200.157 31.3285 199.841 31.2959 199.603 31.4524L199.933 31.9538ZM208.762 32.2239L209.101 32.7185L209.111 32.7116L208.762 32.2239ZM196.245 22.2739L195.675 22.4597C195.726 22.6168 195.84 22.7458 195.989 22.8164C196.138 22.887 196.31 22.8928 196.464 22.8327L196.245 22.2739ZM195.996 21.5099L195.718 20.9782C195.459 21.1139 195.335 21.4173 195.426 21.6959L195.996 21.5099ZM193.249 55.9999L192.801 56.3985C192.97 56.5889 193.241 56.6516 193.477 56.5551L193.249 55.9999ZM196.86 53.4647L197.354 53.8043C197.505 53.5854 197.493 53.2936 197.326 53.0871C197.159 52.8807 196.876 52.8087 196.631 52.9102L196.86 53.4647ZM196.092 53.2342L195.493 53.1893C195.492 53.2012 195.492 53.2131 195.492 53.225L196.092 53.2342ZM192.942 22.5811L192.498 22.177C192.327 22.3646 192.293 22.6395 192.412 22.8635L192.942 22.5811ZM195.707 20.8142L196.25 20.5581C196.117 20.275 195.788 20.1422 195.495 20.253L195.707 20.8142ZM186.489 16.0813L187.085 16.0162C187.063 15.8171 186.944 15.642 186.766 15.5493C186.589 15.4567 186.376 15.4587 186.201 15.5548L186.489 16.0813ZM183.569 17.6946L183.249 17.1874C183.061 17.306 182.954 17.5183 182.971 17.7395L183.569 17.6946ZM185.413 20.0761L185.315 20.668C185.427 20.6867 185.543 20.673 185.648 20.6284L185.413 20.0761ZM188.947 17.925L189.268 18.4317C189.51 18.2784 189.61 17.9761 189.507 17.7093C189.404 17.4424 189.127 17.2853 188.845 17.3337L188.947 17.925ZM191.405 35.3643L191.866 35.7484C192.05 35.5281 192.052 35.2086 191.871 34.986C191.69 34.7634 191.377 34.6998 191.124 34.8344L191.405 35.3643ZM188.811 36.6055C188.521 36.7652 188.415 37.13 188.575 37.4204C188.735 37.7107 189.099 37.8167 189.39 37.657L188.811 36.6055ZM186.008 33.0604C185.966 32.7317 185.666 32.4992 185.337 32.5412C185.008 32.5832 184.776 32.8836 184.818 33.2123L186.008 33.0604ZM185.874 24.4552L186.46 24.5858C186.509 24.362 186.428 24.1294 186.248 23.9863C186.069 23.8433 185.824 23.8148 185.617 23.9129L185.874 24.4552ZM182.955 25.838L182.698 25.2958C182.515 25.3826 182.387 25.5561 182.36 25.757L182.955 25.838ZM184.184 38.0531L183.965 38.6117L184.184 38.0531ZM189.254 37.0544L189.566 37.5671C189.849 37.3952 189.939 37.0268 189.767 36.7436C189.596 36.4605 189.228 36.3697 188.944 36.5407L189.254 37.0544ZM141.27 18.2323L141.868 18.2694C141.883 18.0362 141.761 17.8158 141.555 17.7046C141.35 17.5935 141.098 17.6117 140.911 17.7513L141.27 18.2323ZM138.043 20.2298L138.33 19.703C138.089 19.5716 137.79 19.6205 137.603 19.8216C137.416 20.0228 137.39 20.325 137.539 20.5555L138.043 20.2298ZM144.165 20.9075L144.248 21.5018C144.51 21.4653 144.716 21.2622 144.758 21.0016L144.165 20.9075ZM144.523 19.5231C144.855 19.5081 145.111 19.2276 145.096 18.8965C145.081 18.5655 144.8 18.3093 144.469 18.3244L144.523 19.5231ZM155.866 15.3898L156.268 15.8355C156.491 15.6348 156.531 15.3008 156.363 15.0528C156.194 14.8049 155.869 14.7192 155.6 14.852L155.866 15.3898ZM147.196 19.9162L146.602 19.8314C146.572 20.0422 146.656 20.2531 146.822 20.3857C146.989 20.5183 147.213 20.5527 147.412 20.476L147.196 19.9162ZM149.797 7.78418L150.374 7.94939C150.439 7.72328 150.365 7.48019 150.186 7.32759C150.008 7.175 149.756 7.14106 149.543 7.24077L149.797 7.78418ZM146.186 9.47433L145.932 8.93091C145.752 9.01509 145.626 9.18277 145.594 9.37879L146.186 9.47433ZM148.03 39.8201L147.991 40.4188H147.991L148.03 39.8201ZM159.938 34.1351L160.376 34.5454C160.586 34.3207 160.593 33.9729 160.39 33.7407C160.188 33.5086 159.842 33.4674 159.591 33.6456L159.938 34.1351ZM148.03 36.2862L147.583 36.6856C147.611 36.7177 147.643 36.7466 147.678 36.7719L148.03 36.2862ZM161.475 38.4373L161.032 38.0316C160.836 38.2462 160.821 38.5714 160.999 38.8025C161.176 39.0337 161.494 39.104 161.752 38.9693L161.475 38.4373ZM167.313 20.8444L167.912 20.8082C167.901 20.6278 167.81 20.462 167.663 20.3567C167.516 20.2515 167.33 20.218 167.155 20.2656L167.313 20.8444ZM177.915 24.4552L177.551 24.9323C177.738 25.0749 177.991 25.0951 178.199 24.9839L177.915 24.4552ZM181.065 22.765L181.349 23.2937C181.537 23.1929 181.657 22.9998 181.664 22.7867C181.672 22.5735 181.566 22.3723 181.386 22.2582L181.065 22.765ZM167.404 26.8367L166.804 26.8092L167.404 26.8367ZM147.416 18.4628L146.823 18.3683V18.3684L147.416 18.4628ZM207.147 32.7458L207.251 33.3368C207.255 33.336 207.26 33.3351 207.265 33.3341L207.147 32.7458ZM207.539 32.6675L207.656 33.2558C207.667 33.2538 207.677 33.2515 207.687 33.2489L207.539 32.6675ZM207.923 32.5695L208.071 33.1509C208.085 33.1473 208.099 33.1432 208.113 33.1386L207.923 32.5695ZM208.279 32.4508L208.469 33.0198C208.483 33.015 208.497 33.0096 208.512 33.0037L208.279 32.4508ZM208.515 32.3512L208.748 32.9041C208.762 32.8981 208.776 32.8915 208.79 32.8844L208.515 32.3512ZM197.573 34.2222L200.262 32.4552L199.603 31.4524L196.914 33.2194L197.573 34.2222ZM208.422 31.7292C206.243 33.2258 204.599 34.1326 202.977 34.409C201.387 34.6798 199.736 34.3562 197.524 33.19L196.964 34.2516C199.32 35.4934 201.243 35.9215 203.178 35.5919C205.08 35.2679 206.912 34.2222 209.101 32.7185L208.422 31.7292ZM199.508 32.3774C200.88 33.7543 202.951 34.237 206.056 33.5449L205.795 32.3737C202.91 33.0167 201.329 32.5048 200.358 31.5303L199.508 32.3774ZM206.056 33.5449C206.242 33.5034 206.45 33.4688 206.687 33.4307C206.919 33.3934 207.176 33.3531 207.436 33.3019C207.955 33.2 208.533 33.0467 209.06 32.7443L208.463 31.7034C208.105 31.9091 207.677 32.0317 207.205 32.1245C206.97 32.1707 206.736 32.2074 206.497 32.2459C206.263 32.2835 206.021 32.3233 205.795 32.3737L206.056 33.5449ZM196.464 22.8327C202.481 20.4781 206.112 22.1513 207.571 24.581C209.07 27.076 208.472 30.5958 205.599 32.4557L206.251 33.463C209.678 31.2443 210.425 27.0013 208.6 23.9633C206.737 20.8599 202.378 19.2297 196.027 21.7152L196.464 22.8327ZM196.274 22.0417C202.297 18.8946 207.169 20.1707 209.579 22.7123C210.792 23.9918 211.398 25.5977 211.268 27.1865C211.139 28.7665 210.276 30.4013 208.412 31.7361L209.111 32.7116C211.223 31.1992 212.302 29.2605 212.464 27.2844C212.625 25.3171 211.87 23.3844 210.45 21.8865C207.592 18.8733 202.107 17.6397 195.718 20.9782L196.274 22.0417ZM193.477 56.5551C195.35 55.788 196.391 55.2074 197.354 53.8043L196.365 53.125C195.602 54.2365 194.826 54.7058 193.022 55.4446L193.477 56.5551ZM196.631 52.9102C196.499 52.9648 196.411 52.9969 196.35 53.0134C196.322 53.0213 196.31 53.0224 196.312 53.0222C196.314 53.0221 196.342 53.0189 196.386 53.0279C196.435 53.0376 196.499 53.061 196.56 53.1095C196.621 53.1576 196.656 53.2121 196.675 53.2518C196.692 53.2882 196.694 53.3106 196.694 53.3054C196.693 53.3009 196.691 53.2821 196.692 53.2433L195.492 53.225C195.489 53.3764 195.501 53.5758 195.589 53.7622C195.697 53.9927 195.898 54.154 196.151 54.2046C196.353 54.245 196.544 54.2047 196.668 54.1706C196.804 54.1333 196.949 54.0771 197.089 54.0191L196.631 52.9102ZM192.412 22.8635C193.262 24.457 193.667 27.1961 193.773 30.5442C193.878 33.8612 193.687 37.6678 193.419 41.3208C193.285 43.1457 193.132 44.9283 192.986 46.5891C192.841 48.248 192.704 49.7885 192.603 51.1217C192.502 52.4521 192.435 53.5929 192.434 54.4496C192.434 54.8764 192.449 55.2511 192.489 55.5514C192.509 55.7015 192.537 55.8479 192.578 55.98C192.616 56.1034 192.68 56.263 192.801 56.3985L193.698 55.6013C193.741 55.6503 193.74 55.6771 193.723 55.6239C193.71 55.5794 193.693 55.5054 193.678 55.3939C193.649 55.1709 193.634 54.8573 193.634 54.4514C193.635 53.6425 193.699 52.5398 193.799 51.2125C193.9 49.8881 194.036 48.3568 194.182 46.6936C194.327 45.0323 194.481 43.2426 194.616 41.4087C194.885 37.7442 195.079 33.8875 194.972 30.5064C194.867 27.1563 194.465 24.1623 193.471 22.2988L192.412 22.8635ZM193.385 22.9853C193.758 22.5767 194.068 22.3033 194.432 22.0714C194.802 21.8356 195.251 21.6285 195.92 21.3753L195.495 20.253C194.797 20.5172 194.26 20.7584 193.787 21.0591C193.309 21.3637 192.919 21.7151 192.498 22.177L193.385 22.9853ZM186.201 15.5548C183.815 16.8591 183.415 17.0825 183.249 17.1874L183.89 18.2017C184.013 18.1236 184.36 17.9287 186.776 16.6077L186.201 15.5548ZM182.971 17.7395C183.033 18.5657 183.142 19.2711 183.528 19.7845C183.942 20.3353 184.573 20.5448 185.315 20.668L185.511 19.4843C184.838 19.3724 184.61 19.2268 184.487 19.0634C184.336 18.8628 184.231 18.495 184.167 17.6496L182.971 17.7395ZM185.648 20.6284C186.783 20.1464 187.694 19.4309 189.268 18.4317L188.625 17.4184C186.92 18.5003 186.193 19.093 185.178 19.5239L185.648 20.6284ZM188.845 17.3337C188.399 17.4105 188.08 17.4461 187.842 17.4402C187.61 17.4344 187.513 17.3898 187.466 17.356C187.421 17.3238 187.348 17.2497 187.274 17.033C187.197 16.8097 187.136 16.4869 187.085 16.0162L185.892 16.1463C185.946 16.641 186.018 17.0703 186.139 17.4224C186.262 17.7811 186.451 18.1058 186.768 18.3321C187.082 18.5569 187.447 18.6307 187.813 18.6398C188.173 18.6487 188.588 18.5955 189.049 18.5164L188.845 17.3337ZM191.405 35.3643C190.944 34.9801 190.944 34.98 190.945 34.9799C190.945 34.9799 190.945 34.9798 190.945 34.9797C190.945 34.9796 190.945 34.9795 190.945 34.9794C190.945 34.9791 190.945 34.979 190.945 34.9789C190.946 34.9787 190.946 34.9787 190.945 34.979C190.945 34.9794 190.944 34.9808 190.942 34.9829C190.938 34.9873 190.932 34.9949 190.922 35.0057C190.903 35.0271 190.872 35.0609 190.829 35.1051C190.744 35.1935 190.612 35.3233 190.434 35.4793C190.077 35.7915 189.536 36.2069 188.811 36.6055L189.39 37.657C190.201 37.2105 190.813 36.7425 191.224 36.3824C191.43 36.2023 191.586 36.0488 191.693 35.9379C191.747 35.8825 191.788 35.8376 191.817 35.8054C191.831 35.7893 191.842 35.7763 191.851 35.7667C191.855 35.7619 191.858 35.758 191.861 35.7549C191.862 35.7534 191.863 35.7521 191.864 35.751C191.865 35.7504 191.865 35.7499 191.865 35.7495C191.865 35.7493 191.866 35.7491 191.866 35.7489C191.866 35.7488 191.866 35.7487 191.866 35.7486C191.866 35.7485 191.866 35.7484 191.405 35.3643ZM191.124 34.8344C190.17 35.341 189.386 35.685 188.743 35.8666C188.096 36.0492 187.651 36.0501 187.337 35.9455C187.045 35.8484 186.783 35.6323 186.554 35.1812C186.316 34.7143 186.132 34.0274 186.008 33.0604L184.818 33.2123C184.948 34.2357 185.156 35.0797 185.484 35.7252C185.82 36.3866 186.298 36.8645 186.957 37.084C187.593 37.2959 188.309 37.236 189.069 37.0215C189.833 36.8059 190.703 36.4164 191.687 35.8942L191.124 34.8344ZM185.617 23.9129L182.698 25.2958L183.211 26.3802L186.131 24.9974L185.617 23.9129ZM182.36 25.757C181.855 29.4629 181.939 32.4878 182.269 34.6477C182.434 35.7254 182.663 36.6028 182.919 37.2475C183.047 37.5688 183.188 37.8486 183.342 38.0706C183.486 38.2777 183.689 38.5035 183.965 38.6117L184.403 37.4945C184.457 37.5156 184.423 37.5228 184.327 37.3856C184.242 37.2632 184.141 37.0729 184.034 36.804C183.821 36.2681 183.611 35.4846 183.455 34.4662C183.144 32.4338 183.058 29.5254 183.549 25.919L182.36 25.757ZM183.965 38.6117C184.289 38.7388 184.701 38.7841 185.117 38.7852C185.547 38.7864 186.034 38.7405 186.538 38.6516C187.539 38.4747 188.66 38.1177 189.566 37.5671L188.943 36.5417C188.198 36.9943 187.228 37.311 186.329 37.4699C185.883 37.5487 185.467 37.5862 185.121 37.5852C184.762 37.5842 184.523 37.5418 184.403 37.4945L183.965 38.6117ZM188.944 36.5407C188.495 36.8115 188.154 36.8872 187.903 36.8718C187.662 36.857 187.437 36.755 187.217 36.5365C186.742 36.0661 186.352 35.1192 186.112 33.7796C185.638 31.1422 185.821 27.4494 186.46 24.5858L185.288 24.3245C184.622 27.3099 184.423 31.1666 184.931 33.9916C185.18 35.3831 185.622 36.6456 186.373 37.3892C186.765 37.7778 187.253 38.0341 187.829 38.0695C188.395 38.1043 188.977 37.9223 189.564 37.5681L188.944 36.5407ZM140.911 17.7513C139.646 18.6941 138.919 19.2067 138.484 19.4687C138.263 19.6024 138.156 19.6469 138.116 19.6589C138.094 19.6655 138.2 19.6318 138.33 19.703L137.756 20.7565C137.999 20.889 138.249 20.8714 138.459 20.8089C138.65 20.7519 138.863 20.6421 139.104 20.4961C139.597 20.1991 140.37 19.6516 141.628 18.7134L140.911 17.7513ZM137.539 20.5555C138.017 21.2955 138.731 21.6713 139.798 21.7876C140.82 21.899 142.241 21.7823 144.248 21.5018L144.082 20.3133C142.069 20.5946 140.784 20.688 139.928 20.5946C139.116 20.5061 138.778 20.2621 138.547 19.9041L137.539 20.5555ZM155.465 14.9442C153.665 16.5666 150.992 17.8085 146.98 19.3565L147.412 20.476C151.409 18.9337 154.283 17.6253 156.268 15.8355L155.465 14.9442ZM149.543 7.24077L145.932 8.93091L146.441 10.0177L150.052 8.32759L149.543 7.24077ZM147.991 40.4188C148.891 40.4778 149.988 40.2561 151.12 39.8927C152.264 39.5254 153.494 38.9963 154.68 38.397C157.032 37.2081 159.296 35.6973 160.376 34.5454L159.5 33.7247C158.564 34.7234 156.449 36.1585 154.139 37.326C152.993 37.905 151.822 38.4069 150.753 38.7501C149.672 39.0973 148.745 39.2657 148.069 39.2214L147.991 40.4188ZM159.591 33.6456C157.445 35.1667 155.331 36.2276 153.403 36.6409C151.486 37.0515 149.786 36.8184 148.382 35.8004L147.678 36.7719C149.424 38.0383 151.495 38.2767 153.654 37.8142C155.8 37.3544 158.066 36.1976 160.285 34.6246L159.591 33.6456ZM163.99 22.9781C163.922 22.9163 163.927 22.8788 163.964 22.9818C163.993 23.0611 164.026 23.183 164.059 23.3526C164.125 23.6896 164.18 24.16 164.215 24.7374C164.285 25.8893 164.269 27.4186 164.108 29.0637C163.947 30.7094 163.641 32.4545 163.139 34.0441C162.634 35.6396 161.943 37.0398 161.032 38.0316L161.917 38.8429C162.99 37.6729 163.75 36.0902 164.283 34.4059C164.817 32.7158 165.135 30.8843 165.302 29.1807C165.469 27.4765 165.487 25.8837 165.413 24.665C165.376 24.0571 165.316 23.5301 165.237 23.1231C165.197 22.9206 165.15 22.7338 165.094 22.5759C165.045 22.4418 164.96 22.2387 164.798 22.091L163.99 22.9781ZM164.798 22.091C164.808 22.1003 164.849 22.1409 164.873 22.2183C164.9 22.3012 164.895 22.3808 164.877 22.4387C164.851 22.5235 164.814 22.5229 164.907 22.4491C165.072 22.3164 165.391 22.1533 165.798 21.9872C166.188 21.8276 166.607 21.6864 166.931 21.5841C167.093 21.5333 167.229 21.4927 167.324 21.465C167.372 21.4511 167.409 21.4405 167.435 21.4334C167.447 21.4299 167.457 21.4272 167.463 21.4255C167.466 21.4247 167.468 21.424 167.47 21.4237C167.47 21.4235 167.471 21.4233 167.471 21.4232C167.471 21.4232 167.471 21.4232 167.471 21.4232C167.471 21.4232 167.471 21.4232 167.471 21.4232C167.471 21.4232 167.471 21.4232 167.313 20.8444C167.155 20.2656 167.155 20.2656 167.155 20.2656C167.155 20.2656 167.155 20.2657 167.155 20.2657C167.155 20.2657 167.154 20.2658 167.154 20.2659C167.153 20.2661 167.153 20.2663 167.152 20.2666C167.149 20.2672 167.146 20.268 167.143 20.2691C167.135 20.2712 167.124 20.2742 167.11 20.2782C167.082 20.2862 167.041 20.2978 166.989 20.3127C166.887 20.3425 166.742 20.3856 166.571 20.4396C166.23 20.5468 165.777 20.6993 165.344 20.8763C164.926 21.0469 164.468 21.2634 164.157 21.512C164.011 21.6288 163.811 21.8194 163.729 22.0905C163.683 22.2416 163.676 22.4132 163.731 22.5863C163.785 22.7539 163.885 22.8828 163.99 22.9781L164.798 22.091ZM167.119 29.8329C166.553 29.6341 166.553 29.634 166.553 29.634C166.553 29.634 166.553 29.634 166.553 29.634C166.553 29.6341 166.552 29.6343 166.552 29.6346C166.552 29.6352 166.552 29.6362 166.551 29.6376C166.55 29.6404 166.549 29.6449 166.547 29.6509C166.542 29.6631 166.536 29.6815 166.527 29.706C166.509 29.755 166.482 29.8279 166.447 29.9219C166.376 30.1098 166.27 30.3816 166.133 30.7134C165.86 31.3779 165.463 32.2795 164.968 33.2304C164.473 34.1833 163.886 35.1735 163.235 36.0211C162.578 36.8761 161.888 37.545 161.197 37.9053L161.752 38.9693C162.666 38.4924 163.484 37.6672 164.187 36.7519C164.895 35.8293 165.518 34.773 166.033 33.7841C166.548 32.7932 166.96 31.8576 167.243 31.1704C167.385 30.8264 167.494 30.5436 167.569 30.346C167.606 30.2472 167.635 30.1696 167.654 30.1162C167.664 30.0895 167.672 30.0689 167.677 30.0547C167.679 30.0476 167.681 30.0421 167.682 30.0382C167.683 30.0363 167.684 30.0348 167.684 30.0337C167.684 30.0332 167.684 30.0327 167.685 30.0324C167.685 30.0322 167.685 30.0321 167.685 30.032C167.685 30.0318 167.685 30.0317 167.119 29.8329ZM167.608 30.1797C169.199 27.9337 170.996 26.0258 172.764 24.9914C173.643 24.4769 174.488 24.195 175.277 24.1708C176.055 24.147 176.815 24.3712 177.551 24.9323L178.279 23.978C177.329 23.2538 176.3 22.9389 175.24 22.9713C174.193 23.0034 173.153 23.3733 172.158 23.9557C170.177 25.1151 168.261 27.1813 166.629 29.4861L167.608 30.1797ZM178.199 24.9839L181.349 23.2937L180.781 22.2363L177.631 23.9265L178.199 24.9839ZM166.714 20.8806C166.85 23.1196 166.884 25.0825 166.804 26.8092L168.003 26.8643C168.085 25.0826 168.049 23.0749 167.912 20.8082L166.714 20.8806ZM166.804 26.8092C166.755 27.876 166.663 28.8501 166.526 29.7413L167.712 29.9245C167.857 28.9834 167.953 27.9658 168.003 26.8643L166.804 26.8092ZM181.386 22.2582C180.576 21.7448 179.754 21.3771 178.841 21.225C177.926 21.0725 176.958 21.1426 175.863 21.4508C173.701 22.0589 170.977 23.6163 167.061 26.3444L167.747 27.329C171.663 24.6005 174.241 23.1537 176.188 22.6059C177.147 22.3361 177.934 22.2904 178.644 22.4086C179.355 22.5272 180.026 22.8168 180.744 23.2718L181.386 22.2582ZM145.594 9.37879C145.166 12.034 144.505 15.31 143.902 18.8224L145.085 19.0254C145.675 15.5874 146.353 12.207 146.779 9.56987L145.594 9.37879ZM143.902 18.8224C143.073 23.6563 142.371 28.8444 142.682 32.8906C142.838 34.9112 143.251 36.7151 144.08 38.0568C144.931 39.4324 146.211 40.3021 147.991 40.4188L148.069 39.2214C146.704 39.1318 145.762 38.4954 145.101 37.4256C144.418 36.3219 144.029 34.7411 143.879 32.7984C143.58 28.9177 144.254 23.864 145.085 19.0254L143.902 18.8224ZM148.478 35.8867C148.058 35.4166 147.71 34.6111 147.467 33.4682C147.227 32.3392 147.102 30.9466 147.08 29.3674C147.035 26.2104 147.399 22.3768 148.008 18.5573L146.823 18.3684C146.208 22.2281 145.834 26.1351 145.88 29.3844C145.903 31.0083 146.031 32.4854 146.294 33.7179C146.553 34.9366 146.957 35.9846 147.583 36.6856L148.478 35.8867ZM148.008 18.5573C148.613 14.7657 149.502 10.9939 150.374 7.94939L149.22 7.61897C148.337 10.7035 147.436 14.5227 146.823 18.3683L148.008 18.5573ZM147.511 19.0551C150.056 18.6432 153.487 17.2356 156.132 15.9277L155.6 14.852C152.977 16.1487 149.68 17.4885 147.32 17.8705L147.511 19.0551ZM140.671 18.1953C140.647 18.5843 140.774 18.948 141.094 19.2026C141.368 19.4213 141.72 19.5052 142.034 19.545C142.662 19.6245 143.556 19.5659 144.52 19.5233L144.467 18.3245C143.426 18.3705 142.681 18.4173 142.184 18.3545C141.936 18.323 141.854 18.2739 141.842 18.2645C141.842 18.2644 141.843 18.2653 141.845 18.2673C141.847 18.2693 141.849 18.2721 141.852 18.2758C141.858 18.2836 141.863 18.2923 141.866 18.3002C141.873 18.3168 141.866 18.3125 141.868 18.2694L140.671 18.1953ZM144.521 19.5233L144.523 19.5231L144.469 18.3244L144.466 18.3245L144.521 19.5233ZM146.823 18.3684C146.745 18.8559 146.671 19.3441 146.602 19.8314L147.79 20.0011C147.858 19.5203 147.931 19.0386 148.008 18.5573L146.823 18.3684ZM144.758 21.0016C144.863 20.3405 144.972 19.6805 145.085 19.0254L143.902 18.8224C143.789 19.4816 143.678 20.1465 143.573 20.8135L144.758 21.0016ZM195.433 21.716C195.512 21.9329 195.587 22.1637 195.658 22.408L196.811 22.073C196.733 21.8055 196.649 21.5488 196.56 21.3038L195.433 21.716ZM195.664 22.4263L195.675 22.4597L196.816 22.0881L196.805 22.0546L195.664 22.4263ZM195.426 21.6959L195.664 22.4265L196.805 22.0545L196.567 21.3239L195.426 21.6959ZM195.165 21.0702C195.347 21.4552 195.511 21.9019 195.658 22.408L196.811 22.073C196.65 21.5203 196.464 21.0122 196.25 20.5581L195.165 21.0702ZM195.658 22.408C196.534 25.4215 196.717 30.2499 196.561 35.8081C196.406 41.3443 195.919 47.519 195.493 53.1893L196.69 53.2791C197.114 47.6202 197.604 41.4127 197.761 35.8417C197.916 30.2926 197.746 25.2888 196.811 22.073L195.658 22.408ZM207.044 32.1547L205.822 32.3683L206.028 33.5504L207.251 33.3368L207.044 32.1547ZM207.421 32.0792L207.03 32.1574L207.265 33.3341L207.656 33.2558L207.421 32.0792ZM207.775 31.9881L207.391 32.0861L207.687 33.2489L208.071 33.1509L207.775 31.9881ZM208.089 31.8817L207.733 32.0004L208.113 33.1386L208.469 33.0198L208.089 31.8817ZM208.486 31.6907L208.24 31.818L208.79 32.8844L209.037 32.757L208.486 31.6907ZM208.282 31.7983L208.046 31.8978L208.512 33.0037L208.748 32.9041L208.282 31.7983Z" fill="#00A7EE"/>
</svg>
